<svg width="24" height="24" viewBox="0 0 24 24" fill="none" xmlns="http://www.w3.org/2000/svg">
<path d="M20.9913 4.31323C20.9595 4.14199 20.8325 4 20.632 4C20.6086 4 20.5527 4.00668 20.5218 4.01671C20.5117 4.02088 20.5009 4.02506 20.4925 4.02924C20.4424 4.04761 20.3923 4.06933 20.3421 4.08938C20.1333 4.17458 19.9244 4.25811 19.7156 4.34414C18.9387 4.65737 18.1617 4.97229 17.3849 5.28635C16.2922 5.72739 15.2029 6.1701 14.1126 6.6103C12.9029 7.09896 11.6917 7.58927 10.4827 8.07876C9.34823 8.53817 8.21469 8.99593 7.07844 9.45534C6.21379 9.80449 5.35083 10.1528 4.48706 10.5036C4.09024 10.664 3.69175 10.8252 3.29411 10.9864C3.28576 10.9881 3.27908 10.9931 3.27072 10.9948C3.14708 11.0449 3.04683 11.1268 3.01176 11.2621C2.95996 11.4692 3.08527 11.6421 3.27072 11.7173C3.32252 11.7382 3.37682 11.7591 3.43112 11.78C3.76945 11.9136 4.1078 12.0473 4.44864 12.1809C5.59481 12.632 6.73932 13.0847 7.88627 13.5366C8.56712 13.8056 9.24964 14.0754 9.93133 14.3427L14.1025 10.172C14.3097 9.96482 14.633 9.97986 14.8418 10.172C15.049 10.3624 15.0365 10.7166 14.8418 10.9112C14.6681 11.0825 14.4976 11.2554 14.3255 11.4274C13.572 12.1792 12.8201 12.9327 12.0659 13.6868L10.6708 15.0818C10.8278 15.4811 10.984 15.877 11.1428 16.2763C11.6039 17.4474 12.0684 18.6167 12.5295 19.7887C12.7868 20.4386 13.0374 21.0901 13.2981 21.7367C13.4401 22.0858 13.8762 22.0892 14.0207 21.7383C14.0224 21.7317 14.0249 21.7258 14.0274 21.7216C14.0441 21.6799 14.0608 21.6364 14.0792 21.5947C14.1586 21.3984 14.2379 21.2021 14.3173 21.0083C14.6197 20.2607 14.9205 19.5148 15.2237 18.7679C15.6581 17.6971 16.0909 16.6229 16.5253 15.552C17.0115 14.3492 17.4985 13.1481 17.983 11.9452C18.4425 10.8109 18.9003 9.67492 19.3598 8.54137C19.719 7.65429 20.0782 6.76385 20.4375 5.87675C20.6129 5.44407 20.7883 5.0097 20.9621 4.57786C20.9663 4.56784 20.9704 4.55698 20.9746 4.54612C20.983 4.52774 20.9913 4.50602 20.998 4.48765C21.0013 4.425 21.0013 4.36669 20.9913 4.31323Z" fill="black"/>
</svg>
