<svg width="24" height="24" viewBox="0 0 24 24" fill="none" xmlns="http://www.w3.org/2000/svg">
<path opacity="0.2" d="M19 4V20H10V4H19Z" fill="black"/>
<path fill-rule="evenodd" clip-rule="evenodd" d="M9.00002 4C9.00002 2.89543 9.89545 2 11 2H19C20.1046 2 21 2.89543 21 4V20C21 21.1046 20.1046 22 19 22H11C9.89545 22 9.00002 21.1046 9.00001 20L9 16C9 15.4477 9.44771 15 10 15C10.5523 15 11 15.4477 11 16L11 20H19V4H11V8C11 8.55228 10.5523 9 10 9C9.44773 9 9.00002 8.55228 9.00002 8V4ZM13.5 6C13.5 5.44772 13.9477 5 14.5 5H15.5C16.0523 5 16.5 5.44772 16.5 6C16.5 6.55228 16.0523 7 15.5 7H14.5C13.9477 7 13.5 6.55228 13.5 6ZM4.29289 7.29289C4.68342 6.90237 5.31658 6.90237 5.70711 7.29289L9.70711 11.2929C10.0976 11.6834 10.0976 12.3166 9.70711 12.7071L5.70711 16.7071C5.31658 17.0976 4.68342 17.0976 4.29289 16.7071C3.90237 16.3166 3.90237 15.6834 4.29289 15.2929L6.58579 13H2C1.44772 13 1 12.5523 1 12C1 11.4477 1.44772 11 2 11H6.58579L4.29289 8.70711C3.90237 8.31658 3.90237 7.68342 4.29289 7.29289ZM12 18C12 17.4477 12.4477 17 13 17H17C17.5523 17 18 17.4477 18 18C18 18.5523 17.5523 19 17 19H13C12.4477 19 12 18.5523 12 18Z" fill="black"/>
</svg>
