<svg width="24" height="24" viewBox="0 0 24 24" fill="none" xmlns="http://www.w3.org/2000/svg">
<path d="M10.7073 5.29289C11.0979 5.68342 11.0979 6.31658 10.7073 6.70711L6.41451 10.9999H20C20.5523 10.9999 21 11.4477 21 11.9999C21 12.5522 20.5523 12.9999 20 12.9999H6.41439L10.7073 17.2929C11.0979 17.6834 11.0979 18.3166 10.7073 18.7071C10.3168 19.0976 9.68365 19.0976 9.29313 18.7071L3.30433 12.7183C3.11666 12.5365 3 12.2819 3 11.9999C3 11.7164 3.11798 11.4605 3.30751 11.2785L9.29313 5.29289C9.68365 4.90237 10.3168 4.90237 10.7073 5.29289Z" fill="black"/>
</svg>
