<svg width="24" height="24" viewBox="0 0 24 24" fill="none" xmlns="http://www.w3.org/2000/svg">
<path fill-rule="evenodd" clip-rule="evenodd" d="M19 2H11C9.89543 2 9 2.89543 9 4V8L12.2929 11.2929C12.6834 11.6834 12.6834 12.3166 12.2929 12.7071L9 16V20C9 21.1046 9.89543 22 11 22H19C20.1046 22 21 21.1046 21 20V4C21 2.89543 20.1046 2 19 2ZM13 3.5C13 3.22386 13.2239 3 13.5 3H16.5C16.7761 3 17 3.22386 17 3.5C17 3.77614 16.7761 4 16.5 4H13.5C13.2239 4 13 3.77614 13 3.5ZM11.5 20C11.2239 20 11 20.2239 11 20.5C11 20.7761 11.2239 21 11.5 21H18.5C18.7761 21 19 20.7761 19 20.5C19 20.2239 18.7761 20 18.5 20H11.5Z" fill="black"/>
<path d="M5.70711 7.29289C5.31658 6.90237 4.68342 6.90237 4.29289 7.29289C3.90237 7.68342 3.90237 8.31658 4.29289 8.70711L6.58579 11H2C1.44772 11 1 11.4477 1 12C1 12.5523 1.44772 13 2 13H6.58579L4.29289 15.2929C3.90237 15.6834 3.90237 16.3166 4.29289 16.7071C4.68342 17.0976 5.31658 17.0976 5.70711 16.7071L9.70711 12.7071C10.0976 12.3166 10.0976 11.6834 9.70711 11.2929L5.70711 7.29289Z" fill="black"/>
</svg>
