<svg width="24" height="24" viewBox="0 0 24 24" fill="none" xmlns="http://www.w3.org/2000/svg">
<path fill-rule="evenodd" clip-rule="evenodd" d="M13.8025 4.34C12.9228 3.98734 11.9579 3.90681 11.0322 4.10876C10.1064 4.31072 9.26211 4.78594 8.60822 5.4734C8.22759 5.87357 7.59462 5.88942 7.19445 5.50879C6.79428 5.12815 6.77844 4.49519 7.15907 4.09501C8.08843 3.11793 9.28897 2.44201 10.6059 2.15472C11.9228 1.86743 13.2955 1.98201 14.5467 2.48363C15.7979 2.98524 16.8701 3.85078 17.6251 4.96831C18.3801 6.08576 18.7833 7.40399 18.7831 8.75294V12.5C18.7831 13.0523 18.3354 13.5 17.7831 13.5C17.2308 13.5 16.7831 13.0523 16.7831 12.5V8.75294C16.7833 7.80288 16.4993 6.8745 15.9679 6.08794C15.4365 5.30141 14.6822 4.69268 13.8025 4.34ZM3.76423 6.61949L5.29677 7.91163V11.9723L3.46027 14.7311C3.18505 15.1447 3.02713 15.6251 3.0032 16.1213C2.97926 16.6174 3.09018 17.1108 3.32426 17.549C3.55835 17.9871 3.90688 18.3536 4.33288 18.6092C4.75889 18.8649 5.24638 19 5.74323 19H18.4481L19.3554 19.765C19.7777 20.121 20.4085 20.0673 20.7645 19.6451C21.1205 19.2228 21.0668 18.592 20.6446 18.2359L5.05343 5.09044C4.63119 4.73444 4.00031 4.78813 3.64431 5.21037C3.2883 5.6326 3.342 6.26348 3.76423 6.61949ZM7.29677 12.1868V9.5979L16.076 17H5.74323C5.60905 17 5.47728 16.9635 5.36196 16.8943C5.24661 16.8251 5.15196 16.7257 5.08828 16.6065C5.0246 16.4873 4.99435 16.3529 5.00087 16.2176C5.00739 16.0824 5.05048 15.9516 5.12526 15.8392L7.08097 12.9013C7.22183 12.6897 7.29684 12.4408 7.29677 12.1868ZM12 22C12.4905 22.0002 12.9642 21.8225 13.3322 21.5002C13.7001 21.178 13.937 20.7334 13.9983 20.25C14.0154 20.113 13.9007 20 13.7617 20H10.2383C10.0993 20 9.98458 20.113 10.0017 20.25C10.063 20.7334 10.2999 21.178 10.6678 21.5002C11.0358 21.8225 11.5095 22.0002 12 22Z" fill="black"/>
</svg>
