<svg width="24" height="24" viewBox="0 0 24 24" fill="none" xmlns="http://www.w3.org/2000/svg">
<path fill-rule="evenodd" clip-rule="evenodd" d="M18.1149 18.0019L5.88546 18.0019C4.71852 18.0006 3.66617 17.2973 3.21947 16.2189C2.77406 15.1405 3.02019 13.8993 3.84461 13.0736V13.0749L5.66534 11.2542V8.33293C5.66534 6.06943 6.87263 3.97907 8.83276 2.8473C10.7929 1.71553 13.2075 1.7157 15.1676 2.8473C17.1277 3.9789 18.335 6.06936 18.335 8.33293V11.2542L20.1557 13.0736C20.9802 13.8993 21.2263 15.1405 20.7809 16.2189C20.3341 17.2973 19.2818 18.0006 18.1149 18.0019ZM7.66572 12.0799L5.25888 14.4881L5.25883 14.4881C5.00486 14.742 4.92932 15.1223 5.06608 15.4544C5.20411 15.7852 5.52712 16.0014 5.88527 16.0014H18.1148C18.473 16.0014 18.796 15.7852 18.934 15.4544C19.0708 15.1223 18.9952 14.742 18.7413 14.4881V14.4868L16.3344 12.0799V8.33303C16.3344 5.93923 14.3939 3.99867 12.0001 3.99867C9.60628 3.99867 7.66572 5.93923 7.66572 8.33303V12.0799ZM14.6674 20.0024H9.33281V22.0029H14.6674V20.0024Z" fill="black"/>
</svg>
