<svg width="24" height="24" viewBox="0 0 24 24" fill="none" xmlns="http://www.w3.org/2000/svg">
<path fill-rule="evenodd" clip-rule="evenodd" d="M7.32733 10.1036L11.3273 13.7399C11.7087 14.0867 12.2913 14.0867 12.6727 13.7399L16.6727 10.1036C17.0813 9.73207 17.1114 9.09962 16.7399 8.69096C16.3684 8.28231 15.736 8.25219 15.3273 8.6237L13 10.7394V3C13 2.44771 12.5523 2 12 2C11.4477 2 11 2.44771 11 3V10.7394L8.67267 8.6237C8.26402 8.25219 7.63157 8.28231 7.26006 8.69096C6.88855 9.09962 6.91867 9.73207 7.32733 10.1036ZM4 8C4 7.44772 3.55228 7 3 7C2.44772 7 2 7.44772 2 8V18C2 20.2091 3.79086 22 6 22H18C20.2091 22 22 20.2091 22 18V8.00001C22 7.44772 21.5523 7.00001 21 7.00001C20.4477 7.00001 20 7.44772 20 8.00001V18C20 19.1046 19.1046 20 18 20H6C4.89543 20 4 19.1046 4 18V8Z" fill="black"/>
</svg>
