<svg width="24" height="24" viewBox="0 0 24 24" fill="none" xmlns="http://www.w3.org/2000/svg">
<g clip-path="url(#clip0_543_51292)">
<path fill-rule="evenodd" clip-rule="evenodd" d="M5.32733 8.10358L9.32733 11.7399C9.70875 12.0867 10.2913 12.0867 10.6727 11.7399L14.6727 8.10358C15.0813 7.73207 15.1114 7.09962 14.7399 6.69096C14.3684 6.28231 13.736 6.25219 13.3273 6.6237L11 8.73945V1C11 0.447715 10.5523 0 10 0C9.44771 0 9 0.447715 9 1V8.73945L6.67267 6.6237C6.26402 6.25219 5.63157 6.28231 5.26006 6.69096C4.88855 7.09962 4.91867 7.73207 5.32733 8.10358ZM2 6C2 5.44772 1.55228 5 1 5C0.447715 5 0 5.44772 0 6V16C0 18.2091 1.79086 20 4 20H6.07089C6.02417 19.6734 6 19.3395 6 19C6 18.6605 6.02417 18.3266 6.07089 18H4C2.89543 18 2 17.1046 2 16V6ZM20 6.00001V12.2899C19.3663 12.1013 18.695 12 18 12V6.00001C18 5.44772 18.4477 5.00001 19 5.00001C19.5523 5.00001 20 5.44772 20 6.00001ZM17.2425 13.9094C17.7734 14.0618 18.0951 14.6197 17.9611 15.1555L15.9611 23.1555C15.8272 23.6913 15.2883 24.0021 14.7575 23.8497C14.2266 23.6972 13.9049 23.1393 14.0389 22.6035L16.0389 14.6035C16.1728 14.0677 16.7117 13.7569 17.2425 13.9094ZM12.6402 16.7683C13.0645 16.4147 13.1218 15.7842 12.7682 15.3599C12.4147 14.9356 11.7841 14.8783 11.3598 15.2318L8.35982 17.7318C8.13182 17.9218 8 18.2033 8 18.5001C8 18.7968 8.13182 19.0783 8.35982 19.2683L11.3598 21.7683C11.7841 22.1218 12.4147 22.0645 12.7682 21.6402C13.1218 21.216 13.0645 20.5854 12.6402 20.2318L10.562 18.5001L12.6402 16.7683ZM19.3598 16.7683C18.9355 16.4147 18.8782 15.7842 19.2318 15.3599C19.5853 14.9356 20.2159 14.8783 20.6402 15.2318L23.6402 17.7318C23.8682 17.9218 24 18.2033 24 18.5001C24 18.7968 23.8682 19.0783 23.6402 19.2683L20.6402 21.7683C20.2159 22.1218 19.5853 22.0645 19.2318 21.6402C18.8782 21.216 18.9355 20.5854 19.3598 20.2318L21.438 18.5001L19.3598 16.7683Z" fill="black"/>
</g>
<defs>
<clipPath id="clip0_543_51292">
<rect width="24" height="24" fill="white"/>
</clipPath>
</defs>
</svg>
