<svg width="24" height="24" viewBox="0 0 24 24" fill="none" xmlns="http://www.w3.org/2000/svg">
<path fill-rule="evenodd" clip-rule="evenodd" d="M8.86851 4.56013C9.03642 4.21732 9.38484 4 9.76657 4H14.2334C14.6152 4 14.9636 4.21732 15.1315 4.56013L15.7256 5.7732C15.8936 6.11601 16.242 6.33333 16.6237 6.33333H17.7143C18.981 6.33333 20 7.37353 20 8.66667V15.6667C20 16.9598 18.981 18 17.7143 18H6.28571C5.01897 18 4 16.9598 4 15.6667V8.66667C4 7.37353 5.01897 6.33333 6.28571 6.33333H7.37629C7.75801 6.33333 8.10644 6.11601 8.27435 5.7732L8.86851 4.56013ZM15.7143 12.1667C15.7143 10.0794 14.0446 8.375 12 8.375C9.95537 8.375 8.28571 10.0794 8.28571 12.1667C8.28571 14.2539 9.95537 15.9583 12 15.9583C14.0446 15.9583 15.7143 14.2539 15.7143 12.1667ZM12.4579 9.03516C12.207 8.9964 12 9.20583 12 9.45973C12 9.71363 12.2083 9.91439 12.456 9.97004C12.572 9.9961 12.6858 10.0321 12.7962 10.0778C13.0486 10.1824 13.278 10.3356 13.4712 10.5288C13.6644 10.722 13.8176 10.9514 13.9222 11.2038C13.9679 11.3142 14.0039 11.428 14.03 11.544C14.0856 11.7917 14.2864 12 14.5403 12C14.7942 12 15.0036 11.793 14.9648 11.5421C14.9283 11.3057 14.8636 11.074 14.7716 10.852C14.6209 10.488 14.3999 10.1573 14.1213 9.87868C13.8427 9.6001 13.512 9.37913 13.1481 9.22836C12.926 9.1364 12.6943 9.07167 12.4579 9.03516Z" fill="black"/>
</svg>
