<svg width="24" height="24" viewBox="0 0 24 24" fill="none" xmlns="http://www.w3.org/2000/svg">
<path opacity="0.2" d="M21 4.75006V8.64657C20.5594 8.2526 20.0456 7.94927 19.4878 7.75389C18.93 7.55851 18.3392 7.47491 17.7491 7.50786C17.159 7.54081 16.5812 7.68967 16.0486 7.94593C15.516 8.20219 15.0391 8.56085 14.6452 9.00141C14.2512 9.44197 13.9479 9.95582 13.7525 10.5136C13.5571 11.0714 13.4735 11.6622 13.5064 12.2523C13.5394 12.8424 13.6883 13.4203 13.9445 13.9528C14.2008 14.4854 14.5594 14.9623 15 15.3563V18H3.75C3.55109 18 3.36032 17.921 3.21967 17.7803C3.07902 17.6397 3 17.4489 3 17.25V4.75006C3 4.55115 3.07902 4.36038 3.21967 4.21973C3.36032 4.07908 3.55109 4.00006 3.75 4.00006H20.25C20.4489 4.00006 20.6397 4.07908 20.7803 4.21973C20.921 4.36038 21 4.55115 21 4.75006Z" fill="black"/>
<path fill-rule="evenodd" clip-rule="evenodd" d="M3 3C2.44772 3 2 3.44772 2 4V18C2 18.5523 2.44772 19 3 19H12C12.5523 19 13 18.5523 13 18C13 17.4477 12.5523 17 12 17H4V5H20V6C20 6.55228 20.4477 7 21 7C21.5523 7 22 6.55228 22 6V4C22 3.44772 21.5523 3 21 3H3ZM7 8C6.44772 8 6 8.44772 6 9C6 9.55228 6.44772 10 7 10H11C11.5523 10 12 9.55228 12 9C12 8.44772 11.5523 8 11 8H7ZM6 13C6 12.4477 6.44772 12 7 12H11C11.5523 12 12 12.4477 12 13C12 13.5523 11.5523 14 11 14H7C6.44772 14 6 13.5523 6 13ZM15 12C15 10.3431 16.3431 9 18 9C19.6569 9 21 10.3431 21 12C21 12.7615 20.7176 13.4546 20.2503 13.9841C19.6991 14.6086 18.8959 15 18 15C17.1041 15 16.3009 14.6086 15.7497 13.9841C15.2824 13.4546 15 12.7615 15 12ZM18 7C15.2386 7 13 9.23858 13 12C13 13.125 13.3726 14.1649 14 15.0004V21C14 21.3466 14.1795 21.6684 14.4743 21.8507C14.7691 22.0329 15.1372 22.0494 15.4472 21.8944L18 20.618L20.5528 21.8944C20.8628 22.0494 21.2309 22.0329 21.5257 21.8507C21.8205 21.6684 22 21.3466 22 21V15.0004C22.6274 14.1649 23 13.125 23 12C23 9.23858 20.7614 7 18 7ZM16 19.382V16.5837C16.6125 16.8513 17.289 17 18 17C18.711 17 19.3875 16.8513 20 16.5837V19.382L18.4472 18.6056C18.1657 18.4648 17.8343 18.4648 17.5528 18.6056L16 19.382Z" fill="black"/>
</svg>
