<svg width="24" height="24" viewBox="0 0 24 24" fill="none" xmlns="http://www.w3.org/2000/svg">
<path fill-rule="evenodd" clip-rule="evenodd" d="M3 19H14V20.9997C14 21.3463 14.1795 21.6681 14.4743 21.8503C14.7691 22.0325 15.1372 22.0491 15.4472 21.8941L18 20.6177L20.5528 21.8941C20.8628 22.0491 21.2309 22.0325 21.5257 21.8503C21.8205 21.6681 22 21.3463 22 20.9997V15.4722C23.2275 14.3736 24 12.777 24 11C24 9.223 23.2275 7.62643 22 6.52779V4C22 3.44772 21.5523 3 21 3H3C2.44772 3 2 3.44772 2 4V18C2 18.5523 2.44772 19 3 19ZM16 16.6586V19.3816L17.5528 18.6053C17.8343 18.4645 18.1657 18.4645 18.4472 18.6053L20 19.3816V16.6586C19.3744 16.8797 18.7013 17 18 17C17.2987 17 16.6256 16.8797 16 16.6586ZM6 9C6 8.44772 6.44772 8 7 8H11C11.5523 8 12 8.44772 12 9C12 9.55228 11.5523 10 11 10H7C6.44772 10 6 9.55228 6 9ZM7 12C6.44772 12 6 12.4477 6 13C6 13.5523 6.44772 14 7 14H11C11.5523 14 12 13.5523 12 13C12 12.4477 11.5523 12 11 12H7ZM14 11C14 8.79086 15.7909 7 18 7C20.2091 7 22 8.79086 22 11C22 13.2091 20.2091 15 18 15C15.7909 15 14 13.2091 14 11Z" fill="black"/>
</svg>
