<svg width="24" height="24" viewBox="0 0 24 24" fill="none" xmlns="http://www.w3.org/2000/svg">
<path fill-rule="evenodd" clip-rule="evenodd" d="M4 3C2.89543 3 2 3.89543 2 5V19C2 20.1046 2.89543 21 4 21H20C21.1046 21 22 20.1046 22 19V5C22 3.89543 21.1046 3 20 3H4ZM6 6C6 5.44772 5.55228 5 5 5C4.44772 5 4 5.44772 4 6V13.875V18C4 18.5523 4.44772 19 5 19H19C19.5523 19 20 18.5523 20 18C20 17.4477 19.5523 17 19 17H6V14.3859L9.69983 11.7101L13.7926 14.3412C14.1544 14.5738 14.6244 14.5489 14.9597 14.2795L19.6264 10.5295C20.0569 10.1836 20.1255 9.55412 19.7795 9.12361C19.4336 8.6931 18.8041 8.62455 18.3736 8.97049L14.2683 12.2694L10.2074 9.65882C9.86126 9.43629 9.41411 9.44854 9.08065 9.6897L6 11.9177V6Z" fill="black"/>
</svg>
