<svg width="24" height="24" viewBox="0 0 24 24" fill="none" xmlns="http://www.w3.org/2000/svg">
<path fill-rule="evenodd" clip-rule="evenodd" d="M12 22C17.5228 22 22 17.5228 22 12C22 6.47715 17.5228 2 12 2C6.47715 2 2 6.47715 2 12C2 17.5228 6.47715 22 12 22ZM15.7076 8.29195C16.0981 8.6825 16.0981 9.31566 15.7076 9.70617L13.4136 11.9999L15.7076 14.2937C16.0981 14.6842 16.0981 15.3174 15.7076 15.7079C15.3171 16.0985 14.684 16.0985 14.2934 15.708L11.9993 13.4141L9.70545 15.7077C9.31491 16.0982 8.68174 16.0982 8.29124 15.7076C7.90074 15.3171 7.90077 14.6839 8.29131 14.2934L10.585 11.9999L8.29131 9.70648C7.90077 9.31598 7.90074 8.68282 8.29124 8.29227C8.68174 7.90173 9.31491 7.9017 9.70545 8.2922L11.9993 10.5858L14.2934 8.29188C14.684 7.90138 15.3171 7.90141 15.7076 8.29195Z" fill="black"/>
</svg>
