<svg width="24" height="24" viewBox="0 0 24 24" fill="none" xmlns="http://www.w3.org/2000/svg">
<path fill-rule="evenodd" clip-rule="evenodd" d="M5.7071 4.29241C5.31657 3.90189 4.68341 3.90189 4.29289 4.29242C3.90237 4.68295 3.90237 5.31611 4.2929 5.70664L10.5842 11.9978L4.2929 18.289C3.90237 18.6796 3.90237 19.3127 4.29289 19.7033C4.68341 20.0938 5.31657 20.0938 5.7071 19.7033L11.9984 13.412L18.2895 19.7031C18.6801 20.0936 19.3132 20.0936 19.7037 19.703C20.0943 19.3125 20.0943 18.6794 19.7037 18.2888L13.4126 11.9978L19.7037 5.70684C20.0943 5.31632 20.0943 4.68316 19.7037 4.29263C19.3132 3.9021 18.6801 3.9021 18.2895 4.29262L11.9984 10.5836L5.7071 4.29241Z" fill="black"/>
</svg>
