<svg width="24" height="24" viewBox="0 0 24 24" fill="none" xmlns="http://www.w3.org/2000/svg">
<path fill-rule="evenodd" clip-rule="evenodd" d="M4 9.5C4 6.46243 6.46243 4 9.5 4C12.1746 4 14.4053 5.91018 14.8984 8.44117C15.0372 9.15406 15.8063 9.5294 16.4481 9.23113C16.7666 9.08312 17.1222 9 17.5 9C18.8807 9 20 10.1193 20 11.5C20 12.4416 19.4712 13.1691 18.5709 13.5967C18.0721 13.8337 17.8598 14.4302 18.0967 14.9291C18.3337 15.4279 18.9302 15.6402 19.4291 15.4033C20.8938 14.7075 22 13.3508 22 11.5C22 9.01472 19.9853 7 17.5 7C17.1936 7 16.8939 7.03075 16.6039 7.08943C15.5998 4.12986 12.7995 2 9.5 2C5.35786 2 2 5.35786 2 9.5C2 11.5148 2.79577 13.3458 4.08806 14.6924C4.47046 15.0909 5.10349 15.1039 5.50197 14.7215C5.90045 14.3391 5.91349 13.7061 5.53109 13.3076C4.58184 12.3184 4 10.9782 4 9.5ZM13 12C13 11.4477 12.5523 11 12 11C11.4477 11 11 11.4477 11 12V18.5858L8.70711 16.2929C8.31658 15.9024 7.68342 15.9024 7.29289 16.2929C6.90237 16.6834 6.90237 17.3166 7.29289 17.7071L11.2929 21.7071C11.6834 22.0976 12.3166 22.0976 12.7071 21.7071L16.7071 17.7071C17.0976 17.3166 17.0976 16.6834 16.7071 16.2929C16.3166 15.9024 15.6834 15.9024 15.2929 16.2929L13 18.5858V12Z" fill="black"/>
</svg>
