<svg width="24" height="24" viewBox="0 0 24 24" fill="none" xmlns="http://www.w3.org/2000/svg">
<path d="M5.74664 4.2679C5.39162 3.9107 4.81601 3.9107 4.46099 4.2679C4.10597 4.62511 4.10597 5.20425 4.46099 5.56145L7.5148 8.63402C7.44757 8.77161 7.38636 8.91277 7.33153 9.05715C7.27998 9.18133 7.18417 9.1577 6.97975 9.10727C6.73387 9.04662 6.33085 8.9472 5.65867 9.01961C3.66167 9.21395 2.05757 10.948 2.00133 12.9697C1.94579 15.175 3.63109 16.9965 5.77157 17.1466L5.75884 17.1592H15.9879L19.539 20.7321C19.894 21.0893 20.4696 21.0893 20.8246 20.7321C21.1797 20.3749 21.1797 19.7958 20.8246 19.4385L5.74664 4.2679Z" fill="black"/>
<path d="M21.9187 12.9446C22.2342 14.4249 21.603 15.7907 20.5207 16.5457L10.1997 6.16125C10.7543 5.9468 11.3571 5.82935 11.9878 5.82935C14.6023 5.82935 16.7435 7.85182 16.9558 10.4267C16.969 10.5334 17.0751 10.5968 17.1746 10.5526C17.8054 10.2699 18.5357 10.169 19.3033 10.3324C20.5957 10.6025 21.6443 11.6443 21.9187 12.9446Z" fill="black"/>
</svg>
