<svg width="24" height="24" viewBox="0 0 24 24" fill="none" xmlns="http://www.w3.org/2000/svg">
<path fill-rule="evenodd" clip-rule="evenodd" d="M12 7C14.6125 7 16.899 8.38276 18.6472 9.97755C19.4395 10.7003 20.077 11.4275 20.5326 12C20.077 12.5725 19.4395 13.2997 18.6472 14.0225C16.899 15.6172 14.6125 17 12 17C9.38748 17 7.10101 15.6172 5.35283 14.0225C4.56052 13.2997 3.92296 12.5725 3.46744 12C3.92296 11.4275 4.56052 10.7003 5.35283 9.97755C7.10101 8.38276 9.38748 7 12 7ZM12 19C5.34647 19 1 12 1 12C1 12 5.34647 5 12 5C18.6535 5 23 12 23 12C23 12 18.6535 19 12 19ZM12 10C13.1272 10 14 10.9383 14 12C14 13.0616 13.1271 14 12 14C10.8729 14 10 13.0616 10 12C10 10.9384 10.8729 10 12 10ZM16 12C16 9.89509 14.2921 8 12 8C9.70798 8 8 9.89509 8 12C8 14.1049 9.70798 16 12 16C14.292 16 16 14.1049 16 12Z" fill="black"/>
</svg>
