<svg width="24" height="24" viewBox="0 0 24 24" fill="none" xmlns="http://www.w3.org/2000/svg">
<g clip-path="url(#clip0_2272_164492)">
<rect y="4" width="24" height="16" fill="#FF2936"/>
<path fill-rule="evenodd" clip-rule="evenodd" d="M0 20H9V4H0V20Z" fill="#128415"/>
<path fill-rule="evenodd" clip-rule="evenodd" d="M8 10.9046C8 10.7205 8.14924 10.5713 8.33333 10.5713H9.95238C10.1365 10.5713 10.2857 10.7205 10.2857 10.9046V12.857C10.2857 13.4882 9.77404 13.9999 9.14286 13.9999C8.51167 13.9999 8 13.4882 8 12.857V10.9046Z" fill="white"/>
<path d="M9.14289 15.2381C10.7734 15.2381 12.0953 13.9163 12.0953 12.2857C12.0953 10.6552 10.7734 9.33333 9.14289 9.33333C7.51234 9.33333 6.19051 10.6552 6.19051 12.2857C6.19051 13.9163 7.51234 15.2381 9.14289 15.2381Z" stroke="#FAF94F" stroke-width="1.33333"/>
<path fill-rule="evenodd" clip-rule="evenodd" d="M9.1429 12.8574C9.45849 12.8574 9.71433 12.0301 9.71433 11.7145C9.71433 11.3989 9.45849 11.1431 9.1429 11.1431C8.82731 11.1431 8.57147 11.3989 8.57147 11.7145C8.57147 12.0301 8.82731 12.8574 9.1429 12.8574Z" fill="#1D50B5"/>
</g>
<defs>
<clipPath id="clip0_2272_164492">
<rect y="4" width="24" height="16" rx="2" fill="white"/>
</clipPath>
</defs>
</svg>
