<svg width="24" height="24" viewBox="0 0 24 24" fill="none" xmlns="http://www.w3.org/2000/svg">
<path fill-rule="evenodd" clip-rule="evenodd" d="M3 5C2.44772 5 2 5.44772 2 6C2 6.55228 2.44772 7 3 7H21C21.5523 7 22 6.55228 22 6C22 5.44772 21.5523 5 21 5H3ZM6 9C5.44772 9 5 9.44772 5 10C5 10.5523 5.44772 11 6 11H18C18.5523 11 19 10.5523 19 10C19 9.44772 18.5523 9 18 9H6ZM8 14C8 13.4477 8.44772 13 9 13H15C15.5523 13 16 13.4477 16 14C16 14.5523 15.5523 15 15 15H9C8.44772 15 8 14.5523 8 14ZM11 17C10.4477 17 10 17.4477 10 18C10 18.5523 10.4477 19 11 19H13C13.5523 19 14 18.5523 14 18C14 17.4477 13.5523 17 13 17H11Z" fill="black"/>
</svg>
