<svg width="24" height="24" viewBox="0 0 24 24" fill="none" xmlns="http://www.w3.org/2000/svg">
<path opacity="0.2" d="M19 12C19 15.866 15.866 19 12 19C8.13401 19 5 15.866 5 12C5 8.13401 8.13401 5 12 5C15.866 5 19 8.13401 19 12ZM8.99524 12C8.99524 13.6595 10.3405 15.0048 12 15.0048C13.6595 15.0048 15.0048 13.6595 15.0048 12C15.0048 10.3405 13.6595 8.99524 12 8.99524C10.3405 8.99524 8.99524 10.3405 8.99524 12Z" fill="black"/>
<path fill-rule="evenodd" clip-rule="evenodd" d="M8.30446 13.5303C7.45906 11.4893 8.42826 9.14943 10.4692 8.30403C12.5102 7.45863 14.8501 8.42784 15.6955 10.4688C16.5409 12.5098 15.5717 14.8497 13.5307 15.6951C11.4897 16.5405 9.14986 15.5713 8.30446 13.5303ZM11.2346 10.1518C10.2141 10.5745 9.72952 11.7444 10.1522 12.7649C10.5749 13.7854 11.7449 14.27 12.7653 13.8473C13.7858 13.4246 14.2704 12.2547 13.8477 11.2342C13.425 10.2137 12.2551 9.72909 11.2346 10.1518Z" fill="black"/>
<path fill-rule="evenodd" clip-rule="evenodd" d="M7.95207 3.93472C7.3744 4.174 7.00575 4.74651 7.02696 5.37142L7.08513 7.0851L5.37201 7.02695C4.7471 7.00574 4.17459 7.37439 3.93531 7.95206L3.43514 9.15957C3.19586 9.73724 3.34002 10.4027 3.79689 10.8296L5.04916 11.9997L3.79673 13.1699C3.33985 13.5968 3.1957 14.2623 3.43498 14.8399L3.93514 16.0475C4.17442 16.6251 4.74694 16.9938 5.37185 16.9726L7.08549 16.9144L7.02731 18.6286C7.0061 19.2535 7.37475 19.826 7.95242 20.0653L9.15993 20.5655C9.7376 20.8047 10.4031 20.6606 10.83 20.2037L12.0006 18.9509L13.1703 20.2028C13.5972 20.6597 14.2627 20.8038 14.8404 20.5645L16.0479 20.0644C16.6256 19.8251 16.9942 19.2526 16.973 18.6277L16.9149 16.9148L18.6283 16.973C19.2532 16.9942 19.8257 16.6255 20.065 16.0479L20.5651 14.8404C20.8044 14.2627 20.6603 13.5972 20.2034 13.1703L18.9505 11.9997L20.2032 10.8292C20.6601 10.4023 20.8043 9.73683 20.565 9.15916L20.0648 7.95165C19.8255 7.37398 19.253 7.00533 18.6281 7.02654L16.9152 7.08467L16.9733 5.37232C16.9946 4.74742 16.6259 4.1749 16.0482 3.93562L14.8407 3.43546C14.263 3.19618 13.5975 3.34033 13.1707 3.7972L12.0006 5.04952L10.8296 3.7963C10.4028 3.33942 9.73725 3.19527 9.15958 3.43455L7.95207 3.93472ZM11.9925 6.43339C11.5759 6.45845 11.1576 6.5242 10.7428 6.63287L9.60482 5.41491L9.03756 5.64988L9.09411 7.31578C8.72279 7.53291 8.37944 7.78316 8.06632 8.06109C7.78654 8.37561 7.53471 8.72071 7.31637 9.0941L5.65047 9.03755L5.4155 9.60482L6.63346 10.7428C6.52402 11.1605 6.45811 11.5818 6.43345 12.0013C6.45826 12.4198 6.52412 12.8401 6.63329 13.2567L5.41534 14.3947L5.6503 14.962L7.31622 14.9054C7.53459 15.2789 7.78646 15.624 8.06629 15.9386C8.37951 16.2166 8.72298 16.467 9.09445 16.6842L9.03791 18.3501L9.60517 18.5851L10.7432 17.3671C11.1578 17.4758 11.576 17.5415 11.9925 17.5666C12.414 17.5422 12.8374 17.4762 13.2571 17.3662L14.3951 18.5842L14.9624 18.3492L14.9058 16.6833C15.2792 16.465 15.6242 16.2132 15.9387 15.9335C16.2166 15.6204 16.4668 15.2771 16.6839 14.9058L18.3498 14.9624L18.5848 14.3951L17.3668 13.2571C17.476 12.8404 17.5419 12.4199 17.5667 12.0013C17.542 11.5817 17.4761 11.1602 17.3667 10.7424L18.5846 9.6044L18.3496 9.03714L16.6837 9.09368C16.4667 8.72247 16.2165 8.37921 15.9387 8.06616C15.6243 7.78657 15.2794 7.5349 14.9062 7.31669L14.9627 5.65078L14.3955 5.41581L13.2575 6.63378C12.8377 6.52377 12.4141 6.45775 11.9925 6.43339Z" fill="black"/>
</svg>
