<svg width="24" height="24" viewBox="0 0 24 24" fill="none" xmlns="http://www.w3.org/2000/svg">
<path fill-rule="evenodd" clip-rule="evenodd" d="M7.02696 5.37142C7.00575 4.74651 7.3744 4.174 7.95207 3.93472L9.15958 3.43455C9.73725 3.19527 10.4028 3.33942 10.8296 3.7963L12.0006 5.04952L13.1707 3.7972C13.5975 3.34033 14.263 3.19618 14.8407 3.43546L16.0482 3.93562C16.6259 4.1749 16.9946 4.74742 16.9733 5.37232L16.9152 7.08467L18.6281 7.02654C19.253 7.00533 19.8255 7.37398 20.0648 7.95165L20.565 9.15916C20.8043 9.73683 20.6601 10.4023 20.2032 10.8292L18.9505 11.9997L20.2034 13.1703C20.6603 13.5972 20.8044 14.2627 20.5651 14.8404L20.065 16.0479C19.8257 16.6255 19.2532 16.9942 18.6283 16.973L16.9149 16.9148L16.973 18.6277C16.9942 19.2526 16.6256 19.8251 16.0479 20.0644L14.8404 20.5645C14.2627 20.8038 13.5972 20.6597 13.1703 20.2028L12.0006 18.9509L10.83 20.2037C10.4031 20.6606 9.7376 20.8047 9.15993 20.5655L7.95242 20.0653C7.37475 19.826 7.0061 19.2535 7.02731 18.6286L7.08549 16.9144L5.37185 16.9726C4.74694 16.9938 4.17442 16.6251 3.93514 16.0475L3.43498 14.8399C3.1957 14.2623 3.33985 13.5968 3.79673 13.1699L5.04916 11.9997L3.79689 10.8296C3.34002 10.4027 3.19586 9.73724 3.43514 9.15957L3.93531 7.95206C4.17459 7.37439 4.7471 7.00574 5.37201 7.02695L7.08513 7.0851L7.02696 5.37142ZM8.30446 13.5303C7.45906 11.4893 8.42826 9.14943 10.4692 8.30403C12.5102 7.45863 14.8501 8.42784 15.6955 10.4688C16.5409 12.5098 15.5717 14.8497 13.5307 15.6951C11.4897 16.5405 9.14986 15.5713 8.30446 13.5303Z" fill="black"/>
</svg>
