<svg width="24" height="24" viewBox="0 0 24 24" fill="none" xmlns="http://www.w3.org/2000/svg">
<path fill-rule="evenodd" clip-rule="evenodd" d="M9.90335 10.7384L8.80915 9.94855L8.80904 9.94861C8.44434 10.1309 8.07965 10.3133 7.71495 10.3748L7.47217 11.7118H6.256L6.01208 10.3748C5.64735 10.3144 5.22221 10.1321 4.91788 9.94969L3.82367 10.7396L2.97224 9.88813L3.76211 8.79392C3.61089 8.54156 3.50199 8.20613 3.39966 7.89096C3.37859 7.82605 3.3578 7.762 3.33697 7.69972L2 7.45694V6.24077L3.33697 5.99685C3.39737 5.63212 3.57974 5.20698 3.76211 4.90265L2.97224 3.80845L3.82367 2.95701L4.91788 3.74688C5.17024 3.59566 5.50567 3.48676 5.82084 3.38444C5.88575 3.36336 5.94979 3.34257 6.01208 3.32174L6.25486 1.98477H7.47103L7.71495 3.32174C8.07968 3.38214 8.50482 3.56451 8.80915 3.74688L9.90335 2.95701L10.7548 3.80845L9.96492 4.90265C10.1161 5.15501 10.225 5.49044 10.3274 5.80562C10.3484 5.87052 10.3692 5.93457 10.3901 5.99685L11.727 6.23963V7.4558L10.3901 7.69858C10.3297 8.06331 10.1473 8.48845 9.96492 8.79278L10.7548 9.88699L9.90335 10.7384ZM6.86351 5.02463C5.82971 5.02463 5.03984 5.8145 5.03984 6.84831C5.03984 7.88211 5.82971 8.67198 6.86351 8.67198C7.89731 8.67198 8.68718 7.88211 8.68718 6.84831C8.68718 5.8145 7.89731 5.02463 6.86351 5.02463ZM21.331 18.4582L19.1426 17.8507L19.1426 17.8507C19.0602 17.954 18.9707 18.0573 18.8812 18.1605C18.7071 18.3615 18.5332 18.5622 18.412 18.7625L19.0195 20.9509L17.3177 21.6804L16.1631 19.6744C15.7984 19.7348 15.3733 19.7952 15.0085 19.7348L13.9143 21.6804L12.2126 21.0113L12.7597 18.9449C12.3334 18.7021 12.0303 18.3978 11.7259 18.0331L9.71989 18.5802L8.99042 16.8785L10.6317 15.9062C10.6287 15.8789 10.6257 15.8517 10.6227 15.8247C10.5656 15.3104 10.5139 14.8451 10.5713 14.3253L8.99041 13.4135L9.65948 11.7118L11.3008 12.1369C11.6051 11.6502 12.0303 11.2251 12.517 10.8603L12.0918 9.27944L13.732 8.48957L14.5834 9.94851C15.1921 9.88696 15.7996 9.88696 16.3467 10.0089L17.1981 8.54998L18.8998 9.21905L18.4131 10.9823C18.7779 11.2855 19.1426 11.6502 19.4469 12.1369L21.2706 11.6502L22.0001 13.3519L20.1764 14.3857C20.238 14.8109 20.1764 15.2976 20.116 15.7227L22.0001 16.7565L21.331 18.4582ZM15.3733 12.3193C14.0363 12.3193 12.9421 13.4135 12.9421 14.7505C12.9421 16.0886 14.0363 17.1828 15.3733 17.1816C16.7103 17.1816 17.8045 16.0874 17.8045 14.7505C17.8045 13.4135 16.7103 12.3193 15.3733 12.3193Z" fill="black"/>
</svg>
