<svg width="24" height="24" viewBox="0 0 24 24" fill="none" xmlns="http://www.w3.org/2000/svg">
<path fill-rule="evenodd" clip-rule="evenodd" d="M11.9996 3C8.81144 3 6.21738 5.69701 6.21738 9.01173C6.21738 10.3255 7.16798 12.5459 8.96748 15.4325C10.0034 17.0969 11.0751 18.5878 11.6226 19.3283C11.7136 19.4512 11.8512 19.5217 11.9995 19.5217C12.1487 19.5217 12.2863 19.4512 12.3764 19.3283C12.923 18.5888 13.9947 17.0978 15.0315 15.4325C16.831 12.5441 17.7826 10.3235 17.7826 9.01173C17.7826 5.69701 15.1885 3 11.9996 3ZM15.3043 8.78261C15.3043 10.6076 13.8249 12.087 12 12.087C10.175 12.087 8.69564 10.6076 8.69564 8.78261C8.69564 6.95767 10.175 5.47827 12 5.47827C13.8249 5.47827 15.3043 6.95767 15.3043 8.78261ZM4.56522 19.5218C4.56522 18.7169 5.71616 18.0017 7.49933 17.549L8.07742 18.439C7.70753 18.5219 7.36647 18.6156 7.05904 18.718C6.44456 18.9229 6.01943 19.1447 5.76845 19.3425C5.66418 19.4247 5.61069 19.485 5.5841 19.5218C5.61069 19.5585 5.66418 19.6188 5.76845 19.701C6.01943 19.8988 6.44456 20.1206 7.05904 20.3255C8.27755 20.7316 10.0245 21 12 21C13.9755 21 15.7224 20.7316 16.941 20.3255C17.5554 20.1206 17.9806 19.8988 18.2315 19.701C18.3358 19.6188 18.3893 19.5585 18.4159 19.5218C18.3893 19.485 18.3358 19.4247 18.2315 19.3425C17.9806 19.1447 17.5554 18.9229 16.941 18.718C16.6335 18.6156 16.2925 18.5219 15.9226 18.439L16.5007 17.549C18.2839 18.0017 19.4348 18.7169 19.4348 19.5218C19.4348 20.8905 16.1061 22 12 22C7.89388 22 4.56522 20.8905 4.56522 19.5218ZM18.4403 19.48C18.4405 19.4795 18.4405 19.4793 18.4404 19.4793C18.4403 19.4793 18.4396 19.4808 18.4388 19.484C18.4396 19.4821 18.4401 19.4808 18.4403 19.48ZM5.55955 19.4793C5.55968 19.4793 5.56037 19.4808 5.56122 19.484C5.55985 19.4809 5.55942 19.4793 5.55955 19.4793ZM5.55955 19.5642C5.55942 19.5642 5.55985 19.5626 5.56122 19.5595C5.56037 19.5627 5.55968 19.5642 5.55955 19.5642ZM18.4388 19.5595C18.4402 19.5626 18.4406 19.5642 18.4404 19.5642C18.4403 19.5642 18.4396 19.5627 18.4388 19.5595Z" fill="black"/>
</svg>
