<svg width="24" height="24" viewBox="0 0 24 24" fill="none" xmlns="http://www.w3.org/2000/svg">
<path fill-rule="evenodd" clip-rule="evenodd" d="M6.21738 10.0117C6.21738 6.69701 8.81143 4 11.9996 4C15.1885 4 17.7826 6.69701 17.7826 10.0117C17.7826 11.3235 16.831 13.5441 15.0315 16.4325C13.9947 18.0978 12.923 19.5888 12.3764 20.3283C12.2863 20.4512 12.1487 20.5217 11.9995 20.5217C11.8512 20.5217 11.7136 20.4512 11.6225 20.3283C11.0751 19.5878 10.0034 18.0969 8.96747 16.4325C7.16798 13.5459 6.21738 11.3255 6.21738 10.0117ZM12 13.087C13.8249 13.087 15.3043 11.6076 15.3043 9.78261C15.3043 7.95767 13.8249 6.47827 12 6.47827C10.175 6.47827 8.69564 7.95767 8.69564 9.78261C8.69564 11.6076 10.175 13.087 12 13.087Z" fill="black"/>
</svg>
