<svg width="24" height="24" viewBox="0 0 24 24" fill="none" xmlns="http://www.w3.org/2000/svg">
<path fill-rule="evenodd" clip-rule="evenodd" d="M13 3.00006C13 2.44778 12.5523 2.00006 12 2.00006C11.4477 2.00006 11 2.44778 11 3.00006L11 14.0001H6C5.44772 14.0001 5 14.4478 5 15.0001C5 15.5523 5.44772 16.0001 6 16.0001H12H18C18.5523 16.0001 19 15.5523 19 15.0001C19 14.4478 18.5523 14.0001 18 14.0001H13L13 3.00006ZM8 18.0001C8 17.4478 8.44772 17.0001 9 17.0001H15C15.5523 17.0001 16 17.4478 16 18.0001C16 18.5523 15.5523 19.0001 15 19.0001H9C8.44772 19.0001 8 18.5523 8 18.0001ZM11 20.0001C10.4477 20.0001 10 20.4478 10 21.0001C10 21.5523 10.4477 22.0001 11 22.0001H13C13.5523 22.0001 14 21.5523 14 21.0001C14 20.4478 13.5523 20.0001 13 20.0001H11Z" fill="black"/>
</svg>
