<svg width="24" height="24" viewBox="0 0 24 24" fill="none" xmlns="http://www.w3.org/2000/svg">
<g clip-path="url(#clip0_1990_176321)">
<path fill-rule="evenodd" clip-rule="evenodd" d="M4.52056 17.0345C4.06973 17.338 3.94671 17.9532 4.29298 18.372C5.5849 19.9346 7.32726 21.0741 9.29404 21.6269C11.5779 22.2689 14.0156 22.078 16.1716 21.0883C18.3277 20.0987 20.0617 18.3747 21.0639 16.2245C22.0661 14.0742 22.2712 11.6377 21.6425 9.35011C21.0139 7.06257 19.5924 5.07303 17.6321 3.73689C15.6718 2.40075 13.3004 1.80505 10.9414 2.0562C8.58233 2.30735 6.38944 3.38899 4.75439 5.1079C3.45502 6.47391 2.57522 8.17169 2.20202 10H0.393892C0.0676257 10 -0.116677 10.4488 0.0823437 10.7587L2.68845 14.8162C2.84584 15.0613 3.15416 15.0613 3.31155 14.8162L5.91766 10.7587C6.11668 10.4488 5.93237 10 5.60611 10H4.22098C4.55987 8.68194 5.23055 7.46276 6.18033 6.46427C7.4936 5.08364 9.25493 4.21487 11.1497 4.01315C13.0445 3.81143 14.9492 4.28989 16.5237 5.36308C18.0982 6.43626 19.2399 8.03426 19.7449 9.87161C20.2498 11.709 20.0851 13.666 19.2801 15.3931C18.4752 17.1202 17.0824 18.5048 15.3507 19.2997C13.6189 20.0946 11.661 20.248 9.82658 19.7323C8.30952 19.3059 6.9587 18.445 5.93491 17.2657C5.57863 16.8554 4.97139 16.731 4.52056 17.0345ZM14.4453 15.8321C14.9048 16.1384 15.5257 16.0142 15.8321 15.5547C16.1384 15.0952 16.0142 14.4743 15.5547 14.168L13 12.4648V8C13 7.44772 12.5523 7 12 7C11.4477 7 11 7.44772 11 8V13V13.5352L11.4453 13.8321L14.4453 15.8321Z" fill="black"/>
</g>
<defs>
<clipPath id="clip0_1990_176321">
<rect width="24" height="24" fill="white"/>
</clipPath>
</defs>
</svg>
