<svg width="24" height="24" viewBox="0 0 24 24" fill="none" xmlns="http://www.w3.org/2000/svg">
<path fill-rule="evenodd" clip-rule="evenodd" d="M10.6666 4.83344V7.5001H13.3333V4.83344H10.6666ZM9.99996 2.83344C9.26358 2.83344 8.66663 3.43039 8.66663 4.16677V8.16677C8.66663 8.90315 9.26358 9.5001 9.99996 9.5001H14C14.7363 9.5001 15.3333 8.90315 15.3333 8.16677V4.16677C15.3333 3.43039 14.7363 2.83344 14 2.83344H9.99996ZM2.83331 11.8334C2.83331 11.2812 3.28103 10.8334 3.83331 10.8334H11.1666V9.50012H13.1666V10.8334H20.1666C20.7189 10.8334 21.1666 11.2812 21.1666 11.8334C21.1666 12.3857 20.7189 12.8334 20.1666 12.8334H18.1666V14.5001H16.1666V12.8334H8.16663V14.5001H6.16663V12.8334H3.83331C3.28103 12.8334 2.83331 12.3857 2.83331 11.8334ZM5.66663 16.5001V19.1668H8.33329V16.5001H5.66663ZM4.99996 14.5001C4.26358 14.5001 3.66663 15.0971 3.66663 15.8335V19.8335C3.66663 20.5698 4.26358 21.1668 4.99996 21.1668H8.99996C9.73634 21.1668 10.3333 20.5698 10.3333 19.8335V15.8335C10.3333 15.0971 9.73634 14.5001 8.99996 14.5001H4.99996ZM15.6666 16.5001V19.1668H18.3333V16.5001H15.6666ZM15 14.5001C14.2636 14.5001 13.6666 15.0971 13.6666 15.8335V19.8335C13.6666 20.5698 14.2636 21.1668 15 21.1668H19C19.7363 21.1668 20.3333 20.5698 20.3333 19.8335V15.8335C20.3333 15.0971 19.7363 14.5001 19 14.5001H15Z" fill="black"/>
</svg>
