<svg width="32" height="32" viewBox="0 0 32 32" fill="none" xmlns="http://www.w3.org/2000/svg">
<circle opacity="0.2" cx="16" cy="13" r="7" fill="black"/>
<path d="M11 29.0003H10C10 29.3606 10.1938 29.693 10.5073 29.8705C10.8208 30.048 11.2056 30.0432 11.5145 29.8578L11 29.0003ZM16 26L16.5145 25.1425C16.1978 24.9525 15.8022 24.9525 15.4855 25.1425L16 26ZM21 29.0003L20.4855 29.8578C20.7944 30.0432 21.1792 30.048 21.4927 29.8705C21.8062 29.693 22 29.3606 22 29.0003H21ZM23 13C23 16.866 19.866 20 16 20V22C20.9706 22 25 17.9706 25 13H23ZM16 20C12.134 20 9 16.866 9 13H7C7 17.9706 11.0294 22 16 22V20ZM9 13C9 9.13401 12.134 6 16 6V4C11.0294 4 7 8.02944 7 13H9ZM16 6C19.866 6 23 9.13401 23 13H25C25 8.02944 20.9706 4 16 4V6ZM10 19.2454V29.0003H12V19.2454H10ZM11.5145 29.8578L16.5145 26.8575L15.4855 25.1425L10.4855 28.1429L11.5145 29.8578ZM15.4855 26.8575L20.4855 29.8578L21.5145 28.1429L16.5145 25.1425L15.4855 26.8575ZM22 29.0003V19.2454H20V29.0003H22Z" fill="black"/>
</svg>
