<svg width="24" height="24" viewBox="0 0 24 24" fill="none" xmlns="http://www.w3.org/2000/svg">
<path fill-rule="evenodd" clip-rule="evenodd" d="M9.3897 3.92548C9.5024 3.6767 9.44904 3.3851 9.2561 3.19198C9.06403 2.99903 8.77155 2.94583 8.5235 3.05838C5.26755 4.53133 3 7.80993 3 11.614C3 16.7944 7.20596 21 12.3859 21C16.19 21 19.4687 18.7324 20.9416 15.4765C21.0543 15.2286 21.0009 14.9361 20.808 14.7439C20.615 14.5509 20.3234 14.4977 20.0745 14.6103C19.0608 15.0687 17.9361 15.3245 16.7513 15.3245C12.2938 15.3245 8.675 11.7054 8.675 7.24818C8.675 6.06332 8.9308 4.93882 9.38919 3.92497L9.3897 3.92548Z" fill="black"/>
</svg>
