<svg width="24" height="24" viewBox="0 0 24 24" fill="none" xmlns="http://www.w3.org/2000/svg">
<path fill-rule="evenodd" clip-rule="evenodd" d="M11.2536 4.23436C10.7858 3.93542 10.2216 3.92132 9.74154 4.19864L4.00005 7L3.99479 7.50282V16.7907L4.00005 17L9.74154 19.8016C9.97105 19.9342 10.2198 20 10.4686 20C10.7393 20 11.01 19.922 11.2536 19.765C11.7214 19.466 11.9999 18.9377 11.9999 18.354V5.64517C11.9999 5.06045 11.7214 4.53331 11.2536 4.23436ZM3 6.99999H2.53129C1.6868 6.99999 1 7.59378 1 8.49999V15.5C1 16.4062 1.6868 17 2.53129 17H3V6.99999ZM22.7071 8.29288C23.0976 8.6834 23.0976 9.31657 22.7071 9.70709L20.4142 12L22.7071 14.2929C23.0976 14.6834 23.0976 15.3166 22.7071 15.7071C22.3166 16.0976 21.6834 16.0976 21.2929 15.7071L19 13.4142L16.7071 15.7071C16.3166 16.0976 15.6834 16.0976 15.2929 15.7071C14.9024 15.3166 14.9024 14.6834 15.2929 14.2929L17.5858 12L15.2929 9.70712C14.9024 9.31659 14.9024 8.68343 15.2929 8.2929C15.6834 7.90238 16.3166 7.90238 16.7071 8.2929L19 10.5858L21.2929 8.29288C21.6834 7.90235 22.3166 7.90235 22.7071 8.29288Z" fill="black"/>
</svg>
