<svg width="24" height="24" viewBox="0 0 24 24" fill="none" xmlns="http://www.w3.org/2000/svg">
<path fill-rule="evenodd" clip-rule="evenodd" d="M20.5926 9.92635C15.7172 5.051 7.81277 5.051 2.93743 9.92635C2.49421 10.3696 1.77563 10.3696 1.33241 9.92635C0.889197 9.48313 0.889197 8.76454 1.33241 8.32132C7.09418 2.55956 16.4359 2.55956 22.1976 8.32132C22.6408 8.76454 22.6408 9.48313 22.1976 9.92635C21.7544 10.3696 21.0358 10.3696 20.5926 9.92635ZM17.3826 13.1364C14.2801 10.0339 9.24995 10.0339 6.14746 13.1364C5.70425 13.5796 4.98565 13.5796 4.54245 13.1364C4.09923 12.6931 4.09923 11.9746 4.54245 11.5314C8.53137 7.54245 14.9987 7.54245 18.9876 11.5314C19.4308 11.9746 19.4308 12.6931 18.9876 13.1364C18.5444 13.5796 17.8258 13.5796 17.3826 13.1364ZM14.1726 16.3464C12.8429 15.0168 10.6871 15.0168 9.3575 16.3464C8.91429 16.7896 8.19569 16.7896 7.75248 16.3464C7.30926 15.9032 7.30926 15.1846 7.75248 14.7414C9.96855 12.5254 13.5614 12.5254 15.7776 14.7414C16.2208 15.1846 16.2208 15.9032 15.7776 16.3464C15.3343 16.7896 14.6158 16.7896 14.1726 16.3464ZM10.6301 18.7539C10.6301 18.1271 11.1382 17.619 11.765 17.619H11.7763C12.4032 17.619 12.9113 18.1271 12.9113 18.7539C12.9113 19.3808 12.4032 19.8889 11.7763 19.8889H11.765C11.1382 19.8889 10.6301 19.3808 10.6301 18.7539Z" fill="black"/>
</svg>
