<svg width="24" height="24" viewBox="0 0 24 24" fill="none" xmlns="http://www.w3.org/2000/svg">
<path d="M18.5 21V8.5H16.5H7.5H5.5V21H8.75H12H15.25H18.5Z" fill="#C2C2C3"/>
<path d="M5.5 8.5V7.5C4.94772 7.5 4.5 7.94772 4.5 8.5H5.5ZM18.5 8.5H19.5C19.5 7.94772 19.0523 7.5 18.5 7.5V8.5ZM18.5 21V22C19.0523 22 19.5 21.5523 19.5 21H18.5ZM5.5 21H4.5C4.5 21.5523 4.94772 22 5.5 22V21ZM7.5 2V1C6.94772 1 6.5 1.44772 6.5 2H7.5ZM16.5 2H17.5C17.5 1.44772 17.0523 1 16.5 1V2ZM17.5 8.5V21H19.5V8.5H17.5ZM6.5 21V8.5H4.5V21H6.5ZM5.5 9.5H7.5V7.5H5.5V9.5ZM8.5 8.5V2H6.5V8.5H8.5ZM7.5 9.5H16.5V7.5H7.5V9.5ZM16.5 9.5H18.5V7.5H16.5V9.5ZM7.5 3H16.5V1H7.5V3ZM15.5 2V8.5H17.5V2H15.5ZM12 20H8.75V22H12V20ZM8.75 20H5.5V22H8.75V20ZM18.5 20H15.25V22H18.5V20ZM15.25 20H12V22H15.25V20Z" fill="black"/>
<path d="M10 5H11" stroke="black" stroke-width="2"/>
<path d="M13 5H14" stroke="black" stroke-width="2"/>
</svg>
