<svg width="24" height="24" viewBox="0 0 24 24" fill="none" xmlns="http://www.w3.org/2000/svg">
<path fill-rule="evenodd" clip-rule="evenodd" d="M20 12C20 16.4183 16.4183 20 12 20C7.58172 20 4 16.4183 4 12C4 7.58172 7.58172 4 12 4C16.4183 4 20 7.58172 20 12ZM22 12C22 17.5228 17.5228 22 12 22C6.47715 22 2 17.5228 2 12C2 6.47715 6.47715 2 12 2C17.5228 2 22 6.47715 22 12ZM11.0225 14.4319C11.0225 14.5135 11.0887 14.5796 11.1703 14.5796H12.7669C12.8485 14.5796 12.9146 14.5135 12.9146 14.4319C12.9184 14.0303 12.9657 13.6932 13.0566 13.4205C13.1513 13.144 13.2953 12.9035 13.4885 12.6989C13.6854 12.4944 13.9373 12.2974 14.2441 12.108C14.5926 11.8997 14.8938 11.6629 15.1476 11.3978C15.4013 11.1326 15.5964 10.8296 15.7328 10.4887C15.8729 10.1478 15.943 9.76141 15.943 9.32959C15.943 8.68944 15.7877 8.13641 15.4771 7.6705C15.1703 7.2008 14.7404 6.83906 14.1873 6.58527C13.6381 6.33148 13.0017 6.20459 12.2782 6.20459C11.6154 6.20459 11.0093 6.3258 10.46 6.56823C9.9146 6.81065 9.4752 7.17429 9.14187 7.65914C8.84413 8.09719 8.67316 8.63109 8.62896 9.26085C8.62109 9.37309 8.71196 9.46595 8.82447 9.46595H10.4522C10.5586 9.46595 10.6452 9.38254 10.6591 9.27712C10.6949 9.00475 10.7763 8.77413 10.9032 8.58527C11.0623 8.35042 11.2612 8.17618 11.4998 8.06254C11.7422 7.94512 11.9979 7.88641 12.2669 7.88641C12.5585 7.88641 12.8218 7.94701 13.0566 8.06823C13.2953 8.18944 13.4847 8.35989 13.6248 8.57959C13.765 8.79929 13.8351 9.05876 13.8351 9.358C13.8351 9.62315 13.782 9.86368 13.676 10.0796C13.5699 10.2917 13.4241 10.4849 13.2385 10.6591C13.0566 10.8296 12.8502 10.9868 12.6191 11.1307C12.282 11.3391 11.996 11.5682 11.7612 11.8182C11.5263 12.0644 11.3445 12.3902 11.2157 12.7955C11.0907 13.2008 11.0263 13.7463 11.0225 14.4319ZM11.1305 17.7614C11.3767 18.0038 11.6703 18.125 12.0112 18.125C12.2385 18.125 12.4449 18.0701 12.6305 17.9603C12.8199 17.8466 12.9714 17.6951 13.0851 17.5057C13.2025 17.3163 13.2612 17.1061 13.2612 16.875C13.2612 16.5341 13.1362 16.2425 12.8862 16C12.64 15.7576 12.3483 15.6364 12.0112 15.6364C11.6703 15.6364 11.3767 15.7576 11.1305 16C10.8843 16.2425 10.7612 16.5341 10.7612 16.875C10.7612 17.2235 10.8843 17.519 11.1305 17.7614Z" fill="black"/>
</svg>
