<svg width="24" height="24" viewBox="0 0 24 24" fill="none" xmlns="http://www.w3.org/2000/svg">
<path fill-rule="evenodd" clip-rule="evenodd" d="M2 5C2 3.89543 2.89543 3 4 3H20C21.1046 3 22 3.89543 22 5V20C22 20.3688 21.797 20.7077 21.4719 20.8817C21.1467 21.0557 20.7522 21.0366 20.4453 20.8321L18 19.2019L15.5547 20.8321C15.2188 21.056 14.7812 21.056 14.4453 20.8321L12 19.2019L9.5547 20.8321C9.2188 21.056 8.7812 21.056 8.4453 20.8321L6 19.2019L3.5547 20.8321C3.24784 21.0366 2.8533 21.0557 2.52814 20.8817C2.20298 20.7077 2 20.3688 2 20V5ZM20 5H4V18.1315L5.4453 17.1679C5.7812 16.944 6.2188 16.944 6.5547 17.1679L9 18.7981L11.4453 17.1679C11.7812 16.944 12.2188 16.944 12.5547 17.1679L15 18.7982L17.4453 17.1679C17.7812 16.944 18.2188 16.944 18.5547 17.1679L20 18.1315V5ZM6 9C6 8.44772 6.44772 8 7 8H17C17.5523 8 18 8.44772 18 9C18 9.55228 17.5523 10 17 10H7C6.44772 10 6 9.55228 6 9ZM7 12C6.44772 12 6 12.4477 6 13C6 13.5523 6.44772 14 7 14H17C17.5523 14 18 13.5523 18 13C18 12.4477 17.5523 12 17 12H7Z" fill="black"/>
</svg>
