<svg width="24" height="24" viewBox="0 0 24 24" fill="none" xmlns="http://www.w3.org/2000/svg">
<path fill-rule="evenodd" clip-rule="evenodd" d="M2 5.6C2 4.71635 2.74619 4 3.66667 4H20.3333C21.2538 4 22 4.71634 22 5.6V18.4C22 19.2837 21.2538 20 20.3333 20H3.66667C2.74619 20 2 19.2837 2 18.4V5.6ZM3.66667 8.8H6.16667V7.2H9.5V5.6H14.5V7.2H17.8333V8.8H20.3333V18.4H17.8333V17.6C17.8333 17.1582 17.4602 16.8 17 16.8C16.5398 16.8 16.1667 17.1582 16.1667 17.6V18.4H15.3333V17.6C15.3333 17.1582 14.9602 16.8 14.5 16.8C14.0398 16.8 13.6667 17.1582 13.6667 17.6V18.4H12.8333V17.6C12.8333 17.1582 12.4602 16.8 12 16.8C11.5398 16.8 11.1667 17.1582 11.1667 17.6V18.4H10.3333V17.6C10.3333 17.1582 9.96024 16.8 9.5 16.8C9.03976 16.8 8.66667 17.1582 8.66667 17.6V18.4H7.83333V17.6C7.83333 17.1582 7.46024 16.8 7 16.8C6.53976 16.8 6.16667 17.1582 6.16667 17.6V18.4H3.66667V8.8Z" fill="black"/>
</svg>
