<svg width="24" height="24" viewBox="0 0 24 24" fill="none" xmlns="http://www.w3.org/2000/svg">
<path d="M4.142 3.99999L6.01 16.136C6.04361 16.3779 6.16438 16.5991 6.34962 16.7582C6.53487 16.9173 6.77184 17.0033 7.016 17H18C18.2151 17 18.4245 16.9306 18.5971 16.8022C18.7697 16.6738 18.8963 16.4931 18.958 16.287L21.958 6.28699C22.0027 6.13768 22.0119 5.97998 21.9849 5.82648C21.9579 5.67297 21.8953 5.52792 21.8022 5.40289C21.7092 5.27786 21.5882 5.17631 21.4489 5.10636C21.3096 5.0364 21.1559 4.99998 21 4.99999H6.32L5.99 2.86199C5.95667 2.61723 5.83331 2.39368 5.644 2.23499C5.45967 2.07939 5.22518 1.9959 4.984 1.99999H3C2.86868 1.99999 2.73864 2.02586 2.61732 2.07611C2.49599 2.12637 2.38575 2.20003 2.29289 2.29288C2.20003 2.38574 2.12638 2.49598 2.07612 2.61731C2.02587 2.73863 2 2.86867 2 2.99999C2 3.13131 2.02587 3.26135 2.07612 3.38267C2.12638 3.504 2.20003 3.61424 2.29289 3.7071C2.38575 3.79996 2.49599 3.87362 2.61732 3.92387C2.73864 3.97413 2.86868 3.99999 3 3.99999H4.142ZM10 20C10 20.5304 9.78929 21.0391 9.41421 21.4142C9.03914 21.7893 8.53043 22 8 22C7.46957 22 6.96086 21.7893 6.58579 21.4142C6.21071 21.0391 6 20.5304 6 20C6 19.4696 6.21071 18.9608 6.58579 18.5858C6.96086 18.2107 7.46957 18 8 18C8.53043 18 9.03914 18.2107 9.41421 18.5858C9.78929 18.9608 10 19.4696 10 20ZM19 20C19 20.5304 18.7893 21.0391 18.4142 21.4142C18.0391 21.7893 17.5304 22 17 22C16.4696 22 15.9609 21.7893 15.5858 21.4142C15.2107 21.0391 15 20.5304 15 20C15 19.4696 15.2107 18.9608 15.5858 18.5858C15.9609 18.2107 16.4696 18 17 18C17.5304 18 18.0391 18.2107 18.4142 18.5858C18.7893 18.9608 19 19.4696 19 20Z" fill="black"/>
</svg>
