<svg width="24" height="24" viewBox="0 0 24 24" fill="none" xmlns="http://www.w3.org/2000/svg">
<path fill-rule="evenodd" clip-rule="evenodd" d="M20 5C20 4.44772 19.5523 4 19 4C18.4477 4 18 4.44772 18 5V15.5858L16.7071 14.2929C16.3166 13.9024 15.6834 13.9024 15.2929 14.2929C14.9024 14.6834 14.9024 15.3166 15.2929 15.7071L18.2929 18.7071L19 19.4142L19.7071 18.7071L22.7071 15.7071C23.0976 15.3166 23.0976 14.6834 22.7071 14.2929C22.3166 13.9024 21.6834 13.9024 21.2929 14.2929L20 15.5858V5ZM3 5C2.44772 5 2 5.44772 2 6C2 6.55228 2.44771 7 3 7H12C12.5523 7 13 6.55228 13 6C13 5.44772 12.5523 5 12 5H3ZM3 11C2.44772 11 2 11.4477 2 12C2 12.5523 2.44771 13 3 13H12C12.5523 13 13 12.5523 13 12C13 11.4477 12.5523 11 12 11H3ZM2 18C2 17.4477 2.44772 17 3 17H12C12.5523 17 13 17.4477 13 18C13 18.5523 12.5523 19 12 19H3C2.44771 19 2 18.5523 2 18Z" fill="black"/>
</svg>
