<svg width="24" height="24" viewBox="0 0 24 24" fill="none" xmlns="http://www.w3.org/2000/svg">
<path d="M12.6875 20.595V22.3125C12.6875 22.6921 12.3796 23 12 23C11.6203 23 11.3124 22.6921 11.3124 22.3125V20.595C11.3124 20.2153 11.6203 19.9075 12 19.9075C12.3796 19.9075 12.6875 20.2153 12.6875 20.595ZM12 4.09508C12.3796 4.09508 12.6875 3.78721 12.6875 3.40755V1.68754C12.6875 1.30789 12.3796 1 12 1C11.6203 1 11.3124 1.30788 11.3124 1.68754V3.40755C11.3124 3.7872 11.6203 4.09508 12 4.09508ZM3.40502 11.4149H1.68754C1.30789 11.4149 1 11.7227 1 12.1024C1 12.4821 1.30788 12.7899 1.68754 12.7899H3.40502C3.78467 12.7899 4.09256 12.4821 4.09256 12.1024C4.09256 11.7227 3.78468 11.4149 3.40502 11.4149ZM22.3125 11.4149H20.5924C20.2128 11.4149 19.9049 11.7227 19.9049 12.1024C19.9049 12.4821 20.2128 12.7899 20.5924 12.7899H22.3125C22.6921 12.7899 23 12.4821 23 12.1024C23 11.7227 22.6921 11.4149 22.3125 11.4149ZM18.5091 17.6392C18.2407 17.3708 17.8054 17.3708 17.5368 17.6393C17.2683 17.9079 17.2684 18.343 17.537 18.6116L18.7557 19.8301C18.8898 19.9642 19.0658 20.0314 19.2418 20.0314C19.4177 20.0314 19.5937 19.9642 19.7281 19.8299C19.9965 19.5616 19.9965 19.1263 19.728 18.8577L18.5092 17.6392H18.5091ZM5.38849 6.46326C5.52277 6.59754 5.69861 6.66468 5.87477 6.66468C6.05062 6.66468 6.22661 6.59754 6.36089 6.46342C6.62945 6.19487 6.62945 5.7596 6.36105 5.49119L5.1425 4.27248C4.87411 4.00408 4.43868 4.00392 4.17027 4.27232C3.90187 4.54071 3.90171 4.97614 4.17011 5.24455L5.38866 6.46326H5.38849ZM18.1228 6.66468C18.2986 6.66468 18.4746 6.59754 18.6091 6.46326L19.8276 5.24455C20.096 4.97616 20.096 4.54089 19.8274 4.27232C19.559 4.00392 19.1238 4.00392 18.8552 4.27248L17.6367 5.49119C17.3683 5.75958 17.3683 6.19485 17.6368 6.46342C17.7709 6.59754 17.9469 6.66468 18.1229 6.66468H18.1228ZM5.48834 17.6392L4.27233 18.8551C4.00378 19.1236 4.00378 19.5589 4.27217 19.8273C4.40645 19.9616 4.58229 20.0287 4.75845 20.0287C4.93429 20.0287 5.11029 19.9616 5.24457 19.8275L6.46059 18.6116C6.72914 18.3431 6.72914 17.9078 6.46075 17.6394C6.19235 17.371 5.75692 17.3709 5.48851 17.6392L5.48834 17.6392ZM18.3454 12.0001C18.3454 10.3242 17.6999 8.74648 16.5298 7.55924C15.3289 6.33141 13.7204 5.65525 12.0005 5.65525C10.2793 5.65525 8.67073 6.33239 7.4728 7.55957C6.30074 8.74886 5.65527 10.3258 5.65527 12.0005C5.65527 12.0372 5.65575 12.0718 5.65766 12.1077C5.685 13.7875 6.35989 15.3574 7.55737 16.5282C8.74666 17.7002 10.3244 18.3457 12.0003 18.3457C13.6748 18.3457 15.2521 17.7002 16.4384 16.5306C17.6395 15.3588 18.3154 13.7888 18.3427 12.1081C18.3448 12.0721 18.3451 12.0378 18.3451 12.0008L18.3454 12.0001Z" fill="black"/>
</svg>
