<svg width="24" height="24" viewBox="0 0 24 24" fill="none" xmlns="http://www.w3.org/2000/svg">
<path fill-rule="evenodd" clip-rule="evenodd" d="M13 2C13 1.44772 12.5523 1 12 1C11.4477 1 11 1.44772 11 2V4C11 4.55228 11.4477 5 12 5C12.5523 5 13 4.55228 13 4V2ZM12 16C14.2091 16 16 14.2091 16 12C16 9.79086 14.2091 8 12 8C9.79086 8 8 9.79086 8 12C8 14.2091 9.79086 16 12 16ZM18 12C18 15.3137 15.3137 18 12 18C8.68629 18 6 15.3137 6 12C6 8.68629 8.68629 6 12 6C15.3137 6 18 8.68629 18 12ZM12 19C12.5523 19 13 19.4477 13 20V22C13 22.5523 12.5523 23 12 23C11.4477 23 11 22.5523 11 22V20C11 19.4477 11.4477 19 12 19ZM7.05025 16.9497C7.44078 17.3403 7.44078 17.9734 7.05025 18.364L5.63604 19.7782C5.24551 20.1687 4.61235 20.1687 4.22183 19.7782C3.8313 19.3876 3.8313 18.7545 4.22183 18.364L5.63604 16.9497C6.02656 16.5592 6.65973 16.5592 7.05025 16.9497ZM19.7782 5.63604C20.1687 5.24551 20.1687 4.61235 19.7782 4.22183C19.3876 3.8313 18.7545 3.8313 18.364 4.22183L16.9497 5.63604C16.5592 6.02656 16.5592 6.65973 16.9497 7.05025C17.3403 7.44078 17.9734 7.44078 18.364 7.05025L19.7782 5.63604ZM16.9497 16.9497C17.3403 16.5592 17.9734 16.5592 18.364 16.9497L19.7782 18.364C20.1687 18.7545 20.1687 19.3877 19.7782 19.7782C19.3876 20.1687 18.7545 20.1687 18.364 19.7782L16.9497 18.364C16.5592 17.9734 16.5592 17.3403 16.9497 16.9497ZM5.63604 4.22183C5.24552 3.8313 4.61235 3.8313 4.22183 4.22183C3.8313 4.61235 3.8313 5.24551 4.22183 5.63604L5.63604 7.05025C6.02656 7.44078 6.65973 7.44078 7.05025 7.05025C7.44078 6.65973 7.44078 6.02656 7.05025 5.63604L5.63604 4.22183ZM19 12C19 11.4477 19.4477 11 20 11H22C22.5523 11 23 11.4477 23 12C23 12.5523 22.5523 13 22 13H20C19.4477 13 19 12.5523 19 12ZM2 11C1.44772 11 1 11.4477 1 12C1 12.5523 1.44772 13 2 13H4C4.55228 13 5 12.5523 5 12C5 11.4477 4.55228 11 4 11H2Z" fill="black"/>
</svg>
