<svg width="24" height="24" viewBox="0 0 24 24" fill="none" xmlns="http://www.w3.org/2000/svg">
<path fill-rule="evenodd" clip-rule="evenodd" d="M14.9099 3.47369H19.1878C19.6365 3.47369 20 3.83142 20 4.27386V5.07403C20 5.51647 19.6365 5.8742 19.187 5.8742H4.813C4.36346 5.8742 4 5.51647 4 5.07403V4.27386C4 3.83142 4.36346 3.47369 4.813 3.47369H9.09104V3.43175C9.09104 2.63158 9.73275 2 10.5457 2H13.4552C14.2682 2 14.9099 2.63158 14.9099 3.43175V3.47369ZM5.8827 6.96875H18.1185H18.1187C18.3326 6.96875 18.5247 7.17928 18.4821 7.3898L17.883 19.5789C17.8186 20.9473 16.6848 21.9999 15.3162 21.9999H8.66342C7.29479 21.9999 6.16094 20.9259 6.0966 19.5789L5.4975 7.3898C5.47663 7.1579 5.64706 6.96875 5.8827 6.96875ZM9.99022 19.4103C10.3754 19.4103 10.6745 19.1159 10.6745 18.7368L10.6737 10.2523C10.6737 9.87322 10.3746 9.57882 9.98938 9.57882C9.60419 9.57882 9.30507 9.87322 9.30507 10.2523L9.3059 18.7368C9.3059 19.1159 9.60502 19.4103 9.99022 19.4103ZM14.0118 19.4103C14.397 19.4103 14.6961 19.1159 14.6961 18.7368L14.6953 10.2523C14.6953 9.87322 14.3961 9.57882 14.011 9.57882C13.6258 9.57882 13.3266 9.87322 13.3266 10.2523L13.3275 18.7368C13.3275 19.1159 13.6266 19.4103 14.0118 19.4103Z" fill="black"/>
</svg>
