<svg width="24" height="24" viewBox="0 0 24 24" fill="none" xmlns="http://www.w3.org/2000/svg">
<path fill-rule="evenodd" clip-rule="evenodd" d="M8.70711 5.29289C9.09763 5.68342 9.09763 6.31658 8.70711 6.70711L6.41421 9H16C18.7614 9 21 11.2386 21 14V15C21 17.7614 18.7614 20 16 20L10.8571 20C10.3049 20 9.85714 19.5523 9.85714 19C9.85714 18.4477 10.3049 18 10.8571 18L16 18C17.6568 18 19 16.6569 19 15V14C19 12.3431 17.6569 11 16 11H6.41421L8.70711 13.2929C9.09763 13.6834 9.09763 14.3166 8.70711 14.7071C8.31658 15.0976 7.68342 15.0976 7.29289 14.7071L2.58578 10L7.29289 5.29289C7.68342 4.90237 8.31658 4.90237 8.70711 5.29289Z" fill="black"/>
</svg>
