<svg width="24" height="24" viewBox="0 0 24 24" fill="none" xmlns="http://www.w3.org/2000/svg">
<path fill-rule="evenodd" clip-rule="evenodd" d="M14.4823 6.583C14.4989 3.31665 17.505 1.89648 18.5125 1.51192C18.645 1.46137 18.78 1.57961 18.7441 1.71499C18.5565 2.41407 18.4845 3.1542 18.4949 3.92013L18.4977 15.0452C18.4977 16.2412 18.2282 17.2768 17.6904 18.153C17.1522 19.0291 16.4057 19.7068 15.4498 20.1865C14.4944 20.6663 13.3862 20.9062 12.1263 20.9062C10.9608 20.9062 9.9214 20.6984 9.00474 20.2883C8.98466 20.2793 8.96452 20.2703 8.94437 20.2614C8.88955 20.2371 8.83473 20.2128 8.78118 20.1863C8.39759 19.9966 8.0478 19.7762 7.73184 19.5253C7.68575 19.4887 7.7256 19.4164 7.78159 19.4356C8.29571 19.6114 8.84816 19.7072 9.42344 19.7072C11.8396 19.7072 13.8553 18.0231 14.3197 15.7847C14.4127 15.5091 14.4623 15.2079 14.4623 14.8781V6.92335C14.4623 6.80807 14.4703 6.6949 14.4832 6.583H14.4823ZM11.664 16.4764C12.1311 16.4764 12.6196 16.3893 12.9737 16.2014C13.1744 16.0948 13.3478 16.0051 13.4598 15.9478C13.5055 15.9243 13.5567 15.9713 13.536 16.0176C12.7617 17.7434 11.0047 18.9485 8.96092 18.9485C8.85129 18.9485 8.74253 18.9449 8.63462 18.9381C7.58959 18.8717 6.62942 18.3141 6.07869 17.4393L6.0785 17.4389C6.07124 17.4274 6.06398 17.4159 6.05694 17.4044C5.5187 16.5354 5.24991 15.496 5.24991 14.2863V10.7547V7.54332C5.24991 7.08367 5.6292 6.71118 6.09722 6.71118H8.48041C8.94843 6.71118 9.32771 7.08367 9.32771 7.54332V9.14773V14.1196C9.32771 14.6065 9.42313 15.027 9.61438 15.3816C9.80564 15.7361 10.0781 16.007 10.432 16.1949C10.7858 16.3825 11.1966 16.4764 11.664 16.4764Z" fill="black"/>
</svg>
