<svg width="24" height="24" viewBox="0 0 24 24" fill="none" xmlns="http://www.w3.org/2000/svg">
<path d="M5 14C5 10.8508 7.07956 8.18736 9.94036 7.30792C9.61256 5.42863 7.97312 4 6.00001 4C3.79087 4 2.00001 5.79086 2.00001 8C2.00001 9.06096 2.41307 10.0254 3.08715 10.7414C2.89968 10.8417 2.71573 10.9519 2.53591 11.0718C1.9082 11.4903 1.34393 12.0181 0.861718 12.6337C0.40332 13.2189 0.874663 14 1.61805 14H5Z" fill="black"/>
<path d="M22.382 14L19 14C19 10.8508 16.9204 8.18737 14.0597 7.30793C14.3875 5.42863 16.0269 4 18 4C20.2092 4 22 5.79086 22 8C22 9.06096 21.5869 10.0255 20.9129 10.7414C21.1003 10.8417 21.2843 10.9519 21.4641 11.0718C22.0918 11.4903 22.6561 12.0181 23.1383 12.6337C23.5967 13.2189 23.1254 14 22.382 14Z" fill="black"/>
<path d="M17 14C17 15.5356 16.3077 16.9096 15.2182 17.8268C15.4995 17.9778 15.7743 18.149 16.0414 18.3397C16.8795 18.9383 17.6205 19.7158 18.2322 20.632C18.6384 21.2405 18.1614 22 17.4298 22L6.57019 22C5.83857 22 5.36162 21.2405 5.76783 20.632C6.37945 19.7158 7.12054 18.9383 7.95854 18.3397C8.22564 18.149 8.50054 17.9778 8.7818 17.8268C7.69229 16.9096 7 15.5356 7 14C7 11.2386 9.23857 9 12 9C14.7614 9 17 11.2386 17 14Z" fill="black"/>
</svg>
