<svg width="32" height="32" viewBox="0 0 32 32" fill="none" xmlns="http://www.w3.org/2000/svg">
<path d="M21 7C21 6.73478 21.1054 6.48043 21.2929 6.29289C21.4804 6.10536 21.7348 6 22 6H28C28.2652 6 28.5196 6.10536 28.7071 6.29289C28.8946 6.48043 29 6.73478 29 7C29 7.26522 28.8946 7.51957 28.7071 7.70711C28.5196 7.89464 28.2652 8 28 8H22C21.7348 8 21.4804 7.89464 21.2929 7.70711C21.1054 7.51957 21 7.26522 21 7ZM27.6688 13.0137C27.4072 13.0575 27.1737 13.2034 27.0197 13.4193C26.8657 13.6352 26.8038 13.9034 26.8475 14.165C26.949 14.7714 27 15.3852 27 16C27.0024 18.6927 26.0127 21.292 24.22 23.3012C23.4926 22.2471 22.5692 21.3427 21.5 20.6375C21.4087 20.577 21.3 20.5481 21.1907 20.5553C21.0814 20.5626 20.9775 20.6055 20.895 20.6775C19.5363 21.8531 17.7998 22.5001 16.0031 22.5001C14.2065 22.5001 12.4699 21.8531 11.1113 20.6775C11.0282 20.604 10.9231 20.5602 10.8125 20.5529C10.7018 20.5457 10.5919 20.5754 10.5 20.6375C9.4292 21.342 8.50438 22.2464 7.77625 23.3012C6.36944 21.716 5.45057 19.758 5.13017 17.6629C4.80976 15.5677 5.10147 13.4247 5.97019 11.4914C6.83892 9.5581 8.24767 7.91696 10.027 6.76536C11.8064 5.61375 13.8805 5.00072 16 5C16.6148 4.9999 17.2286 5.05091 17.835 5.1525C18.0954 5.19358 18.3615 5.13019 18.5754 4.97611C18.7893 4.82203 18.9337 4.58972 18.9772 4.32973C19.0207 4.06973 18.9597 3.80307 18.8076 3.58776C18.6555 3.37245 18.4246 3.22591 18.165 3.18C15.4493 2.72314 12.6587 3.14117 10.196 4.37372C7.73341 5.60627 5.72621 7.58956 4.46423 10.0372C3.20226 12.4849 2.75082 15.2703 3.1751 17.9913C3.59938 20.7123 4.87741 23.228 6.82469 25.1753C8.77196 27.1226 11.2877 28.4006 14.0087 28.8249C16.7297 29.2492 19.5151 28.7977 21.9628 27.5358C24.4104 26.2738 26.3937 24.2666 27.6263 21.804C28.8588 19.3413 29.2769 16.5507 28.82 13.835C28.7762 13.5734 28.6304 13.34 28.4145 13.186C28.1986 13.0319 27.9303 12.97 27.6688 13.0137ZM10.5 15C10.5 16.0878 10.8226 17.1512 11.4269 18.0556C12.0313 18.9601 12.8903 19.6651 13.8952 20.0813C14.9002 20.4976 16.0061 20.6065 17.073 20.3943C18.1399 20.1821 19.1199 19.6583 19.8891 18.8891C20.6583 18.1199 21.1821 17.1399 21.3943 16.073C21.6065 15.0061 21.4976 13.9002 21.0813 12.8952C20.6651 11.8902 19.9601 11.0313 19.0556 10.4269C18.1512 9.82257 17.0878 9.5 16 9.5C14.5413 9.5 13.1424 10.0795 12.1109 11.1109C11.0795 12.1424 10.5 13.5413 10.5 15Z" fill="black"/>
</svg>
