<svg width="24" height="24" viewBox="0 0 24 24" fill="none" xmlns="http://www.w3.org/2000/svg">
<path fill-rule="evenodd" clip-rule="evenodd" d="M16 9C16 11.2091 14.2091 13 12 13C9.79087 13 8.00001 11.2091 8.00001 9C8.00001 6.79086 9.79087 5 12 5C14.2091 5 16 6.79086 16 9ZM14.7091 14.355C16.6617 13.3653 18 11.3389 18 9C18 5.68629 15.3137 3 12 3C8.6863 3 6.00001 5.68629 6.00001 9C6.00001 11.3389 7.33832 13.3653 9.29095 14.355C7.29148 14.8934 5.71757 15.9648 4.57428 17.0128C3.76457 17.7551 3.15863 18.4958 2.75377 19.0525C2.55083 19.3315 2.39698 19.5663 2.29201 19.7347C2.23949 19.8189 2.1991 19.8867 2.17081 19.9353C2.15667 19.9597 2.14554 19.9792 2.13742 19.9936L2.12751 20.0113L2.12425 20.0172L2.12304 20.0195L2.12254 20.0204C2.12232 20.0208 2.12211 20.0211 3.00001 20.5L2.12211 20.0211C1.85765 20.506 2.03631 21.1134 2.52115 21.3779C3.00578 21.6422 3.61289 21.4639 3.87754 20.9795L3.88017 20.9748C3.88377 20.9684 3.89022 20.9571 3.89951 20.9411C3.9181 20.9092 3.94802 20.8588 3.98925 20.7927C4.07178 20.6603 4.19918 20.4654 4.37124 20.2288C4.71638 19.7542 5.23545 19.1199 5.92573 18.4872C7.30795 17.2201 9.3279 16 12 16C14.6721 16 16.6921 17.2201 18.0743 18.4872C18.7646 19.1199 19.2836 19.7542 19.6288 20.2288C19.8008 20.4654 19.9282 20.6603 20.0108 20.7927C20.052 20.8588 20.0819 20.9092 20.1005 20.9411C20.1052 20.9492 20.1091 20.956 20.1124 20.9617C20.1156 20.9673 20.1181 20.9717 20.1198 20.9748L20.1221 20.9789L20.1225 20.9795L20.1228 20.98L20.1232 20.9808C20.3882 21.4642 20.9947 21.642 21.4789 21.3779C21.9637 21.1134 22.1424 20.506 21.8779 20.0211L21 20.5C21.8779 20.0211 21.8777 20.0208 21.8775 20.0204L21.877 20.0195L21.8758 20.0172L21.8725 20.0113L21.8626 19.9936C21.8545 19.9792 21.8433 19.9597 21.8292 19.9353C21.8009 19.8867 21.7605 19.8189 21.708 19.7347C21.603 19.5663 21.4492 19.3315 21.2462 19.0525C20.8414 18.4958 20.2354 17.7551 19.4257 17.0128C18.2824 15.9648 16.7085 14.8934 14.7091 14.355Z" fill="black"/>
</svg>
