<svg width="32" height="32" viewBox="0 0 32 32" fill="none" xmlns="http://www.w3.org/2000/svg">
<path opacity="0.2" d="M28 16C28.0018 17.6829 27.6487 19.3473 26.9638 20.8845C26.2789 22.4217 25.2775 23.7972 24.025 24.9212C23.272 23.4401 22.1237 22.1963 20.7072 21.3277C19.2908 20.4591 17.6616 19.9996 16 20C16.9889 20 17.9556 19.7067 18.7779 19.1573C19.6001 18.6079 20.241 17.827 20.6194 16.9134C20.9978 15.9998 21.0969 14.9944 20.9039 14.0245C20.711 13.0546 20.2348 12.1637 19.5355 11.4645C18.8363 10.7652 17.9454 10.289 16.9755 10.0961C16.0055 9.90314 15.0002 10.0022 14.0866 10.3806C13.173 10.759 12.3921 11.3999 11.8427 12.2221C11.2932 13.0444 11 14.0111 11 15C11 16.3261 11.5268 17.5978 12.4645 18.5355C13.4022 19.4732 14.6739 20 16 20C14.3384 19.9996 12.7092 20.4591 11.2928 21.3277C9.87634 22.1963 8.72801 23.4401 7.975 24.9212C6.48782 23.5836 5.35862 21.8953 4.69008 20.0101C4.02153 18.1248 3.83487 16.1024 4.14705 14.1266C4.45922 12.1508 5.26035 10.2844 6.47756 8.69712C7.69478 7.10983 9.28947 5.85198 11.1166 5.03798C12.9438 4.22397 14.9454 3.87961 16.9396 4.03623C18.9337 4.19285 20.8571 4.84547 22.5348 5.93475C24.2124 7.02403 25.5912 8.51541 26.5457 10.2733C27.5002 12.0311 28.0001 13.9997 28 16Z" fill="black"/>
<path d="M21 7.00001C21 6.7348 21.1054 6.48044 21.2929 6.29291C21.4804 6.10537 21.7348 6.00001 22 6.00001H24V4.00001C24 3.7348 24.1054 3.48044 24.2929 3.29291C24.4804 3.10537 24.7348 3.00001 25 3.00001C25.2652 3.00001 25.5196 3.10537 25.7071 3.29291C25.8946 3.48044 26 3.7348 26 4.00001V6.00001H28C28.2652 6.00001 28.5196 6.10537 28.7071 6.29291C28.8946 6.48044 29 6.7348 29 7.00001C29 7.26523 28.8946 7.51958 28.7071 7.70712C28.5196 7.89466 28.2652 8.00001 28 8.00001H26V10C26 10.2652 25.8946 10.5196 25.7071 10.7071C25.5196 10.8947 25.2652 11 25 11C24.7348 11 24.4804 10.8947 24.2929 10.7071C24.1054 10.5196 24 10.2652 24 10V8.00001H22C21.7348 8.00001 21.4804 7.89466 21.2929 7.70712C21.1054 7.51958 21 7.26523 21 7.00001ZM28.82 13.835C29.2769 16.5507 28.8588 19.3413 27.6263 21.804C26.3937 24.2666 24.4104 26.2738 21.9628 27.5358C19.5151 28.7978 16.7297 29.2492 14.0087 28.8249C11.2877 28.4006 8.77196 27.1226 6.82469 25.1753C4.87741 23.2281 3.59938 20.7123 3.1751 17.9913C2.75082 15.2704 3.20226 12.4849 4.46423 10.0373C5.72621 7.58958 7.73341 5.60628 10.196 4.37373C12.6587 3.14118 15.4493 2.72316 18.165 3.18001C18.4246 3.22592 18.6555 3.37247 18.8076 3.58778C18.9597 3.80309 19.0207 4.06974 18.9772 4.32974C18.9337 4.58974 18.7893 4.82204 18.5754 4.97613C18.3615 5.13021 18.0954 5.1936 17.835 5.15251C16.2577 4.88717 14.6415 4.96873 13.0989 5.39152C11.5562 5.81431 10.1243 6.56817 8.90265 7.60064C7.68101 8.63311 6.69903 9.91938 6.02505 11.3699C5.35107 12.8205 5.00127 14.4005 5 16C4.99763 18.6928 5.98731 21.292 7.78 23.3013C8.89529 21.6851 10.4635 20.4348 12.2875 19.7075C11.3077 18.9358 10.5928 17.878 10.2421 16.6811C9.8914 15.4843 9.92238 14.2079 10.3307 13.0294C10.7391 11.851 11.5045 10.8291 12.5206 10.1059C13.5366 9.38263 14.7528 8.99399 16 8.99399C17.2472 8.99399 18.4634 9.38263 19.4794 10.1059C20.4955 10.8291 21.2609 11.851 21.6693 13.0294C22.0776 14.2079 22.1086 15.4843 21.7579 16.6811C21.4072 17.878 20.6923 18.9358 19.7125 19.7075C21.5365 20.4348 23.1047 21.6851 24.22 23.3013C26.0127 21.292 27.0024 18.6928 27 16C27 15.3852 26.949 14.7714 26.8475 14.165C26.8245 14.0349 26.8275 13.9016 26.8563 13.7727C26.8851 13.6437 26.9392 13.5218 27.0154 13.4139C27.0917 13.306 27.1885 13.2143 27.3004 13.144C27.4122 13.0738 27.5369 13.0264 27.6672 13.0046C27.7975 12.9828 27.9308 12.987 28.0595 13.017C28.1881 13.0471 28.3095 13.1023 28.4167 13.1795C28.5239 13.2567 28.6147 13.3544 28.684 13.4669C28.7532 13.5794 28.7994 13.7045 28.82 13.835ZM16 19C16.7911 19 17.5645 18.7654 18.2223 18.3259C18.8801 17.8864 19.3928 17.2617 19.6955 16.5307C19.9983 15.7998 20.0775 14.9956 19.9231 14.2197C19.7688 13.4437 19.3878 12.731 18.8284 12.1716C18.269 11.6122 17.5563 11.2312 16.7804 11.0769C16.0044 10.9225 15.2002 11.0017 14.4693 11.3045C13.7384 11.6072 13.1137 12.1199 12.6741 12.7777C12.2346 13.4355 12 14.2089 12 15C12 16.0609 12.4214 17.0783 13.1716 17.8284C13.9217 18.5786 14.9391 19 16 19ZM16 27C18.4417 27.0025 20.8141 26.1885 22.74 24.6875C22.0166 23.5561 21.02 22.625 19.8421 21.9801C18.6642 21.3351 17.3429 20.9971 16 20.9971C14.6571 20.9971 13.3358 21.3351 12.1579 21.9801C10.98 22.625 9.98342 23.5561 9.26 24.6875C11.1859 26.1885 13.5583 27.0025 16 27Z" fill="black"/>
</svg>
