<svg width="32" height="32" viewBox="0 0 32 32" fill="none" xmlns="http://www.w3.org/2000/svg">
<path d="M10.5 15C10.5 13.9122 10.8226 12.8488 11.4269 11.9444C12.0313 11.0399 12.8902 10.335 13.8952 9.91868C14.9002 9.50239 16.0061 9.39348 17.073 9.60569C18.1399 9.81791 19.1199 10.3417 19.8891 11.1109C20.6583 11.8801 21.1821 12.8601 21.3943 13.927C21.6065 14.9939 21.4976 16.0998 21.0813 17.1048C20.6651 18.1098 19.9601 18.9687 19.0556 19.5731C18.1512 20.1774 17.0878 20.5 16 20.5C14.5413 20.5 13.1424 19.9206 12.1109 18.8891C11.0795 17.8577 10.5 16.4587 10.5 15ZM26.27 22.1475C26.0472 22.0182 25.7839 21.9774 25.5325 22.0332C25.281 22.089 25.0597 22.2373 24.9125 22.4488C24.697 22.7456 24.4667 23.0314 24.2225 23.305C23.495 22.249 22.5706 21.3433 21.5 20.6375C21.4087 20.577 21.3 20.5481 21.1907 20.5553C21.0814 20.5626 20.9775 20.6055 20.895 20.6775C19.5365 21.853 17.8002 22.5 16.0037 22.5C14.2073 22.5 12.471 21.853 11.1125 20.6775C11.0294 20.6037 10.924 20.5597 10.8131 20.5525C10.7022 20.5452 10.592 20.5751 10.5 20.6375C9.4292 21.342 8.50438 22.2464 7.77625 23.3013C6.21458 21.5476 5.25756 19.3387 5.04625 17H6.97125C7.13311 17.0026 7.29328 16.9667 7.43863 16.8955C7.58398 16.8242 7.71039 16.7195 7.8075 16.59C7.9484 16.3974 8.01577 16.1607 7.99743 15.9228C7.97909 15.6848 7.87626 15.4613 7.7075 15.2925L4.7075 12.2925C4.61463 12.1995 4.50434 12.1258 4.38294 12.0755C4.26154 12.0251 4.13142 11.9992 4 11.9992C3.86859 11.9992 3.73846 12.0251 3.61706 12.0755C3.49566 12.1258 3.38537 12.1995 3.2925 12.2925L0.2925 15.2925C0.123745 15.4613 0.0209084 15.6848 0.00256913 15.9228C-0.0157702 16.1607 0.051597 16.3974 0.1925 16.59C0.28961 16.7195 0.416017 16.8242 0.561369 16.8955C0.706722 16.9667 0.866888 17.0026 1.02875 17H3.0375C3.24202 19.6586 4.25914 22.1901 5.95097 24.2511C7.64279 26.3121 9.92747 27.8031 12.4953 28.5218C15.0631 29.2405 17.7898 29.1522 20.3057 28.2689C22.8216 27.3855 25.0051 25.7499 26.56 23.5838C26.6402 23.4721 26.6966 23.3451 26.7255 23.2106C26.7544 23.0762 26.7553 22.9372 26.728 22.8024C26.7008 22.6676 26.6461 22.5399 26.5673 22.4272C26.4885 22.3145 26.3873 22.2193 26.27 22.1475ZM31.9237 15.6175C31.8481 15.4348 31.72 15.2786 31.5555 15.1687C31.3911 15.0587 31.1978 15.0001 31 15H28.9625C28.758 12.3414 27.7409 9.80996 26.049 7.74892C24.3572 5.68789 22.0725 4.19695 19.5047 3.47825C16.9369 2.75954 14.2102 2.84784 11.6943 3.73116C9.17838 4.61448 6.99494 6.2501 5.44 8.41626C5.28518 8.63175 5.2223 8.89992 5.2652 9.16176C5.3081 9.42361 5.45326 9.65769 5.66875 9.81251C5.88424 9.96733 6.1524 10.0302 6.41425 9.98731C6.6761 9.94441 6.91018 9.79925 7.065 9.58376C8.37322 7.76232 10.2069 6.38423 12.3203 5.63419C14.4338 4.88414 16.7259 4.79798 18.8897 5.38723C21.0535 5.97648 22.9854 7.213 24.4267 8.93109C25.868 10.6492 26.7497 12.7667 26.9538 15H25C24.8021 14.9999 24.6086 15.0584 24.444 15.1683C24.2794 15.2782 24.1511 15.4344 24.0754 15.6172C23.9996 15.8 23.9798 16.0012 24.0185 16.1953C24.0571 16.3894 24.1525 16.5677 24.2925 16.7075L27.2925 19.7075C27.3854 19.8005 27.4957 19.8743 27.6171 19.9246C27.7385 19.9749 27.8686 20.0008 28 20.0008C28.1314 20.0008 28.2615 19.9749 28.3829 19.9246C28.5043 19.8743 28.6146 19.8005 28.7075 19.7075L31.7075 16.7075C31.8473 16.5676 31.9425 16.3893 31.981 16.1953C32.0195 16.0013 31.9995 15.8002 31.9237 15.6175Z" fill="black"/>
</svg>
