<svg width="32" height="32" viewBox="0 0 32 32" fill="none" xmlns="http://www.w3.org/2000/svg">
<path opacity="0.2" d="M17 13.5C17 14.7856 16.6188 16.0423 15.9046 17.1112C15.1903 18.1801 14.1752 19.0132 12.9874 19.5052C11.7997 19.9972 10.4928 20.1259 9.23191 19.8751C7.97104 19.6243 6.81285 19.0052 5.9038 18.0962C4.99476 17.1872 4.3757 16.029 4.12489 14.7681C3.87409 13.5072 4.00281 12.2003 4.49478 11.0126C4.98675 9.82484 5.81987 8.80968 6.88879 8.09545C7.95771 7.38122 9.21442 7 10.5 7C12.2239 7 13.8772 7.68482 15.0962 8.90381C16.3152 10.1228 17 11.7761 17 13.5Z" fill="black"/>
<path d="M14.6563 19.74C15.9965 18.8477 17.014 17.5478 17.5584 16.0326C18.1027 14.5173 18.145 12.867 17.6789 11.3259C17.2128 9.78471 16.2631 8.43445 14.9703 7.47478C13.6775 6.5151 12.1101 5.99695 10.5 5.99695C8.88991 5.99695 7.32255 6.5151 6.02972 7.47478C4.73688 8.43445 3.7872 9.78471 3.32111 11.3259C2.85503 12.867 2.89728 14.5173 3.44162 16.0326C3.98597 17.5478 5.0035 18.8477 6.34375 19.74C3.91937 20.6335 1.84888 22.287 0.441251 24.4537C0.367271 24.5637 0.315884 24.6873 0.290078 24.8172C0.264271 24.9472 0.26456 25.0811 0.290928 25.2109C0.317295 25.3408 0.369215 25.4641 0.443669 25.5738C0.518124 25.6834 0.613627 25.7772 0.724629 25.8496C0.835631 25.922 0.959916 25.9716 1.09026 25.9955C1.22061 26.0195 1.35441 26.0173 1.4839 25.989C1.61338 25.9608 1.73597 25.9071 1.84452 25.8311C1.95308 25.7551 2.04545 25.6583 2.11625 25.5462C3.02424 24.1497 4.2667 23.0021 5.7308 22.2077C7.1949 21.4133 8.83426 20.9972 10.5 20.9972C12.1657 20.9972 13.8051 21.4133 15.2692 22.2077C16.7333 23.0021 17.9758 24.1497 18.8838 25.5462C19.0304 25.7642 19.257 25.9157 19.5145 25.968C19.772 26.0203 20.0397 25.9691 20.2597 25.8256C20.4798 25.6821 20.6345 25.4577 20.6905 25.201C20.7464 24.9443 20.6991 24.6758 20.5588 24.4537C19.1511 22.287 17.0806 20.6335 14.6563 19.74ZM5 13.5C5 12.4122 5.32257 11.3488 5.92692 10.4444C6.53127 9.53988 7.39025 8.83494 8.39524 8.41865C9.40024 8.00237 10.5061 7.89345 11.573 8.10567C12.6399 8.31789 13.6199 8.84171 14.3891 9.6109C15.1583 10.3801 15.6821 11.3601 15.8943 12.427C16.1065 13.4939 15.9976 14.5998 15.5813 15.6048C15.1651 16.6097 14.4601 17.4687 13.5556 18.0731C12.6512 18.6774 11.5878 19 10.5 19C9.04182 18.9983 7.64383 18.4183 6.61274 17.3873C5.58165 16.3562 5.00166 14.9582 5 13.5ZM31.2675 25.8375C31.0454 25.9823 30.7748 26.033 30.5153 25.9784C30.2558 25.9238 30.0286 25.7683 29.8838 25.5462C28.9769 24.1489 27.7346 23.0008 26.2702 22.2067C24.8058 21.4126 23.1659 20.9978 21.5 21C21.2348 21 20.9804 20.8946 20.7929 20.7071C20.6054 20.5196 20.5 20.2652 20.5 20C20.5 19.7348 20.6054 19.4804 20.7929 19.2929C20.9804 19.1053 21.2348 19 21.5 19C22.31 18.9992 23.1098 18.8196 23.8422 18.4739C24.5747 18.1282 25.2218 17.625 25.7373 17.0002C26.2527 16.3754 26.6239 15.6445 26.8241 14.8597C27.0243 14.0749 27.0488 13.2555 26.8956 12.4602C26.7425 11.6648 26.4156 10.9131 25.9383 10.2587C25.4609 9.60437 24.845 9.0635 24.1344 8.67478C23.4238 8.28606 22.6361 8.05909 21.8276 8.01007C21.0192 7.96106 20.2098 8.09121 19.4575 8.39124C19.3348 8.44427 19.2028 8.47217 19.0691 8.4733C18.9355 8.47443 18.803 8.44876 18.6795 8.39782C18.5559 8.34687 18.4438 8.27168 18.3498 8.17668C18.2559 8.08168 18.1819 7.96881 18.1322 7.84473C18.0826 7.72065 18.0583 7.58788 18.0609 7.45426C18.0634 7.32065 18.0927 7.1889 18.1471 7.06681C18.2014 6.94471 18.2796 6.83474 18.3772 6.7434C18.4747 6.65205 18.5896 6.58119 18.715 6.53499C20.4368 5.84831 22.352 5.82359 24.0909 6.46562C25.8299 7.10766 27.2695 8.37094 28.132 10.0118C28.9945 11.6526 29.2188 13.5547 28.7616 15.3511C28.3044 17.1476 27.1982 18.7111 25.6563 19.74C28.0806 20.6335 30.1511 22.287 31.5588 24.4537C31.7036 24.6759 31.7543 24.9464 31.6997 25.2059C31.6451 25.4654 31.4896 25.6926 31.2675 25.8375Z" fill="black"/>
</svg>
