<svg width="24" height="24" viewBox="0 0 24 24" fill="none" xmlns="http://www.w3.org/2000/svg">
<g opacity="0.2">
<path d="M9 8C9 9.65685 7.65685 11 6 11C4.34315 11 3 9.65685 3 8C3 6.34315 4.34315 5 6 5C7.65685 5 9 6.34315 9 8Z" fill="black"/>
<path d="M21 8C21 9.65685 19.6569 11 18 11C16.3431 11 15 9.65685 15 8C15 6.34315 16.3431 5 18 5C19.6569 5 21 6.34315 21 8Z" fill="black"/>
<path d="M16 14C16 16.2091 14.2091 18 12 18C9.79086 18 8 16.2091 8 14C8 11.7909 9.79086 10 12 10C14.2091 10 16 11.7909 16 14Z" fill="black"/>
</g>
<path d="M5.29548 6.12819C5.64485 5.9967 6.02404 5.9656 6.39016 6.03843C6.75628 6.11126 7.09472 6.28509 7.36717 6.54027C7.63962 6.79545 7.83522 7.12179 7.93184 7.48236C8.07478 8.01583 8.62311 8.33241 9.15658 8.18947C9.69005 8.04653 10.0066 7.49819 9.86369 6.96473C9.67046 6.24358 9.27926 5.59091 8.73435 5.08055C8.18945 4.57019 7.51259 4.22251 6.78035 4.07686C6.04811 3.93121 5.28972 3.99339 4.59098 4.25638C3.89225 4.51936 3.28106 4.97265 2.82657 5.56495C2.37208 6.15726 2.09242 6.86494 2.01924 7.60793C1.94607 8.35092 2.08229 9.09956 2.41249 9.76916C2.58622 10.1214 2.81 10.4445 3.07541 10.7289C2.30209 11.1476 1.64295 11.7328 1.16793 12.4453C0.861581 12.9048 0.985755 13.5257 1.44528 13.8321C1.90481 14.1384 2.52568 14.0142 2.83203 13.5547C3.13375 13.1021 3.57938 12.7095 4.1378 12.4303C4.69646 12.151 5.3392 12 5.99998 12C6.55227 12 6.99998 11.5523 6.99998 11C6.99998 10.4477 6.55227 10 5.99998 10C5.62669 10 5.26085 9.89553 4.94385 9.69841C4.62685 9.50128 4.37134 9.21937 4.20624 8.88458C4.04114 8.54978 3.97303 8.17546 4.00961 7.80397C4.0462 7.43247 4.18603 7.07863 4.41328 6.78248C4.64052 6.48633 4.94612 6.25968 5.29548 6.12819Z" fill="black"/>
<path fill-rule="evenodd" clip-rule="evenodd" d="M12 9C9.23853 9 6.99995 11.2386 6.99995 14C6.99995 15.4517 7.61858 16.7588 8.60659 17.6722C8.43114 17.7455 8.25836 17.8246 8.08864 17.9094C6.89169 18.5079 5.87965 19.3777 5.1679 20.4453C4.86155 20.9048 4.98572 21.5257 5.44525 21.8321C5.90478 22.1384 6.52565 22.0142 6.832 21.5547C7.33641 20.7981 8.07357 20.153 8.98307 19.6983C9.8928 19.2434 10.9338 19 12 19C13.0661 19 14.1071 19.2434 15.0168 19.6983C15.9263 20.153 16.6635 20.7981 17.1679 21.5547C17.4743 22.0142 18.0951 22.1384 18.5547 21.8321C19.0142 21.5257 19.1384 20.9048 18.832 20.4453C18.1203 19.3777 17.1082 18.5079 15.9113 17.9094C15.7415 17.8246 15.5688 17.7455 15.3933 17.6722C16.3813 16.7588 17 15.4517 17 14C17 11.2386 14.7614 9 12 9ZM8.99995 14C8.99995 12.3431 10.3431 11 12 11C13.6568 11 15 12.3431 15 14C15 15.6569 13.6568 17 12 17C10.3431 17 8.99995 15.6569 8.99995 14Z" fill="black"/>
<path d="M17.6097 6.03843C17.9758 5.9656 18.355 5.9967 18.7044 6.12819C19.0537 6.25968 19.3593 6.48633 19.5866 6.78248C19.8138 7.07863 19.9537 7.43247 19.9902 7.80397C20.0268 8.17546 19.9587 8.54978 19.7936 8.88458C19.6285 9.21937 19.373 9.50128 19.056 9.69841C18.739 9.89553 18.3732 10 17.9999 10C17.4476 10 16.9999 10.4477 16.9999 11C16.9999 11.5523 17.4476 12 17.9999 12C18.6607 12 19.3034 12.151 19.8621 12.4303C20.4205 12.7095 20.8661 13.1021 21.1678 13.5547C21.4742 14.0142 22.0951 14.1384 22.5546 13.8321C23.0141 13.5257 23.1383 12.9048 22.8319 12.4453C22.3569 11.7328 21.6978 11.1476 20.9245 10.7289C21.1899 10.4445 21.4136 10.1214 21.5874 9.76916C21.9176 9.09956 22.0538 8.35092 21.9806 7.60793C21.9074 6.86494 21.6278 6.15726 21.1733 5.56495C20.7188 4.97265 20.1076 4.51936 19.4089 4.25638C18.7101 3.99339 17.9518 3.93121 17.2195 4.07686C16.4873 4.22251 15.8104 4.57019 15.2655 5.08055C14.7206 5.59091 14.3294 6.24358 14.1362 6.96473C13.9932 7.49819 14.3098 8.04653 14.8433 8.18947C15.3767 8.33241 15.9251 8.01583 16.068 7.48236C16.1646 7.12179 16.3602 6.79545 16.6327 6.54027C16.9051 6.28509 17.2436 6.11126 17.6097 6.03843Z" fill="black"/>
</svg>
