<svg width="32" height="32" viewBox="0 0 32 32" fill="none" xmlns="http://www.w3.org/2000/svg">
<path opacity="0.2" d="M28 16C28.0018 17.6829 27.6487 19.3473 26.9638 20.8845C26.2789 22.4217 25.2775 23.7972 24.025 24.9212C23.272 23.4401 22.1237 22.1963 20.7072 21.3277C19.2908 20.4591 17.6616 19.9996 16 20C16.9889 20 17.9556 19.7067 18.7779 19.1573C19.6001 18.6079 20.241 17.827 20.6194 16.9134C20.9978 15.9998 21.0969 14.9944 20.9039 14.0245C20.711 13.0546 20.2348 12.1637 19.5355 11.4645C18.8363 10.7652 17.9454 10.289 16.9755 10.0961C16.0055 9.90314 15.0002 10.0022 14.0866 10.3806C13.173 10.759 12.3921 11.3999 11.8427 12.2221C11.2932 13.0444 11 14.0111 11 15C11 16.3261 11.5268 17.5978 12.4645 18.5355C13.4022 19.4732 14.6739 20 16 20C14.3384 19.9996 12.7092 20.4591 11.2928 21.3277C9.87634 22.1963 8.72801 23.4401 7.975 24.9212C6.48782 23.5836 5.35862 21.8953 4.69008 20.0101C4.02153 18.1248 3.83487 16.1024 4.14705 14.1266C4.45922 12.1508 5.26035 10.2844 6.47756 8.69712C7.69478 7.10983 9.28947 5.85198 11.1166 5.03798C12.9438 4.22397 14.9454 3.87961 16.9396 4.03623C18.9337 4.19285 20.8571 4.84547 22.5348 5.93475C24.2124 7.02403 25.5912 8.51541 26.5457 10.2733C27.5002 12.0311 28.0001 13.9997 28 16Z" fill="black"/>
<path d="M31.7075 16.7075L28.7075 19.7075C28.6146 19.8005 28.5043 19.8742 28.3829 19.9246C28.2615 19.9749 28.1314 20.0008 28 20.0008C27.8686 20.0008 27.7385 19.9749 27.6171 19.9246C27.4957 19.8742 27.3854 19.8005 27.2925 19.7075L24.2925 16.7075C24.1049 16.5199 23.9994 16.2654 23.9994 16C23.9994 15.7346 24.1049 15.4802 24.2925 15.2925C24.4801 15.1049 24.7346 14.9995 25 14.9995C25.2654 14.9995 25.5199 15.1049 25.7075 15.2925L27 16.5863V16C27.0011 13.6708 26.2629 11.4013 24.8916 9.51857C23.5204 7.6358 21.5868 6.23691 19.3696 5.5234C17.1524 4.8099 14.7659 4.81863 12.5539 5.54832C10.342 6.27802 8.41872 7.69101 7.06125 9.58376C6.90643 9.79925 6.67235 9.94441 6.4105 9.98731C6.14865 10.0302 5.88049 9.96733 5.665 9.81251C5.44951 9.65769 5.30435 9.42361 5.26145 9.16176C5.21855 8.89991 5.28143 8.63175 5.43625 8.41626C7.04061 6.17941 9.3136 4.50957 11.9278 3.64728C14.542 2.785 17.3624 2.77479 19.9827 3.61812C22.6031 4.46146 24.8881 6.1148 26.5086 8.33998C28.1291 10.5652 29.0015 13.2473 29 16V16.5863L30.2925 15.2925C30.4801 15.1049 30.7346 14.9995 31 14.9995C31.2654 14.9995 31.5199 15.1049 31.7075 15.2925C31.8951 15.4802 32.0006 15.7346 32.0006 16C32.0006 16.2654 31.8951 16.5199 31.7075 16.7075ZM26.56 23.5825C24.9552 25.8177 22.6825 27.486 20.0692 28.3473C17.4558 29.2086 14.6366 29.2184 12.0173 28.3754C9.39798 27.5324 7.11371 25.8801 5.49329 23.6562C3.87288 21.4323 2.99989 18.7516 3 16V15.4138L1.7075 16.7075C1.51986 16.8952 1.26536 17.0006 0.999999 17.0006C0.734635 17.0006 0.48014 16.8952 0.292499 16.7075C0.104858 16.5199 -0.000556946 16.2654 -0.000556946 16C-0.000556946 15.7346 0.104858 15.4802 0.292499 15.2925L3.2925 12.2925C3.38537 12.1995 3.49566 12.1258 3.61706 12.0755C3.73846 12.0251 3.86858 11.9992 4 11.9992C4.13141 11.9992 4.26154 12.0251 4.38294 12.0755C4.50434 12.1258 4.61463 12.1995 4.7075 12.2925L7.7075 15.2925C7.89514 15.4802 8.00056 15.7346 8.00056 16C8.00056 16.2654 7.89514 16.5199 7.7075 16.7075C7.51986 16.8952 7.26536 17.0006 7 17.0006C6.73463 17.0006 6.48014 16.8952 6.2925 16.7075L5 15.4138V16C4.99763 18.6928 5.98731 21.292 7.78 23.3013C8.89529 21.6851 10.4635 20.4348 12.2875 19.7075C11.3077 18.9358 10.5928 17.878 10.2421 16.6811C9.89139 15.4843 9.92238 14.2079 10.3307 13.0294C10.7391 11.851 11.5045 10.8291 12.5206 10.1059C13.5366 9.38263 14.7528 8.99398 16 8.99398C17.2472 8.99398 18.4634 9.38263 19.4794 10.1059C20.4955 10.8291 21.2609 11.851 21.6693 13.0294C22.0776 14.2079 22.1086 15.4843 21.7579 16.6811C21.4072 17.878 20.6923 18.9358 19.7125 19.7075C21.5382 20.4349 23.1075 21.6867 24.2225 23.305C24.4753 23.0211 24.7136 22.7244 24.9363 22.4163C25.0911 22.2008 25.3252 22.0556 25.587 22.0127C25.8488 21.9698 26.117 22.0327 26.3325 22.1875C26.548 22.3423 26.6931 22.5764 26.736 22.8383C26.7789 23.1001 26.7161 23.3683 26.5613 23.5838L26.56 23.5825ZM16 19C16.7911 19 17.5645 18.7654 18.2223 18.3259C18.8801 17.8864 19.3928 17.2616 19.6955 16.5307C19.9983 15.7998 20.0775 14.9956 19.9231 14.2197C19.7688 13.4437 19.3878 12.731 18.8284 12.1716C18.269 11.6122 17.5563 11.2312 16.7804 11.0769C16.0044 10.9225 15.2002 11.0017 14.4693 11.3045C13.7384 11.6072 13.1136 12.1199 12.6741 12.7777C12.2346 13.4355 12 14.2089 12 15C12 16.0609 12.4214 17.0783 13.1716 17.8284C13.9217 18.5786 14.9391 19 16 19ZM16 27C18.4406 26.9968 20.8111 26.1839 22.74 24.6888C22.0166 23.5574 21.02 22.6263 19.8421 21.9813C18.6642 21.3364 17.3429 20.9983 16 20.9983C14.6571 20.9983 13.3358 21.3364 12.1579 21.9813C10.98 22.6263 9.98342 23.5574 9.26 24.6888C11.186 26.1893 13.5584 27.0028 16 27Z" fill="black"/>
</svg>
