<svg width="32" height="32" viewBox="0 0 32 32" fill="none" xmlns="http://www.w3.org/2000/svg">
<path d="M30.6 18.8C30.4949 18.8788 30.3754 18.9361 30.2482 18.9687C30.121 19.0013 29.9886 19.0085 29.8586 18.9899C29.7286 18.9714 29.6035 18.9274 29.4905 18.8605C29.3775 18.7936 29.2788 18.705 29.2 18.6C28.5973 17.7898 27.8127 17.1325 26.9095 16.6809C26.0064 16.2293 25.0098 15.9961 24 16C23.8034 16 23.6111 15.942 23.4472 15.8333C23.2834 15.7245 23.1552 15.5699 23.0787 15.3887C23.0268 15.2657 23.0001 15.1335 23.0001 15C23.0001 14.8665 23.0268 14.7343 23.0787 14.6112C23.1552 14.4301 23.2834 14.2754 23.4472 14.1667C23.6111 14.058 23.8034 14 24 14C24.5611 13.9999 25.1109 13.8425 25.587 13.5457C26.0632 13.2488 26.4465 12.8243 26.6935 12.3205C26.9404 11.8167 27.0412 11.2538 26.9843 10.6956C26.9273 10.1374 26.715 9.60633 26.3714 9.16277C26.0277 8.7192 25.5666 8.38089 25.0404 8.18626C24.5141 7.99163 23.9438 7.94848 23.3943 8.06172C22.8447 8.17495 22.338 8.44004 21.9315 8.82685C21.5251 9.21367 21.2353 9.70672 21.095 10.25C21.0622 10.3772 21.0046 10.4967 20.9256 10.6017C20.8466 10.7067 20.7477 10.795 20.6345 10.8618C20.5213 10.9285 20.3961 10.9723 20.266 10.9907C20.1359 11.009 20.0035 11.0016 19.8762 10.9687C19.749 10.9359 19.6295 10.8783 19.5246 10.7993C19.4196 10.7203 19.3312 10.6214 19.2645 10.5082C19.1977 10.3951 19.1539 10.2698 19.1356 10.1397C19.1172 10.0096 19.1247 9.87721 19.1575 9.74999C19.3522 8.99663 19.72 8.29911 20.2317 7.71293C20.7434 7.12675 21.3849 6.66808 22.1051 6.37343C22.8252 6.07877 23.6042 5.95627 24.3801 6.01565C25.1559 6.07504 25.9072 6.31468 26.5741 6.7155C27.241 7.11633 27.8052 7.66728 28.2217 8.32451C28.6383 8.98175 28.8956 9.72712 28.9734 10.5013C29.0512 11.2755 28.9472 12.0572 28.6697 12.7842C28.3922 13.5111 27.9489 14.1633 27.375 14.6887C28.7348 15.2775 29.9168 16.2118 30.8037 17.3987C30.8825 17.5041 30.9398 17.6239 30.9722 17.7514C31.0046 17.8789 31.0115 18.0115 30.9926 18.1416C30.9737 18.2718 30.9292 18.397 30.8619 18.5099C30.7945 18.6229 30.7055 18.7215 30.6 18.8ZM23.865 26.5C23.9374 26.6138 23.9859 26.7411 24.0078 26.8742C24.0297 27.0072 24.0245 27.1434 23.9924 27.2744C23.9603 27.4054 23.902 27.5285 23.8211 27.6364C23.7402 27.7443 23.6383 27.8347 23.5215 27.9022C23.4048 27.9697 23.2755 28.0129 23.1417 28.0292C23.0078 28.0454 22.872 28.0344 22.7425 27.9969C22.6129 27.9593 22.4923 27.8959 22.388 27.8105C22.2836 27.7251 22.1975 27.6195 22.135 27.5C21.5051 26.4333 20.6079 25.5493 19.532 24.9352C18.4562 24.3211 17.2388 23.9982 16 23.9982C14.7612 23.9982 13.5438 24.3211 12.468 24.9352C11.3921 25.5493 10.4949 26.4333 9.865 27.5C9.80248 27.6195 9.71644 27.7251 9.61205 27.8105C9.50765 27.8959 9.38706 27.9593 9.25753 27.9969C9.12801 28.0344 8.99222 28.0454 8.85833 28.0292C8.72445 28.0129 8.59523 27.9697 8.47847 27.9022C8.3617 27.8347 8.2598 27.7443 8.17888 27.6364C8.09797 27.5285 8.03971 27.4054 8.00763 27.2744C7.97554 27.1434 7.97028 27.0072 7.99217 26.8742C8.01406 26.7411 8.06264 26.6138 8.135 26.5C9.1045 24.8342 10.5827 23.5233 12.3525 22.76C11.3567 21.9975 10.6248 20.9422 10.2597 19.7423C9.89471 18.5424 9.91487 17.2582 10.3174 16.0704C10.7199 14.8825 11.4846 13.8507 12.5038 13.1198C13.5231 12.389 14.7458 11.996 16 11.996C17.2542 11.996 18.4769 12.389 19.4962 13.1198C20.5154 13.8507 21.2801 14.8825 21.6826 16.0704C22.0851 17.2582 22.1053 18.5424 21.7402 19.7423C21.3752 20.9422 20.6433 21.9975 19.6475 22.76C21.4173 23.5233 22.8955 24.8342 23.865 26.5ZM16 22C16.7911 22 17.5645 21.7654 18.2223 21.3259C18.8801 20.8863 19.3928 20.2616 19.6955 19.5307C19.9983 18.7998 20.0775 17.9956 19.9231 17.2196C19.7688 16.4437 19.3878 15.731 18.8284 15.1716C18.269 14.6122 17.5563 14.2312 16.7804 14.0768C16.0044 13.9225 15.2002 14.0017 14.4693 14.3045C13.7384 14.6072 13.1136 15.1199 12.6741 15.7777C12.2346 16.4355 12 17.2089 12 18C12 19.0609 12.4214 20.0783 13.1716 20.8284C13.9217 21.5786 14.9391 22 16 22ZM9 15C9 14.7348 8.89464 14.4804 8.7071 14.2929C8.51957 14.1053 8.26521 14 8 14C7.43891 13.9999 6.88908 13.8425 6.41296 13.5457C5.93684 13.2488 5.55352 12.8243 5.30654 12.3205C5.05955 11.8167 4.95881 11.2538 5.01575 10.6956C5.07268 10.1374 5.28502 9.60633 5.62863 9.16277C5.97225 8.7192 6.43337 8.38089 6.95962 8.18626C7.48587 7.99163 8.05616 7.94848 8.60571 8.06172C9.15525 8.17495 9.66203 8.44004 10.0685 8.82685C10.4749 9.21367 10.7647 9.70672 10.905 10.25C10.9713 10.5069 11.137 10.727 11.3655 10.8618C11.5941 10.9966 11.8668 11.035 12.1237 10.9687C12.3807 10.9024 12.6007 10.7368 12.7355 10.5082C12.8703 10.2797 12.9088 10.0069 12.8425 9.74999C12.6478 8.99663 12.28 8.29911 11.7683 7.71293C11.2566 7.12675 10.6151 6.66808 9.89494 6.37343C9.17478 6.07877 8.39578 5.95627 7.61995 6.01565C6.84411 6.07504 6.09283 6.31468 5.42591 6.7155C4.75898 7.11633 4.1948 7.66728 3.77827 8.32451C3.36174 8.98175 3.10435 9.72712 3.02658 10.5013C2.94881 11.2755 3.05281 12.0572 3.3303 12.7842C3.60779 13.5111 4.05112 14.1633 4.625 14.6887C3.2666 15.278 2.08589 16.2123 1.2 17.3987C1.0407 17.6109 0.972216 17.8777 1.00961 18.1403C1.047 18.403 1.1872 18.6401 1.39937 18.7994C1.61155 18.9587 1.87831 19.0271 2.14098 18.9898C2.40365 18.9524 2.6407 18.8122 2.8 18.6C3.40273 17.7898 4.18727 17.1325 5.09045 16.6809C5.99363 16.2293 6.99022 15.9961 8 16C8.26521 16 8.51957 15.8946 8.7071 15.7071C8.89464 15.5196 9 15.2652 9 15Z" fill="black"/>
</svg>
