<svg width="24" height="24" viewBox="0 0 24 24" fill="none" xmlns="http://www.w3.org/2000/svg">
<path fill-rule="evenodd" clip-rule="evenodd" d="M12 15C15.3137 15 18 12.3137 18 9C18 5.68629 15.3137 3 12 3C8.68627 3 5.99998 5.68629 5.99998 9C5.99998 12.3137 8.68627 15 12 15ZM2.80081 19.6355C3.74535 18.2133 5.52543 16.0295 8.14103 14.8412C9.24735 15.5735 10.5739 16 12 16C13.4261 16 14.7526 15.5735 15.8589 14.8412C18.4745 16.0295 20.2546 18.2133 21.1991 19.6355C21.6057 20.2478 21.1512 21 20.4162 21H3.58374C2.84874 21 2.39417 20.2478 2.80081 19.6355Z" fill="black"/>
</svg>
