<svg width="32" height="32" viewBox="0 0 32 32" fill="none" xmlns="http://www.w3.org/2000/svg">
<path fill-rule="evenodd" clip-rule="evenodd" d="M22 12C22 15.3137 19.3137 18 16 18C12.6863 18 10 15.3137 10 12C10 8.68629 12.6863 6 16 6C19.3137 6 22 8.68629 22 12ZM19.1338 19.3629C21.9946 18.1438 24 15.3061 24 12C24 7.58172 20.4183 4 16 4C11.5817 4 8.00001 7.58172 8.00001 12C8.00001 15.3061 10.0055 18.1438 12.8662 19.3629C10.0776 20.024 7.89502 21.4897 6.32428 22.9295C5.26457 23.9009 4.47113 24.8708 3.94127 25.5993C3.67583 25.9643 3.47511 26.2707 3.33889 26.4892C3.27074 26.5985 3.21863 26.686 3.18253 26.7481C3.16448 26.7791 3.15042 26.8038 3.14035 26.8217L3.12824 26.8433L3.12443 26.8502L3.12308 26.8527L3.12255 26.8537C3.12232 26.8541 3.12211 26.8545 4.00001 27.3333L3.12211 26.8545C2.85765 27.3393 3.03631 27.9468 3.52115 28.2112C4.00579 28.4756 4.61291 28.2972 4.87755 27.8128L4.87763 27.8127L4.8831 27.8029C4.88865 27.7931 4.89803 27.7766 4.91123 27.7539C4.93763 27.7085 4.97927 27.6384 5.03612 27.5472C5.14991 27.3647 5.32418 27.0982 5.55874 26.7757C6.02888 26.1292 6.73545 25.2657 7.67573 24.4038C9.55795 22.6785 12.3279 21 16 21C19.6721 21 22.4421 22.6785 24.3243 24.4038C25.2646 25.2657 25.9711 26.1292 26.4413 26.7757C26.6758 27.0982 26.8501 27.3647 26.9639 27.5472C27.0207 27.6384 27.0624 27.7085 27.0888 27.7539C27.102 27.7766 27.1114 27.7931 27.1169 27.8029L27.1221 27.8122L27.1227 27.8132L27.1227 27.8134L27.1229 27.8136C27.3877 28.2974 27.9945 28.4754 28.4789 28.2112C28.9637 27.9468 29.1424 27.3393 28.8779 26.8545L28 27.3333C28.8779 26.8545 28.8777 26.8541 28.8775 26.8537L28.8769 26.8527L28.8756 26.8502L28.8718 26.8433L28.8597 26.8217C28.8496 26.8038 28.8355 26.7791 28.8175 26.7481C28.7814 26.686 28.7293 26.5985 28.6611 26.4892C28.5249 26.2707 28.3242 25.9643 28.0587 25.5993C27.5289 24.8708 26.7354 23.9009 25.6757 22.9295C24.105 21.4897 21.9224 20.024 19.1338 19.3629Z" fill="black"/>
</svg>
