<svg width="24" height="24" viewBox="0 0 24 24" fill="none" xmlns="http://www.w3.org/2000/svg">
<path fill-rule="evenodd" clip-rule="evenodd" d="M19.705 16.7121L19.7292 16.754L19.7554 16.7947C19.9068 17.0299 20 17.332 20 17.6554C20 18.5271 19.2349 19.2921 18.3613 19.2921H5.6357C5.0552 19.2921 4.50813 18.9763 4.21803 18.4734L4.21761 18.4727C3.92749 17.9702 3.92743 17.3388 4.21764 16.8361L4.21765 16.8361L10.5785 5.81942L10.5789 5.8188C10.8703 5.31519 11.4174 5 11.9972 5C12.5777 5 13.1247 5.3158 13.4148 5.8187L13.4152 5.81943L19.705 16.7121ZM11.9972 3C10.7023 3 9.49545 3.69691 8.84707 4.81836L2.48561 15.8361C1.83813 16.9575 1.83813 18.3514 2.48561 19.4728C3.1331 20.5952 4.34083 21.2921 5.6357 21.2921H18.3613C20.3369 21.2921 22 19.6342 22 17.6554C22 16.9576 21.8014 16.278 21.437 15.712L15.1472 4.81933C14.4997 3.69691 13.292 3 11.9972 3ZM12.9704 13.6436C12.9704 14.1786 12.5361 14.6138 12.0001 14.6138C11.4641 14.6138 11.0299 14.1796 11.0299 13.6426V8.85307C11.0299 8.31802 11.4641 7.88281 12.0001 7.88281C12.5352 7.88281 12.9704 8.31705 12.9704 8.85307V13.6436ZM11.1219 15.5453C11.3546 15.3146 11.6725 15.1828 12.0001 15.1828C12.3277 15.1828 12.6457 15.3146 12.8763 15.5453C13.109 15.776 13.2408 16.0959 13.2408 16.4235C13.2408 16.7511 13.109 17.069 12.8763 17.2997C12.6457 17.5304 12.3248 17.6642 12.0001 17.6642C11.6754 17.6642 11.3546 17.5304 11.1219 17.2997C10.8913 17.069 10.7594 16.7511 10.7594 16.4235C10.7594 16.0959 10.8913 15.776 11.1219 15.5453Z" fill="black"/>
</svg>
