<svg width="24" height="24" viewBox="0 0 24 24" fill="none" xmlns="http://www.w3.org/2000/svg">
<path fill-rule="evenodd" clip-rule="evenodd" d="M21.437 15.712L15.1472 4.81933C14.4997 3.69691 13.292 3 11.9972 3C10.7023 3 9.49545 3.69691 8.84707 4.81836L2.48561 15.8361C1.83813 16.9575 1.83813 18.3514 2.48561 19.4728C3.1331 20.5952 4.34083 21.2921 5.6357 21.2921H18.3613C18.3788 21.2921 18.3962 21.2921 18.3924 21.2911C20.3813 21.2766 22 19.6453 22 17.6554C22 16.9576 21.8014 16.278 21.437 15.712ZM12.9704 14.6437C12.9704 15.1788 12.5362 15.614 12.0001 15.614C11.4641 15.614 11.0299 15.1797 11.0299 14.6427V8.85323C11.0299 8.31817 11.4641 7.88296 12.0001 7.88296C12.5352 7.88296 12.9704 8.3172 12.9704 8.85323V14.6437ZM11.122 16.5455C11.3546 16.3148 11.6725 16.183 12.0001 16.183C12.3277 16.183 12.6457 16.3148 12.8763 16.5455C13.109 16.7761 13.2408 17.096 13.2408 17.4236C13.2408 17.7512 13.109 18.0692 12.8763 18.2999C12.6457 18.5306 12.3248 18.6643 12.0001 18.6643C11.6754 18.6643 11.3546 18.5305 11.122 18.2999C10.8913 18.0692 10.7594 17.7512 10.7594 17.4236C10.7594 17.096 10.8913 16.7761 11.122 16.5455Z" fill="black"/>
</svg>
