<svg width="24" height="24" viewBox="0 0 24 24" fill="none" xmlns="http://www.w3.org/2000/svg">
<g opacity="0.2">
<path d="M4 3C3.44772 3 3 3.44772 3 4V10C3 10.5523 3.44772 11 4 11H20C20.5523 11 21 10.5523 21 10V4C21 3.44772 20.5523 3 20 3H4Z" fill="black"/>
<path d="M4 13C3.44772 13 3 13.4477 3 14V20C3 20.5523 3.44772 21 4 21H20C20.5523 21 21 20.5523 21 20V14C21 13.4477 20.5523 13 20 13H4Z" fill="black"/>
</g>
<path d="M18 7C18 7.55228 17.5523 8 17 8C16.4477 8 16 7.55228 16 7C16 6.44772 16.4477 6 17 6C17.5523 6 18 6.44772 18 7Z" fill="black"/>
<path d="M6 6H11V8H6V6Z" fill="black"/>
<path fill-rule="evenodd" clip-rule="evenodd" d="M4 3C3.44772 3 3 3.44772 3 4V10C3 10.5523 3.44772 11 4 11H20C20.5523 11 21 10.5523 21 10V4C21 3.44772 20.5523 3 20 3H4ZM5 9V5H19V9H5Z" fill="black"/>
<path d="M17 18C17.5523 18 18 17.5523 18 17C18 16.4477 17.5523 16 17 16C16.4477 16 16 16.4477 16 17C16 17.5523 16.4477 18 17 18Z" fill="black"/>
<path d="M11 16H6V18H11V16Z" fill="black"/>
<path fill-rule="evenodd" clip-rule="evenodd" d="M4 13C3.44772 13 3 13.4477 3 14V20C3 20.5523 3.44772 21 4 21H20C20.5523 21 21 20.5523 21 20V14C21 13.4477 20.5523 13 20 13H4ZM5 19V15H19V19H5Z" fill="black"/>
</svg>
