<svg width="32" height="32" viewBox="0 0 32 32" fill="none" xmlns="http://www.w3.org/2000/svg">
<path fill-rule="evenodd" clip-rule="evenodd" d="M15 2H27C27.7957 2 28.5587 2.31607 29.1213 2.87868C29.6839 3.44129 30 4.20435 30 5V27C30 27.7956 29.6839 28.5587 29.1213 29.1213C28.5587 29.6839 27.7957 30 27 30H15C14.2044 30 13.4413 29.6839 12.8787 29.1213C12.3161 28.5587 12 27.7956 12 27V21H14V24H28V8H14V11H12V5C12 4.20435 12.3161 3.44129 12.8787 2.87868C13.4413 2.31607 14.2044 2 15 2ZM27 4H15C14.7348 4 14.4804 4.10536 14.2929 4.29289C14.1054 4.48043 14 4.73478 14 5V6H28V5C28 4.73478 27.8946 4.48043 27.7071 4.29289C27.5196 4.10536 27.2652 4 27 4ZM15 28H27C27.2652 28 27.5196 27.8946 27.7071 27.7071C27.8946 27.5196 28 27.2652 28 27V26H14V27C14 27.2652 14.1054 27.5196 14.2929 27.7071C14.4804 27.8946 14.7348 28 15 28Z" fill="black"/>
<path d="M13.7075 16.7089C13.8005 16.616 13.8742 16.5057 13.9246 16.3843C13.9749 16.2629 14.0008 16.1328 14.0008 16.0014C14.0008 15.87 13.9749 15.7399 13.9246 15.6185C13.8742 15.4971 13.8005 15.3868 13.7075 15.2939L7.7075 9.2939C7.51986 9.10626 7.26536 9.00084 7 9.00084C6.73464 9.00084 6.48014 9.10626 6.2925 9.2939C6.10486 9.48154 5.99944 9.73603 5.99944 10.0014C5.99944 10.2668 6.10486 10.5213 6.2925 10.7089L10.5863 15.0014H2C1.73478 15.0014 1.48043 15.1068 1.29289 15.2943C1.10536 15.4818 1 15.7362 1 16.0014C1 16.2666 1.10536 16.521 1.29289 16.7085C1.48043 16.896 1.73478 17.0014 2 17.0014H10.5863L6.2925 21.2939C6.10486 21.4815 5.99944 21.736 5.99944 22.0014C5.99944 22.2668 6.10486 22.5213 6.2925 22.7089C6.48014 22.8965 6.73464 23.002 7 23.002C7.26536 23.002 7.51986 22.8965 7.7075 22.7089L13.7075 16.7089Z" fill="black"/>
</svg>
