<svg width="24" height="24" viewBox="0 0 24 24" fill="none" xmlns="http://www.w3.org/2000/svg">
<path fill-rule="evenodd" clip-rule="evenodd" d="M22 3C22 2.73479 21.8946 2.48043 21.7071 2.29289C21.5196 2.10536 21.2652 2 21 2L15 2.00002C14.4477 2.00002 14 2.44773 14 3.00002C14 3.5523 14.4477 4.00002 15 4.00002L18.5858 4.00001L11.2929 11.2929C10.9024 11.6834 10.9024 12.3166 11.2929 12.7071C11.6834 13.0976 12.3166 13.0976 12.7071 12.7071L20 5.41422L20 9.00001C20 9.5523 20.4477 10 21 10C21.5523 10 22 9.5523 22 9.00002L22 3ZM6 2.00003H10V4.00003H6C4.89543 4.00003 4 4.89546 4 6.00003V18C4 19.1046 4.89543 20 6 20H18C19.1046 20 20 19.1046 20 18V14H22V18C22 20.2092 20.2091 22 18 22H6C3.79086 22 2 20.2092 2 18V6.00003C2 3.79089 3.79086 2.00003 6 2.00003Z" fill="black"/>
</svg>
