<svg width="24" height="24" viewBox="0 0 24 24" fill="none" xmlns="http://www.w3.org/2000/svg">
<path fill-rule="evenodd" clip-rule="evenodd" d="M12.6727 2.26006C12.2913 1.91331 11.7087 1.91331 11.3273 2.26006L7.32733 5.89642C6.91867 6.26793 6.88855 6.90038 7.26006 7.30904C7.63157 7.71769 8.26402 7.74781 8.67267 7.3763L11 5.26055V13C11 13.5523 11.4477 14 12 14C12.5523 14 13 13.5523 13 13V5.26055L15.3273 7.3763C15.736 7.74781 16.3684 7.71769 16.7399 7.30904C17.1114 6.90038 17.0813 6.26793 16.6727 5.89642L12.6727 2.26006ZM4 8C4 7.44772 3.55228 7 3 7C2.44772 7 2 7.44772 2 8V18C2 20.2091 3.79086 22 6 22H18C20.2091 22 22 20.2091 22 18V8.00001C22 7.44772 21.5523 7.00001 21 7.00001C20.4477 7.00001 20 7.44772 20 8.00001V18C20 19.1046 19.1046 20 18 20H6C4.89543 20 4 19.1046 4 18V8Z" fill="black"/>
</svg>
