<svg width="24" height="24" viewBox="0 0 24 24" fill="none" xmlns="http://www.w3.org/2000/svg">
<path fill-rule="evenodd" clip-rule="evenodd" d="M8.05572 14.6708C7.92943 15.0332 8.02158 15.4358 8.29289 15.7071C8.56421 15.9784 8.96684 16.0706 9.32916 15.9443L13.9345 14.339C14.0767 14.2894 14.2059 14.2083 14.3124 14.1018L22.2976 6.11665C22.4851 5.92912 22.5905 5.67476 22.5905 5.40954C22.5905 5.14433 22.4851 4.88997 22.2976 4.70244L19.2975 1.70245C18.907 1.31193 18.2739 1.31193 17.8833 1.70245L9.89822 9.68757C9.7917 9.79408 9.71063 9.92328 9.66105 10.0655L8.05572 14.6708ZM12.0195 10.3947L13.6053 11.9805L20.1762 5.40955L18.5904 3.82377L12.0195 10.3947ZM11.7714 12.9749L11.0251 12.2286L10.6257 13.3743L11.7714 12.9749ZM6 2H10V4H6C4.89543 4 4 4.89543 4 6V18C4 19.1046 4.89543 20 6 20H18C19.1046 20 20 19.1046 20 18V14H22V18C22 20.2091 20.2091 22 18 22H6C3.79086 22 2 20.2091 2 18V6C2 3.79086 3.79086 2 6 2Z" fill="black"/>
</svg>
