<svg width="24" height="24" viewBox="0 0 24 24" fill="none" xmlns="http://www.w3.org/2000/svg">
<path d="M18.5091 16.1597C18.6047 16.935 18.7003 19.2835 16.9603 22.1381L16.9613 22.139C16.6059 22.1334 16.2572 22.0537 15.9356 21.9056C16.2535 21.4396 16.5366 20.9521 16.7831 20.4449C16.8488 20.309 16.8563 20.1515 16.8056 20.009C16.7541 19.8674 16.6481 19.7512 16.5103 19.6884C16.3734 19.6256 16.2159 19.6209 16.0753 19.6743C15.9338 19.7287 15.8203 19.8375 15.7603 19.9762C15.5062 20.4899 15.2128 20.9831 14.8828 21.4518C14.5125 21.2774 14.1066 21.074 13.6716 20.8453L13.6725 20.8462C14.3925 20.1065 14.9756 19.2449 15.3966 18.3017C15.4528 18.163 15.4519 18.0064 15.3928 17.8686C15.3338 17.7308 15.2222 17.6211 15.0825 17.5658C14.9428 17.5105 14.7872 17.5142 14.6494 17.5742C14.5116 17.6342 14.4038 17.7477 14.3503 17.8873C13.9331 18.7855 13.3556 19.6002 12.645 20.2902C11.6137 19.7184 10.4728 19.048 9.29723 18.3243C10.2732 17.788 11.2069 17.1805 12.092 16.5055C12.333 16.3087 12.3676 15.9543 12.1708 15.7143C11.9739 15.4743 11.6195 15.4387 11.3786 15.6355C10.3736 16.3837 9.31327 17.0549 8.20699 17.6446C7.5526 17.2321 6.89447 16.8083 6.24573 16.3799C8.29511 15.8315 10.2057 14.8584 11.8548 13.5244L18.5091 16.1597ZM17.9803 12.3929L17.6335 12.255H17.6325L15.1473 11.2707L14.8004 11.1328V11.1338C14.3073 10.9388 13.7458 11.1 13.4326 11.5275L12.6311 12.6216L18.543 14.9625L18.7071 13.6163V13.6172C18.7718 13.0913 18.4727 12.5878 17.9805 12.3928L17.9803 12.3929ZM20.7178 2.32318C20.5931 2.0363 20.3081 1.85162 19.995 1.8563C19.6818 1.86098 19.4034 2.05412 19.2881 2.34569L16.0846 10.4325L17.5236 11.0025L20.7271 2.91569C20.8031 2.72444 20.7993 2.51162 20.7178 2.32318H20.7178ZM8.40192 19.877C8.32786 19.8236 6.56254 18.5758 4.73712 19.5423C4.46244 19.6876 4.35838 20.028 4.50368 20.3027C4.64899 20.5774 4.9893 20.6814 5.264 20.5361C6.464 19.9005 7.69304 20.7536 7.7456 20.7911C7.99873 20.972 8.34935 20.9148 8.53122 20.6617C8.71216 20.4095 8.65403 20.058 8.40185 19.877L8.40192 19.877ZM5.54352 18.8401C5.82571 18.8401 6.06478 18.6301 6.10133 18.3498C6.13696 18.0695 5.9607 17.8061 5.68695 17.7339L3.92539 17.2661C3.62539 17.1864 3.31695 17.3645 3.23727 17.6655C3.15758 17.9655 3.33664 18.273 3.63665 18.3536L5.3982 18.8214V18.8205C5.44601 18.8336 5.49476 18.8401 5.54351 18.8401L5.54352 18.8401Z" fill="black"/>
</svg>
