<svg width="24" height="24" viewBox="0 0 24 24" fill="none" xmlns="http://www.w3.org/2000/svg">
<path fill-rule="evenodd" clip-rule="evenodd" d="M3 3C3.55228 3 4 3.44772 4 4V12.5L8.4 9.2C8.73919 8.94561 9.20193 8.93277 9.5547 9.16795L14.9334 12.7538L20.3598 8.23178C20.7841 7.87821 21.4147 7.93554 21.7682 8.35982C22.1218 8.78409 22.0645 9.41466 21.6402 9.76822L15.6402 14.7682C15.3 15.0517 14.8138 15.0777 14.4453 14.8321L9.03399 11.2245L4 15V19H21C21.5523 19 22 19.4477 22 20C22 20.5523 21.5523 21 21 21H3C2.44772 21 2 20.5523 2 20V4C2 3.44772 2.44772 3 3 3Z" fill="black"/>
</svg>
