<svg width="24" height="24" viewBox="0 0 24 24" fill="none" xmlns="http://www.w3.org/2000/svg">
<path d="M10.2181 4.10737C11.9188 3.72311 13.6982 3.89892 15.2909 4.60857C15.7954 4.83335 16.3865 4.60661 16.6113 4.10214C16.8361 3.59767 16.6094 3.00649 16.1049 2.78171C14.1183 1.89653 11.8987 1.67724 9.7773 2.15655C7.65588 2.63585 5.74622 3.78808 4.33314 5.44138C2.92006 7.09468 2.07927 9.16047 1.93617 11.3307C1.79307 13.5009 2.35532 15.6592 3.53907 17.4837C4.72282 19.3082 6.46465 20.7012 8.50477 21.455C10.5449 22.2087 12.774 22.2827 14.8597 21.6661C16.9453 21.0494 18.7757 19.7751 20.078 18.0331C21.3802 16.2912 22.0845 14.1749 22.0857 12V11.1636C22.0857 10.6113 21.638 10.1636 21.0857 10.1636C20.5334 10.1636 20.0857 10.6113 20.0857 11.1636V11.9989C20.0847 13.7425 19.5201 15.4391 18.4761 16.8356C17.4321 18.2321 15.9646 19.2538 14.2926 19.7481C12.6205 20.2425 10.8334 20.1832 9.19788 19.5789C7.56231 18.9746 6.16589 17.8579 5.21688 16.3951C4.26787 14.9324 3.81711 13.2021 3.93184 11.4623C4.04656 9.72242 4.72062 8.06628 5.85348 6.74082C6.98635 5.41537 8.51732 4.49163 10.2181 4.10737Z" fill="black"/>
<path d="M21.7932 5.43767C22.1835 5.04696 22.1832 4.41379 21.7924 4.02346C21.4017 3.63313 20.7686 3.63345 20.3782 4.02417L11.9996 12.4111L9.9814 10.3929C9.59088 10.0024 8.95771 10.0024 8.56719 10.3929C8.17666 10.7834 8.17666 11.4166 8.56719 11.8071L11.2929 14.5328C11.4805 14.7204 11.7349 14.8258 12.0003 14.8257C12.2656 14.8256 12.52 14.7201 12.7075 14.5325L21.7932 5.43767Z" fill="black"/>
</svg>
