<svg width="24" height="24" viewBox="0 0 24 24" fill="none" xmlns="http://www.w3.org/2000/svg">
<path fill-rule="evenodd" clip-rule="evenodd" d="M14.9774 6.21051C15.1521 5.68656 14.856 5.16755 14.3161 5.05126C13.7762 4.93497 13.1969 5.26544 13.0223 5.78939L9.02227 17.7894C8.84762 18.3133 9.14372 18.8323 9.68362 18.9486C10.2235 19.0649 10.8028 18.7345 10.9774 18.2105L14.9774 6.21051ZM7.70711 7.29284C8.09763 7.68336 8.09763 8.31653 7.70711 8.70705L4.41421 11.9999L7.70711 15.2928C8.09763 15.6834 8.09763 16.3165 7.70711 16.7071C7.31658 17.0976 6.68342 17.0976 6.29289 16.7071L2.29289 12.7071C2.10536 12.5195 2 12.2652 2 11.9999C2 11.7347 2.10536 11.4804 2.29289 11.2928L6.29289 7.29284C6.68342 6.90232 7.31658 6.90232 7.70711 7.29284ZM16.2927 7.29284C15.9022 7.68336 15.9022 8.31653 16.2927 8.70705L19.5856 11.9999L16.2927 15.2928C15.9022 15.6834 15.9022 16.3165 16.2927 16.7071C16.6833 17.0976 17.3164 17.0976 17.707 16.7071L21.707 12.7071C21.8945 12.5195 21.9998 12.2652 21.9998 11.9999C21.9998 11.7347 21.8945 11.4804 21.707 11.2928L17.707 7.29284C17.3164 6.90232 16.6833 6.90232 16.2927 7.29284Z" fill="black"/>
</svg>
