<svg width="24" height="24" viewBox="0 0 24 24" fill="none" xmlns="http://www.w3.org/2000/svg">
<path fill-rule="evenodd" clip-rule="evenodd" d="M6 6.24C6 6.10687 6.08647 6 6.19185 6H21.8081C21.9135 6 22 6.10687 22 6.24V7.425L14 14.535L6 7.425V6.24ZM6 10V8.58744L10.2733 12.3823L6 17.3474V15H2.5C2.22386 15 2 14.7761 2 14.5C2 14.2239 2.22386 14 2.5 14H6V13H1.5C1.22386 13 1 12.7761 1 12.5C1 12.2239 1.22386 12 1.5 12H6V11H3.5C3.22386 11 3 10.7761 3 10.5C3 10.2239 3.22386 10 3.5 10H6ZM17.7267 12.3823L22 8.58744V17.3474L17.7267 12.3823ZM6.55237 18L10.9012 12.9374L13.7907 15.51C13.9172 15.6206 14.0828 15.6206 14.2093 15.51L17.0988 12.9374L21.4476 18H6.55237Z" fill="black"/>
</svg>
