<svg width="24" height="24" viewBox="0 0 24 24" fill="none" xmlns="http://www.w3.org/2000/svg">
<path fill-rule="evenodd" clip-rule="evenodd" d="M4.12132 2.29289C3.7308 1.90237 3.09763 1.90237 2.70711 2.29289C2.31658 2.68342 2.31658 3.31658 2.70711 3.70711L5.963 6.963C5.23916 7.44322 4.58413 7.97161 4.00492 8.5C3.11701 9.31001 2.40776 10.1196 1.90236 10.7548L1.89943 10.7585C1.31295 11.496 1 12 1 12C1 12 1.31298 12.5041 1.89953 13.2416L1.90236 13.2452C2.40776 13.8804 3.11701 14.69 4.00492 15.5C5.92431 17.251 8.67417 19 12 19C13.5389 19 14.9545 18.6255 16.2213 18.0498C16.394 17.9713 16.5638 17.8891 16.7309 17.8036C16.7469 17.7954 16.7629 17.7872 16.7789 17.7789L21.2929 22.2929C21.6834 22.6834 22.3166 22.6834 22.7071 22.2929C23.0976 21.9024 23.0976 21.2692 22.7071 20.8787L4.12132 2.29289ZM15.2798 16.2798L14.2826 15.2826C14.2748 15.2881 14.267 15.2935 14.2591 15.2989C14.102 15.4077 13.9363 15.5056 13.763 15.5914C13.2375 15.8515 12.6417 16 12 16C10.8513 16 9.84933 15.524 9.13551 14.7842C8.88215 14.5216 8.66508 14.2258 8.49065 13.9062C8.17594 13.3295 8 12.6756 8 12C8 11.3817 8.14738 10.7815 8.41365 10.2421C8.43822 10.1923 8.46379 10.1431 8.49036 10.0944C8.56047 9.96587 8.63748 9.8412 8.72097 9.72097L7.4105 8.4105C7.28022 8.49078 7.15171 8.57346 7.02502 8.65828C6.98607 8.68436 6.94729 8.71064 6.90868 8.73711C6.35248 9.11852 5.8324 9.54005 5.35283 9.97755C4.89747 10.393 4.49323 10.8098 4.14528 11.1979C3.88685 11.4861 3.66022 11.7577 3.46744 12C3.49218 12.0311 3.51745 12.0626 3.54325 12.0946C3.99266 12.6515 4.60354 13.3389 5.35283 14.0225C5.86648 14.491 6.4266 14.9413 7.02781 15.3436C8.47277 16.3104 10.1551 17 12 17C13.1643 17 14.2638 16.7254 15.2798 16.2798ZM10.1801 11.1801C10.0641 11.4335 10 11.7122 10 12C10 13.0616 10.8729 14 12 14C12.2924 14 12.5677 13.9369 12.815 13.8248C12.8173 13.8238 12.8195 13.8228 12.8217 13.8217L10.1801 11.1801ZM19.9951 8.5C20.883 9.31001 21.5922 10.1196 22.0976 10.7548C22.686 11.4943 23 12 23 12C23 12 22.7839 12.3481 22.3742 12.889C22.292 12.9975 22.202 13.1139 22.1044 13.2367L22.0976 13.2452C21.8306 13.5808 21.5082 13.9632 21.1341 14.3675L21.0813 14.4244L19.6661 13.0092L19.7216 12.949C20.0357 12.6063 20.3071 12.2833 20.5325 12L20.5326 12C20.5078 11.9689 20.4826 11.9374 20.4567 11.9054C20.0073 11.3485 19.3965 10.6611 18.6472 9.97755C17.337 8.7823 15.7244 7.70615 13.8988 7.24196L12 5.34315L11.6628 5.00599C11.7746 5.00202 11.8869 5 12 5C13.041 5 14.0255 5.17135 14.9457 5.46043C15.4562 5.62079 15.9469 5.81738 16.4165 6.04105C17.7871 6.69389 18.9778 7.57739 19.9555 8.46397L19.9951 8.5Z" fill="black"/>
</svg>
