<svg width="24" height="24" viewBox="0 0 24 24" fill="none" xmlns="http://www.w3.org/2000/svg">
<g clip-path="url(#clip0_2272_164453)">
<rect y="4" width="24" height="16" fill="#0A17A7"/>
<path fill-rule="evenodd" clip-rule="evenodd" d="M-1.09929 2.4668L9.14283 8.91463V2.93325H14.8571V8.91473L25.0992 2.46689L26.3774 4.2355L18.2798 9.33325H24V14.6666H18.2796L26.3774 19.7645L25.0992 21.5331L14.8571 15.0853V21.0666H9.14283V15.0854L-1.09928 21.5332L-2.37744 19.7646L5.72053 14.6666H-2.76566e-05V9.33325H5.72026L-2.37744 4.23541L-1.09929 2.4668Z" fill="white"/>
<path d="M17 9L23 5" stroke="#DB1F35" stroke-width="0.666667" stroke-linecap="round"/>
<path d="M17 15L23 19" stroke="#DB1F35" stroke-width="0.666667" stroke-linecap="round"/>
<path d="M7 9L1 5" stroke="#DB1F35" stroke-width="0.666667" stroke-linecap="round"/>
<path d="M7 15L1 19" stroke="#DB1F35" stroke-width="0.666667" stroke-linecap="round"/>
<path fill-rule="evenodd" clip-rule="evenodd" d="M0 13.6H10.2857V20H13.7143V13.6H24V10.4H13.7143V4H10.2857V10.4H0V13.6Z" fill="#E6273E"/>
</g>
<defs>
<clipPath id="clip0_2272_164453">
<rect y="4" width="24" height="16" rx="2" fill="white"/>
</clipPath>
</defs>
</svg>
