<svg width="24" height="24" viewBox="0 0 24 24" fill="none" xmlns="http://www.w3.org/2000/svg">
<g clip-path="url(#clip0_2272_164470)">
<rect y="4" width="24" height="17.1429" fill="#F1361D"/>
<path fill-rule="evenodd" clip-rule="evenodd" d="M8.63367 6.65775L9.46376 6.79927L10.0863 7.36626L10.2279 6.53617L10.7949 5.91359L9.96476 5.77207L9.34218 5.20508L9.20066 6.03517L8.63367 6.65775ZM10.8571 9.56112L11.5764 9.12334L12.4183 9.14281L11.9805 8.42348L12 7.58164L11.2806 8.01942L10.4388 7.99995L10.8766 8.71928L10.8571 9.56112ZM9.88133 14.2607L9.17772 14.7233L9.1678 13.8813L8.70518 13.1777L9.54719 13.1678L10.2508 12.7052L10.2607 13.5472L10.7233 14.2508L9.88133 14.2607ZM10.4924 12.084L11.3293 11.9913L12.0841 12.3647L11.9913 11.5278L12.3647 10.773L11.5278 10.8658L10.773 10.4924L10.8658 11.3293L10.4924 12.084Z" fill="#FFDC42"/>
<path fill-rule="evenodd" clip-rule="evenodd" d="M5.71428 11.0514L3.69901 12.488L4.44258 10.1274L2.45351 8.65473L4.92832 8.63244L5.71428 6.28564L6.50023 8.63244L8.97504 8.65473L6.98598 10.1274L7.72954 12.488L5.71428 11.0514Z" fill="#FFDC42"/>
</g>
<defs>
<clipPath id="clip0_2272_164470">
<rect y="4" width="24" height="16" rx="2" fill="white"/>
</clipPath>
</defs>
</svg>
