<svg width="32" height="32" viewBox="0 0 32 32" fill="none" xmlns="http://www.w3.org/2000/svg">
<path d="M27 16.27C27.005 16.09 27.005 15.91 27 15.73L28.865 13.4C28.9628 13.2777 29.0305 13.1341 29.0626 12.9808C29.0947 12.8275 29.0904 12.6688 29.05 12.5175C28.7437 11.3684 28.2864 10.2651 27.69 9.23625C27.6118 9.10165 27.5033 8.98715 27.3731 8.90186C27.2429 8.81658 27.0946 8.76287 26.94 8.745L23.975 8.415C23.8517 8.285 23.7267 8.16 23.6 8.04L23.25 5.0675C23.232 4.91277 23.1781 4.76438 23.0926 4.63416C23.0071 4.50395 22.8923 4.39551 22.7575 4.3175C21.7288 3.72156 20.6253 3.26506 19.4762 2.96C19.3249 2.91958 19.1662 2.91526 19.013 2.94739C18.8597 2.97952 18.7161 3.04721 18.5937 3.145L16.27 5C16.09 5 15.91 5 15.73 5L13.4 3.13875C13.2777 3.04096 13.1341 2.97327 12.9808 2.94114C12.8275 2.90901 12.6688 2.91332 12.5175 2.95375C11.3684 3.26003 10.2651 3.71735 9.23625 4.31375C9.10164 4.39191 8.98714 4.50041 8.90186 4.63061C8.81658 4.76082 8.76286 4.90913 8.745 5.06375L8.415 8.03375C8.285 8.15792 8.16 8.28292 8.04 8.40875L5.0675 8.75C4.91276 8.768 4.76437 8.8219 4.63416 8.90741C4.50395 8.99292 4.39551 9.10766 4.3175 9.2425C3.72168 10.2715 3.26479 11.3748 2.95875 12.5238C2.91849 12.6752 2.91438 12.8339 2.94673 12.9872C2.97908 13.1405 3.04699 13.284 3.145 13.4062L5 15.73C5 15.91 5 16.09 5 16.27L3.13875 18.6C3.04096 18.7223 2.97327 18.8659 2.94114 19.0192C2.909 19.1725 2.91332 19.3312 2.95375 19.4825C3.26003 20.6316 3.71735 21.7349 4.31375 22.7638C4.3919 22.8984 4.5004 23.0129 4.63061 23.0981C4.76081 23.1834 4.90913 23.2371 5.06375 23.255L8.02875 23.585C8.15291 23.715 8.27791 23.84 8.40375 23.96L8.75 26.9325C8.768 27.0872 8.8219 27.2356 8.90741 27.3658C8.99291 27.496 9.10766 27.6045 9.2425 27.6825C10.2715 28.2783 11.3748 28.7352 12.5237 29.0413C12.6752 29.0815 12.8339 29.0856 12.9872 29.0533C13.1405 29.0209 13.284 28.953 13.4062 28.855L15.73 27C15.91 27.005 16.09 27.005 16.27 27L18.6 28.865C18.7223 28.9628 18.8659 29.0305 19.0192 29.0626C19.1725 29.0947 19.3312 29.0904 19.4825 29.05C20.6317 28.7443 21.7352 28.2869 22.7637 27.69C22.8983 27.6118 23.0128 27.5033 23.0981 27.3731C23.1834 27.2429 23.2371 27.0946 23.255 26.94L23.585 23.975C23.715 23.8517 23.84 23.7267 23.96 23.6L26.9325 23.25C27.0872 23.232 27.2356 23.1781 27.3658 23.0926C27.496 23.0071 27.6045 22.8923 27.6825 22.7575C28.2783 21.7285 28.7352 20.6252 29.0412 19.4762C29.0815 19.3248 29.0856 19.1661 29.0533 19.0128C29.0209 18.8595 28.953 18.716 28.855 18.5938L27 16.27ZM16 21C15.0111 21 14.0444 20.7068 13.2221 20.1573C12.3999 19.6079 11.759 18.827 11.3806 17.9134C11.0022 16.9998 10.9031 15.9945 11.0961 15.0245C11.289 14.0546 11.7652 13.1637 12.4645 12.4645C13.1637 11.7652 14.0546 11.289 15.0245 11.0961C15.9944 10.9031 16.9998 11.0022 17.9134 11.3806C18.827 11.759 19.6079 12.3999 20.1573 13.2221C20.7068 14.0444 21 15.0111 21 16C21 17.3261 20.4732 18.5979 19.5355 19.5355C18.5978 20.4732 17.3261 21 16 21Z" fill="#343330"/>
</svg>
