<svg width="24" height="24" viewBox="0 0 24 24" fill="none" xmlns="http://www.w3.org/2000/svg">
<path fill-rule="evenodd" clip-rule="evenodd" d="M8.30446 13.5304C7.45906 11.4894 8.42826 9.14956 10.4692 8.30415C12.5102 7.45875 14.8501 8.42796 15.6955 10.4689C16.5409 12.5099 15.5717 14.8498 13.5307 15.6952C11.4897 16.5406 9.14986 15.5714 8.30446 13.5304ZM11.2346 10.1519C10.2141 10.5746 9.72952 11.7446 10.1522 12.765C10.5749 13.7855 11.7449 14.2701 12.7653 13.8474C13.7858 13.4247 14.2704 12.2548 13.8477 11.2343C13.425 10.2138 12.2551 9.72921 11.2346 10.1519Z" fill="black"/>
<path fill-rule="evenodd" clip-rule="evenodd" d="M7.95207 3.93484C7.3744 4.17412 7.00575 4.74663 7.02696 5.37154L7.08513 7.08522L5.37201 7.02707C4.7471 7.00586 4.17459 7.37451 3.93531 7.95219L3.43514 9.1597C3.19586 9.73737 3.34002 10.4029 3.79689 10.8297L5.04916 11.9998L3.79673 13.17C3.33985 13.5969 3.1957 14.2624 3.43498 14.8401L3.93514 16.0476C4.17442 16.6253 4.74694 16.9939 5.37185 16.9727L7.08549 16.9145L7.02731 18.6287C7.0061 19.2536 7.37475 19.8261 7.95242 20.0654L9.15993 20.5656C9.7376 20.8049 10.4031 20.6607 10.83 20.2038L12.0006 18.951L13.1703 20.2029C13.5972 20.6598 14.2627 20.8039 14.8404 20.5647L16.0479 20.0645C16.6256 19.8252 16.9942 19.2527 16.973 18.6278L16.9149 16.915L18.6283 16.9731C19.2532 16.9943 19.8257 16.6257 20.065 16.048L20.5651 14.8405C20.8044 14.2628 20.6603 13.5973 20.2034 13.1704L18.9505 11.9998L20.2032 10.8293C20.6601 10.4025 20.8043 9.73695 20.565 9.15928L20.0648 7.95177C19.8255 7.3741 19.253 7.00545 18.6281 7.02666L16.9152 7.0848L16.9733 5.37245C16.9946 4.74754 16.6259 4.17502 16.0482 3.93574L14.8407 3.43558C14.263 3.1963 13.5975 3.34045 13.1707 3.79733L12.0006 5.04964L10.8296 3.79642C10.4028 3.33955 9.73725 3.19539 9.15958 3.43467L7.95207 3.93484ZM11.9925 6.43351C11.5759 6.45857 11.1576 6.52432 10.7428 6.63299L9.60482 5.41503L9.03756 5.65L9.09411 7.3159C8.72279 7.53303 8.37944 7.78328 8.06632 8.06121C7.78654 8.37573 7.53471 8.72083 7.31637 9.09422L5.65047 9.03768L5.4155 9.60494L6.63346 10.7429C6.52402 11.1606 6.45811 11.5819 6.43345 12.0014C6.45826 12.4199 6.52412 12.8402 6.63329 13.2568L5.41534 14.3948L5.6503 14.9621L7.31622 14.9055C7.53459 15.279 7.78646 15.6241 8.06629 15.9387C8.37951 16.2167 8.72298 16.4671 9.09445 16.6843L9.03791 18.3502L9.60517 18.5852L10.7432 17.3673C11.1578 17.4759 11.576 17.5417 11.9925 17.5667C12.414 17.5424 12.8374 17.4763 13.2571 17.3664L14.3951 18.5843L14.9624 18.3493L14.9058 16.6834C15.2792 16.4651 15.6242 16.2133 15.9387 15.9336C16.2166 15.6205 16.4668 15.2772 16.6839 14.906L18.3498 14.9625L18.5848 14.3952L17.3668 13.2573C17.476 12.8405 17.5419 12.4201 17.5667 12.0014C17.542 11.5818 17.4761 11.1603 17.3667 10.7425L18.5846 9.60452L18.3496 9.03726L16.6837 9.0938C16.4667 8.72259 16.2165 8.37933 15.9387 8.06628C15.6243 7.78669 15.2794 7.53502 14.9062 7.31681L14.9627 5.6509L14.3955 5.41594L13.2575 6.6339C12.8377 6.52389 12.4141 6.45787 11.9925 6.43351Z" fill="black"/>
</svg>
