<svg width="24" height="24" viewBox="0 0 24 24" fill="none" xmlns="http://www.w3.org/2000/svg">
<path fill-rule="evenodd" clip-rule="evenodd" d="M3.00008 22L3 9.97417C3 9.35698 3.28495 8.77836 3.77213 8.39944L10.7722 2.95501C11.4944 2.39329 12.5057 2.39329 13.228 2.95502L20.2279 8.39947C20.7151 8.77838 21 9.35663 21 9.9738V22L15 22.0003V15.9997C15 14.8951 14.1046 13.9997 13 13.9997H11C9.89543 13.9997 9 14.8951 9 15.9997V21.9994L3.00008 22ZM5.00006 19.9998L7 19.9996V15.9997C7 13.7905 8.79086 11.9997 11 11.9997H13C15.2091 11.9997 17 13.7905 17 15.9997V20.0002L19 20.0001L19 9.97817L12.0001 4.53372L5 9.97816L5.00006 19.9998Z" fill="black"/>
</svg>
