<svg width="24" height="24" viewBox="0 0 24 24" fill="none" xmlns="http://www.w3.org/2000/svg">
<path d="M20.2279 8.39947C20.7151 8.77838 21 9.35663 21 9.9738C21 13.2529 21 22 21 22C21 22 16.202 22.0003 15 22.0003V15.9997C15 14.8951 14.1046 13.9997 13 13.9997H11C9.89543 13.9997 9 14.8951 9 15.9997V21.9994C8.07035 21.9995 3.00008 22 3.00008 22C3.00008 22 3.00002 13.4335 3 9.97417C3 9.35698 3.28495 8.77836 3.77213 8.39945L10.7722 2.95501C11.4944 2.39329 12.5057 2.39329 13.228 2.95502L20.2279 8.39947Z" fill="black"/>
</svg>
