<svg width="24" height="24" viewBox="0 0 24 24" fill="none" xmlns="http://www.w3.org/2000/svg">
<path fill-rule="evenodd" clip-rule="evenodd" d="M12 20C16.4183 20 20 16.4183 20 12C20 7.58172 16.4183 4 12 4C7.58172 4 4 7.58172 4 12C4 16.4183 7.58172 20 12 20ZM12 22C17.5228 22 22 17.5228 22 12C22 6.47715 17.5228 2 12 2C6.47715 2 2 6.47715 2 12C2 17.5228 6.47715 22 12 22ZM12.0112 8.48864C11.6703 8.48864 11.3768 8.36742 11.1305 8.125C10.8843 7.88258 10.7612 7.58712 10.7612 7.23864C10.7612 6.89773 10.8843 6.60606 11.1305 6.36364C11.3768 6.12121 11.6703 6 12.0112 6C12.3484 6 12.64 6.12121 12.8862 6.36364C13.1362 6.60606 13.2612 6.89773 13.2612 7.23864C13.2612 7.4697 13.2025 7.67992 13.0851 7.86932C12.9715 8.05871 12.8199 8.21023 12.6305 8.32386C12.4449 8.43371 12.2385 8.48864 12.0112 8.48864ZM11.2 10C11.0895 10 11 10.0895 11 10.2V17.8C11 17.9105 11.0895 18 11.2 18H12.8C12.9105 18 13 17.9105 13 17.8V10.2C13 10.0895 12.9105 10 12.8 10H11.2Z" fill="black"/>
</svg>
