<svg width="24" height="24" viewBox="0 0 24 24" fill="none" xmlns="http://www.w3.org/2000/svg">
<path fill-rule="evenodd" clip-rule="evenodd" d="M14.8284 12.0005L16.2426 13.4147L19.071 10.5863C20.6331 9.02414 20.6331 6.49148 19.071 4.92939C17.509 3.36729 14.9763 3.36729 13.4142 4.92939L10.5858 7.75781L12 9.17203L14.8284 6.3436C15.6095 5.56255 16.8758 5.56255 17.6568 6.3436C18.4379 7.12465 18.4379 8.39098 17.6568 9.17203L14.8284 12.0005ZM12 14.8286L13.4142 16.2428L10.5858 19.0712C9.02372 20.6333 6.49106 20.6333 4.92896 19.0712C3.36686 17.5091 3.36686 14.9765 4.92896 13.4144L7.75739 10.5859L9.1716 12.0001L6.34317 14.8286C5.56212 15.6096 5.56212 16.8759 6.34317 17.657C7.12422 18.438 8.39055 18.438 9.1716 17.657L12 14.8286ZM14.8285 9.1718C15.219 9.56232 15.219 10.1955 14.8285 10.586L10.5858 14.8286C10.1953 15.2191 9.56208 15.2191 9.17156 14.8286C8.78103 14.4381 8.78103 13.8049 9.17156 13.4144L13.4142 9.1718C13.8048 8.78127 14.4379 8.78127 14.8285 9.1718Z" fill="black"/>
</svg>
