<svg width="24" height="24" viewBox="0 0 24 24" fill="none" xmlns="http://www.w3.org/2000/svg">
<path fill-rule="evenodd" clip-rule="evenodd" d="M18 3.06348C17.478 3.06348 16.9651 3.19967 16.5119 3.45859C16.0586 3.71751 15.6808 4.0902 15.4157 4.53985C15.1506 4.98949 15.0074 5.50052 15.0003 6.02244C14.9934 6.52804 15.1144 7.02691 15.3516 7.47282L18 11.2562L20.6484 7.47282C20.8856 7.02691 21.0066 6.52804 20.9997 6.02244C20.9926 5.50052 20.8494 4.98949 20.5843 4.53985C20.3192 4.0902 19.9414 3.71751 19.4881 3.45859C19.0349 3.19967 18.522 3.06348 18 3.06348ZM15.5198 1.722C16.2751 1.29046 17.13 1.06348 18 1.06348C18.87 1.06348 19.7249 1.29046 20.4802 1.722C21.2356 2.15353 21.8653 2.77469 22.3071 3.52409C22.749 4.2735 22.9876 5.12521 22.9995 5.99509C23.0114 6.86496 22.7962 7.72288 22.375 8.48409C22.358 8.51483 22.3394 8.54465 22.3192 8.57343L18.8192 13.5734C18.6321 13.8408 18.3263 14 18 14C17.6737 14 17.3679 13.8408 17.1808 13.5734L13.6808 8.57343C13.6606 8.54465 13.642 8.51483 13.625 8.48409C13.2038 7.72288 12.9886 6.86496 13.0005 5.99509C13.0124 5.12521 13.251 4.2735 13.6929 3.52409C14.1347 2.77469 14.7644 2.15353 15.5198 1.722ZM18 5C18.5523 5 19 5.44772 19 6V6.01C19 6.56228 18.5523 7.01 18 7.01C17.4477 7.01 17 6.56228 17 6.01V6C17 5.44772 17.4477 5 18 5ZM9.00001 3C9.16796 3 9.32624 3.04141 9.4652 3.11457L10.9472 3.85557C11.4412 4.10256 11.6414 4.70324 11.3944 5.19721C11.1474 5.69119 10.5468 5.89142 10.0528 5.64443L10 5.61803V16.382L14 18.382V15C14 14.4477 14.4477 14 15 14C15.5523 14 16 14.4477 16 15V18.382L20 16.382V15C20 14.4477 20.4477 14 21 14C21.5523 14 22 14.4477 22 15V17C22 17.3788 21.786 17.725 21.4472 17.8944L15.4652 20.8854C15.3342 20.9544 15.186 20.9952 15.0287 20.9996C15.0192 20.9999 15.0096 21 15 21C14.9868 21 14.9737 20.9997 14.9605 20.9992C14.8072 20.9933 14.6628 20.9528 14.5348 20.8854L9 18.118L3.44721 20.8944C3.13723 21.0494 2.76909 21.0329 2.47427 20.8507C2.17945 20.6684 2 20.3466 2 20V7C2 6.62123 2.214 6.27496 2.55279 6.10557L8.5348 3.11457C8.67376 3.04141 8.83205 3 9 3H9.00001ZM8 16.382L4 18.382V7.61803L8 5.61803V16.382Z" fill="black"/>
</svg>
