<svg width="32" height="32" viewBox="0 0 32 32" fill="none" xmlns="http://www.w3.org/2000/svg">
<path fill-rule="evenodd" clip-rule="evenodd" d="M7 13C7 8.02944 11.0294 4 16 4C20.9706 4 25 8.02944 25 13C25 15.6655 23.8412 18.0604 22 19.7083V29.0003C22 29.3606 21.8062 29.693 21.4927 29.8705C21.1792 30.048 20.7944 30.0432 20.4855 29.8578L16 27.1662L11.5145 29.8578C11.2056 30.0432 10.8208 30.048 10.5073 29.8705C10.1938 29.693 10 29.3606 10 29.0003V19.7083C8.15875 18.0604 7 15.6655 7 13ZM12 21.0645V27.234L15.4855 25.1425C15.8022 24.9525 16.1978 24.9525 16.5145 25.1425L20 27.234V21.0645C18.795 21.6633 17.4368 22 16 22C14.5632 22 13.205 21.6633 12 21.0645Z" fill="black"/>
</svg>
