<svg width="24" height="24" viewBox="0 0 24 24" fill="none" xmlns="http://www.w3.org/2000/svg">
<path fill-rule="evenodd" clip-rule="evenodd" d="M19.1863 18.4188C21.9289 14.5791 21.9289 9.42097 19.1863 5.58125C18.8653 5.13184 18.9693 4.50729 19.4188 4.18628C19.8682 3.86527 20.4927 3.96937 20.8137 4.41878C24.0531 8.95389 24.0531 15.0461 20.8137 19.5813C20.4927 20.0307 19.8682 20.1348 19.4188 19.8137C18.9693 19.4927 18.8653 18.8682 19.1863 18.4188ZM15.7929 16.2929C18.1638 13.922 18.1638 10.078 15.7929 7.70712C15.4024 7.3166 15.4024 6.68343 15.7929 6.29291C16.1834 5.90239 16.8166 5.90239 17.2071 6.29291C20.3591 9.44486 20.3591 14.5552 17.2071 17.7071C16.8166 18.0976 16.1834 18.0976 15.7929 17.7071C15.4024 17.3166 15.4024 16.6834 15.7929 16.2929ZM11.2535 4.23438C10.7857 3.93544 10.2215 3.92134 9.74149 4.19866L4 7.00002L3.99474 7.50284V16.7907L4 17L9.74149 19.8017C9.971 19.9342 10.2198 20 10.4686 20C10.7393 20 11.01 19.922 11.2535 19.765C11.7213 19.4661 11.9999 18.9377 11.9999 18.354V5.64519C11.9999 5.06047 11.7213 4.53332 11.2535 4.23438ZM3 7.00002H2.53129C1.6868 7.00002 1 7.5938 1 8.50002V15.5C1 16.4062 1.6868 17 2.53129 17H3V7.00002Z" fill="black"/>
</svg>
