<svg width="24" height="24" viewBox="0 0 24 24" fill="none" xmlns="http://www.w3.org/2000/svg">
<path d="M20.97 4.48475C20.9496 4.13218 20.7984 3.79989 20.5459 3.55296C20.2935 3.30603 19.9579 3.16224 19.605 3.14975C18.78 3.09725 16.11 3.05975 15.3375 3.05975C16.71 4.00475 16.8975 5.78975 17.0325 9.10475C17.1075 11.0697 17.0325 17.9547 17.0325 18.2547L16.995 20.1297L9.77247 12.8997V10.6497L15.5175 16.3872C15.5325 15.2472 15.5475 13.7622 15.5475 12.4122C15.5475 11.0922 15.525 9.89975 15.4875 9.26225C15.27 5.65475 14.9325 3.95975 13.05 3.29225C12.4001 3.08964 11.7201 3.00084 11.04 3.02975C10.29 3.02975 5.13747 3.02975 4.38747 3.06725C4.03115 3.0768 3.69218 3.22312 3.44083 3.47586C3.18949 3.7286 3.04505 4.06838 3.03747 4.42475C2.99247 5.15975 2.98497 18.8022 3.03747 19.5522C3.07497 20.2872 3.63747 20.8422 4.38747 20.8872C5.21247 20.9322 7.88997 20.9397 8.66247 20.9397C7.28997 19.9947 7.10247 18.2097 6.96747 14.8947C6.89247 12.9297 6.96747 6.04475 6.96747 5.74475L7.00497 3.86975L14.2275 11.0997V13.3497L8.47497 7.61975C8.45997 8.75975 8.44497 10.2447 8.44497 11.5947C8.44497 12.9147 8.46747 14.1072 8.50497 14.7447C8.72247 18.3522 9.05997 20.0472 10.9425 20.7072C11.52 20.9172 12.06 20.9622 12.9525 20.9772C13.7025 20.9772 18.855 20.9772 19.5975 20.9397C19.9564 20.934 20.2992 20.7894 20.5537 20.5362C20.8082 20.2831 20.9548 19.9411 20.9625 19.5822C21 18.8472 21.0075 5.23475 20.9625 4.49225L20.97 4.48475Z" fill="black"/>
</svg>
