<svg width="24" height="24" viewBox="0 0 24 24" fill="none" xmlns="http://www.w3.org/2000/svg">
<path fill-rule="evenodd" clip-rule="evenodd" d="M8.6522 4.79412C8.35073 4.9613 6.99409 6.16802 5.63746 7.47615C2.80141 10.2105 1.46998 11.2591 0.379468 11.6165C-0.252258 11.8234 -0.134409 11.8525 1.03011 11.7763C2.03237 11.7108 3.26951 11.2914 5.22088 10.3555C9.20308 8.44552 11.4159 8.64203 14.1944 11.1525L15.2846 12.1372L14.4877 9.88164C12.7936 5.086 10.9801 3.5049 8.6522 4.79412ZM9.03645 13.7145C11.6705 20.8745 13.3371 21.1286 19.1685 15.2597C20.3724 14.0475 21.8395 12.8758 22.6291 12.4949L24 11.8338L22.6258 11.9445C21.6954 12.0194 20.3678 12.4905 18.5154 13.4034C14.4356 15.4137 12.0898 15.175 9.25241 12.4614L8.20794 11.4627L9.03645 13.7145Z" fill="black"/>
</svg>
