<svg width="24" height="24" viewBox="0 0 24 24" fill="none" xmlns="http://www.w3.org/2000/svg">
<path fill-rule="evenodd" clip-rule="evenodd" d="M2 5C2 3.89543 2.89543 3 4 3H20C21.1046 3 22 3.89543 22 5V20.4475C22 20.8792 21.4898 21.108 21.1675 20.8209L18.3524 18.3138C18.1546 18.1377 17.8536 18.1464 17.6663 18.3337L15.3535 20.6464C15.1583 20.8416 14.8417 20.8416 14.6465 20.6464L12.3535 18.3535C12.1583 18.1583 11.8417 18.1583 11.6465 18.3535L9.35355 20.6464C9.15829 20.8416 8.84171 20.8416 8.64645 20.6464L6.33369 18.3337C6.14636 18.1464 5.84544 18.1377 5.6476 18.3138L2.83254 20.8209C2.51019 21.108 2 20.8792 2 20.4475V5ZM6 9C6 8.44772 6.44772 8 7 8H17C17.5523 8 18 8.44772 18 9C18 9.55228 17.5523 10 17 10H7C6.44772 10 6 9.55228 6 9ZM7 12C6.44772 12 6 12.4477 6 13C6 13.5523 6.44772 14 7 14H17C17.5523 14 18 13.5523 18 13C18 12.4477 17.5523 12 17 12H7Z" fill="black"/>
</svg>
