<svg width="24" height="24" viewBox="0 0 24 24" fill="none" xmlns="http://www.w3.org/2000/svg">
<path fill-rule="evenodd" clip-rule="evenodd" d="M4.28096 3.15785C4.53344 3.0533 4.80409 2.99965 5.07736 3L5.07663 4L5.07839 3L5.07736 3H9.68648C10.0938 2.99989 10.4846 3.16093 10.7736 3.44796L10.776 3.45031L19.9919 12.664L19.9938 12.6658C20.382 13.056 20.5999 13.5839 20.5999 14.1343C20.5999 14.6847 20.382 15.2127 19.9938 15.6028L19.992 15.6045L15.6046 19.992L15.6027 19.9938C15.2126 20.382 14.6845 20.5999 14.1341 20.5999C13.5837 20.5999 13.0557 20.382 12.6655 19.9938L12.6639 19.9921L3.45053 10.7822L3.44797 10.7796C3.16094 10.4906 2.99991 10.099 3.00001 9.69173L3.00001 5.08162L3.00002 5.08488L4.00001 5.07999H3.00001V5.08162C2.99911 4.80911 3.0519 4.53908 3.15538 4.28696C3.25927 4.03383 3.41221 3.80376 3.60538 3.60997C3.79856 3.41619 4.02816 3.26254 4.28096 3.15785ZM5.07487 5C5.06502 4.99998 5.05525 5.00191 5.04615 5.00568C5.03704 5.00946 5.02877 5.01499 5.02181 5.02197C5.01485 5.02895 5.00934 5.03724 5.0056 5.04636C5.00185 5.05548 4.99996 5.06525 5.00001 5.07511V9.5032L14.0765 18.5764C14.0919 18.5915 14.1126 18.5999 14.1341 18.5999C14.1557 18.5999 14.1768 18.5911 14.1921 18.576L18.5765 14.1917C18.5915 14.1764 18.5999 14.1558 18.5999 14.1343C18.5999 14.1129 18.5911 14.0919 18.5761 14.0766L9.4973 5L5.07487 5ZM6.99995 8.25098C7.6903 8.25098 8.24995 7.69133 8.24995 7.00098C8.24995 6.31062 7.6903 5.75097 6.99995 5.75097C6.30959 5.75097 5.74995 6.31062 5.74995 7.00098C5.74995 7.69133 6.30959 8.25098 6.99995 8.25098Z" fill="black"/>
</svg>
