<svg width="24" height="24" viewBox="0 0 24 24" fill="none" xmlns="http://www.w3.org/2000/svg">
<path fill-rule="evenodd" clip-rule="evenodd" d="M7.02657 3C6.7533 2.99966 6.48265 3.0533 6.23017 3.15786C5.97737 3.26254 5.74777 3.4162 5.55459 3.60998C5.36142 3.80376 5.20848 4.03384 5.10459 4.28696C5.00111 4.53909 4.94832 4.80912 4.94922 5.08163V5.08H5.94922L4.94924 5.08488L4.94922 5.08163L4.94922 9.69174C4.94912 10.0991 5.11015 10.4906 5.39718 10.7796L5.39975 10.7822L14.6131 19.9921L14.6147 19.9938C15.0049 20.382 15.5329 20.5999 16.0834 20.5999C16.6338 20.5999 17.1618 20.382 17.552 19.9938L17.5538 19.992L21.9412 15.6045L21.943 15.6028C22.3312 15.2127 22.5491 14.6847 22.5491 14.1343C22.5491 13.5839 22.3312 13.056 21.943 12.6658L21.9412 12.664L12.7252 3.45031L12.7228 3.44796C12.4338 3.16093 12.043 2.9999 11.6357 3H7.02657ZM7.02657 3L7.0276 3L7.02584 4L7.02657 3ZM6.99536 5.00569C7.00447 5.00192 7.01423 4.99998 7.02409 5L11.4465 5L20.5253 14.0766C20.5403 14.0919 20.5491 14.1129 20.5491 14.1343C20.5491 14.1558 20.5407 14.1764 20.5257 14.1917L16.1414 18.576C16.126 18.5911 16.1049 18.5999 16.0834 18.5999C16.0618 18.5999 16.0411 18.5915 16.0257 18.5764L6.94922 9.50321V5.07511C6.94918 5.06525 6.95107 5.05548 6.95481 5.04637C6.95855 5.03724 6.96406 5.02896 6.97102 5.02198C6.97798 5.015 6.98625 5.00946 6.99536 5.00569ZM3.0001 5.49707C3.55239 5.49707 4.0001 5.94479 4.0001 6.49707V11.1078L13.6822 20.7899C14.0727 21.1804 14.0727 21.8136 13.6822 22.2041C13.2916 22.5946 12.6585 22.5946 12.2679 22.2041L2.443 12.3791L2.43995 12.3761C2.29678 12.2317 2.18409 12.06 2.10856 11.8712C2.03461 11.6863 1.99777 11.4887 2.0001 11.2896V6.49707C2.0001 5.94479 2.44782 5.49707 3.0001 5.49707ZM8.94916 8.25098C9.63951 8.25098 10.1992 7.69133 10.1992 7.00098C10.1992 6.31062 9.63951 5.75098 8.94916 5.75098C8.2588 5.75098 7.69916 6.31062 7.69916 7.00098C7.69916 7.69133 8.2588 8.25098 8.94916 8.25098Z" fill="black"/>
</svg>
