<svg width="32" height="32" viewBox="0 0 32 32" fill="none" xmlns="http://www.w3.org/2000/svg">
<path d="M20.5587 24.4537C20.6571 24.6046 20.713 24.7793 20.7203 24.9593C20.7276 25.1392 20.6862 25.3179 20.6004 25.4763C20.5146 25.6346 20.3877 25.7669 20.2329 25.8591C20.0782 25.9513 19.9014 26 19.7212 26H1.27875C1.09862 26 0.921837 25.9513 0.767085 25.8591C0.612333 25.7669 0.485354 25.6346 0.399565 25.4763C0.313777 25.3179 0.272363 25.1392 0.2797 24.9593C0.287036 24.7793 0.342851 24.6046 0.441248 24.4537C1.84888 22.287 3.91936 20.6335 6.34375 19.74C5.0035 18.8477 3.98596 17.5478 3.44162 16.0326C2.89728 14.5173 2.85503 12.867 3.32111 11.3259C3.7872 9.78471 4.73688 8.43445 6.02971 7.47478C7.32255 6.5151 8.8899 5.99695 10.5 5.99695C12.1101 5.99695 13.6774 6.5151 14.9703 7.47478C16.2631 8.43445 17.2128 9.78471 17.6789 11.3259C18.145 12.867 18.1027 14.5173 17.5584 16.0326C17.014 17.5478 15.9965 18.8477 14.6562 19.74C17.0806 20.6335 19.1511 22.287 20.5587 24.4537ZM31.5475 24.435C30.1395 22.2774 28.0736 20.631 25.6562 19.74C27.2385 18.6742 28.3551 17.0455 28.7788 15.1854C29.2025 13.3254 28.9015 11.3737 27.937 9.72777C26.9725 8.08183 25.417 6.86529 23.5872 6.32578C21.7573 5.78627 19.7907 5.96434 18.0875 6.82374C18.0224 6.85737 17.9654 6.9049 17.9207 6.96298C17.876 7.02105 17.8446 7.08825 17.8287 7.15981C17.8129 7.23137 17.8129 7.30554 17.8289 7.37707C17.8449 7.4486 17.8764 7.51574 17.9212 7.57374C19.1877 9.1535 19.915 11.0973 19.9967 13.1204C20.0783 15.1435 19.51 17.1396 18.375 18.8162C18.3016 18.9258 18.2745 19.0599 18.2996 19.1894C18.3246 19.3189 18.3998 19.4332 18.5087 19.5075C19.9886 20.5403 21.2555 21.8488 22.24 23.3612C22.6371 23.9693 22.7992 24.7011 22.6962 25.42C22.6847 25.4915 22.6887 25.5647 22.7082 25.6345C22.7277 25.7042 22.7621 25.7689 22.8091 25.8241C22.856 25.8793 22.9144 25.9236 22.9802 25.9539C23.046 25.9843 23.1176 26 23.19 26H30.7275C30.9477 26.0001 31.1618 25.9274 31.3365 25.7934C31.5112 25.6594 31.6368 25.4714 31.6937 25.2587C31.7285 25.1189 31.7335 24.9732 31.7083 24.8313C31.6831 24.6894 31.6283 24.5544 31.5475 24.435Z" fill="black"/>
</svg>
