<svg width="32" height="32" viewBox="0 0 32 32" fill="none" xmlns="http://www.w3.org/2000/svg">
<path d="M16 9.50001C17.0878 9.50001 18.1512 9.82258 19.0556 10.4269C19.9601 11.0313 20.6651 11.8903 21.0813 12.8953C21.4976 13.9002 21.6065 15.0061 21.3943 16.073C21.1821 17.1399 20.6583 18.1199 19.8891 18.8891C19.1199 19.6583 18.1399 20.1821 17.073 20.3943C16.0061 20.6066 14.9002 20.4976 13.8952 20.0814C12.8903 19.6651 12.0313 18.9601 11.4269 18.0556C10.8226 17.1512 10.5 16.0878 10.5 15C10.5 13.5413 11.0795 12.1424 12.1109 11.1109C13.1424 10.0795 14.5413 9.50001 16 9.50001ZM22 8.00001H24V10C24 10.2652 24.1054 10.5196 24.2929 10.7071C24.4804 10.8947 24.7348 11 25 11C25.2652 11 25.5196 10.8947 25.7071 10.7071C25.8946 10.5196 26 10.2652 26 10V8.00001H28C28.2652 8.00001 28.5196 7.89466 28.7071 7.70712C28.8946 7.51958 29 7.26523 29 7.00001C29 6.7348 28.8946 6.48044 28.7071 6.29291C28.5196 6.10537 28.2652 6.00001 28 6.00001H26V4.00001C26 3.7348 25.8946 3.48044 25.7071 3.29291C25.5196 3.10537 25.2652 3.00001 25 3.00001C24.7348 3.00001 24.4804 3.10537 24.2929 3.29291C24.1054 3.48044 24 3.7348 24 4.00001V6.00001H22C21.7348 6.00001 21.4804 6.10537 21.2929 6.29291C21.1054 6.48044 21 6.7348 21 7.00001C21 7.26523 21.1054 7.51958 21.2929 7.70712C21.4804 7.89466 21.7348 8.00001 22 8.00001ZM27.6688 13.0138C27.4072 13.0575 27.1737 13.2034 27.0197 13.4193C26.8657 13.6352 26.8038 13.9034 26.8475 14.165C26.949 14.7714 27 15.3852 27 16C27.0024 18.6928 26.0127 21.292 24.22 23.3013C23.4926 22.2471 22.5692 21.3427 21.5 20.6375C21.4087 20.577 21.3 20.5481 21.1907 20.5553C21.0814 20.5626 20.9775 20.6055 20.895 20.6775C19.5363 21.8531 17.7998 22.5001 16.0031 22.5001C14.2065 22.5001 12.4699 21.8531 11.1113 20.6775C11.0282 20.604 10.9231 20.5602 10.8125 20.5529C10.7018 20.5457 10.5919 20.5755 10.5 20.6375C9.4292 21.342 8.50438 22.2464 7.77625 23.3013C6.36944 21.716 5.45057 19.758 5.13017 17.6629C4.80976 15.5678 5.10147 13.4247 5.97019 11.4914C6.83892 9.55811 8.24767 7.91698 10.027 6.76537C11.8064 5.61377 13.8805 5.00074 16 5.00001C16.6148 4.99992 17.2286 5.05093 17.835 5.15251C18.0954 5.1936 18.3615 5.13021 18.5754 4.97613C18.7893 4.82204 18.9337 4.58974 18.9772 4.32974C19.0207 4.06974 18.9597 3.80309 18.8076 3.58778C18.6555 3.37247 18.4246 3.22592 18.165 3.18001C15.4493 2.72316 12.6587 3.14118 10.196 4.37373C7.73341 5.60628 5.72621 7.58958 4.46423 10.0373C3.20226 12.4849 2.75082 15.2704 3.1751 17.9913C3.59938 20.7123 4.87741 23.2281 6.82469 25.1753C8.77196 27.1226 11.2877 28.4006 14.0087 28.8249C16.7297 29.2492 19.5151 28.7978 21.9628 27.5358C24.4104 26.2738 26.3937 24.2666 27.6263 21.804C28.8588 19.3413 29.2769 16.5507 28.82 13.835C28.7762 13.5735 28.6304 13.34 28.4145 13.186C28.1986 13.032 27.9303 12.97 27.6688 13.0138Z" fill="black"/>
</svg>
