<svg width="32" height="32" viewBox="0 0 32 32" fill="none" xmlns="http://www.w3.org/2000/svg">
<path d="M28.5312 7.88375L27.9487 7.5475C28.0171 7.1857 28.0171 6.8143 27.9487 6.4525L28.5312 6.11625C28.761 5.98364 28.9286 5.7652 28.9973 5.50898C29.066 5.25276 29.0301 4.97974 28.8975 4.75C28.7649 4.52026 28.5464 4.3526 28.2902 4.28392C28.034 4.21523 27.761 4.25114 27.5312 4.38375L26.9475 4.72125C26.6681 4.48157 26.3469 4.29554 26 4.1725V3.5C26 3.23478 25.8946 2.98043 25.7071 2.79289C25.5196 2.60536 25.2652 2.5 25 2.5C24.7348 2.5 24.4804 2.60536 24.2929 2.79289C24.1054 2.98043 24 3.23478 24 3.5V4.1725C23.6531 4.29554 23.3319 4.48157 23.0525 4.72125L22.4687 4.38375C22.355 4.31809 22.2294 4.27548 22.0992 4.25835C21.969 4.24122 21.8366 4.24991 21.7098 4.28392C21.5829 4.31792 21.464 4.37659 21.3598 4.45656C21.2556 4.53653 21.1682 4.63624 21.1025 4.75C21.0368 4.86376 20.9942 4.98933 20.9771 5.11956C20.96 5.24979 20.9687 5.38211 21.0027 5.50898C21.0367 5.63585 21.0953 5.75477 21.1753 5.85897C21.2553 5.96316 21.355 6.05059 21.4687 6.11625L22.0512 6.4525C21.9829 6.8143 21.9829 7.1857 22.0512 7.5475L21.4687 7.88375C21.278 7.99377 21.1289 8.16367 21.0446 8.36709C20.9603 8.57052 20.9454 8.79609 21.0024 9.00879C21.0594 9.22149 21.185 9.40944 21.3597 9.54346C21.5345 9.67748 21.7485 9.75009 21.9687 9.75C22.1443 9.75054 22.3169 9.70438 22.4687 9.61625L23.0525 9.27875C23.3319 9.51843 23.6531 9.70446 24 9.8275V10.5C24 10.7652 24.1054 11.0196 24.2929 11.2071C24.4804 11.3946 24.7348 11.5 25 11.5C25.2652 11.5 25.5196 11.3946 25.7071 11.2071C25.8946 11.0196 26 10.7652 26 10.5V9.8275C26.3469 9.70446 26.6681 9.51843 26.9475 9.27875L27.5312 9.61625C27.6831 9.70438 27.8557 9.75054 28.0312 9.75C28.2515 9.75009 28.4655 9.67748 28.6403 9.54346C28.815 9.40944 28.9406 9.22149 28.9976 9.00879C29.0546 8.79609 29.0397 8.57052 28.9554 8.36709C28.8711 8.16367 28.722 7.99377 28.5312 7.88375ZM24 7C24 6.80222 24.0586 6.60888 24.1685 6.44443C24.2784 6.27998 24.4346 6.15181 24.6173 6.07612C24.8 6.00043 25.0011 5.98063 25.1951 6.01921C25.3891 6.0578 25.5673 6.15304 25.7071 6.29289C25.847 6.43275 25.9422 6.61093 25.9808 6.80491C26.0194 6.99889 25.9996 7.19996 25.9239 7.38268C25.8482 7.56541 25.72 7.72159 25.5556 7.83147C25.3911 7.94135 25.1978 8 25 8C24.7348 8 24.4804 7.89464 24.2929 7.70711C24.1054 7.51957 24 7.26522 24 7ZM27.6688 13.0138C27.4072 13.0575 27.1737 13.2034 27.0197 13.4193C26.8657 13.6352 26.8038 13.9034 26.8475 14.165C26.949 14.7714 27 15.3852 27 16C27.0024 18.6927 26.0127 21.292 24.22 23.3013C23.1047 21.6851 21.5365 20.4348 19.7125 19.7075C20.6923 18.9358 21.4072 17.878 21.7579 16.6811C22.1086 15.4843 22.0776 14.2079 21.6693 13.0294C21.2609 11.851 20.4955 10.8291 19.4794 10.1059C18.4634 9.38262 17.2472 8.99397 16 8.99397C14.7528 8.99397 13.5366 9.38262 12.5206 10.1059C11.5045 10.8291 10.7391 11.851 10.3307 13.0294C9.92238 14.2079 9.89139 15.4843 10.2421 16.6811C10.5928 17.878 11.3077 18.9358 12.2875 19.7075C10.4635 20.4348 8.89529 21.6851 7.78 23.3013C6.3734 21.7162 5.45459 19.7586 5.13405 17.6638C4.81352 15.569 5.1049 13.4262 5.97317 11.4931C6.84144 9.55995 8.24962 7.91877 10.0284 6.76688C11.8072 5.615 13.8808 5.00144 16 5C16.6148 4.9999 17.2286 5.05091 17.835 5.1525C18.0954 5.19359 18.3615 5.13019 18.5754 4.97611C18.7893 4.82203 18.9337 4.58972 18.9772 4.32973C19.0206 4.06973 18.9597 3.80307 18.8076 3.58776C18.6555 3.37245 18.4246 3.22591 18.165 3.18C15.4493 2.72314 12.6587 3.14117 10.196 4.37372C7.73341 5.60627 5.7262 7.58956 4.46423 10.0372C3.20226 12.4849 2.75082 15.2703 3.1751 17.9913C3.59937 20.7123 4.87741 23.228 6.82468 25.1753C8.77196 27.1226 11.2877 28.4006 14.0087 28.8249C16.7297 29.2492 19.5151 28.7977 21.9628 27.5358C24.4104 26.2738 26.3937 24.2666 27.6263 21.804C28.8588 19.3413 29.2769 16.5507 28.82 13.835C28.7762 13.5734 28.6303 13.34 28.4145 13.186C28.1986 13.0319 27.9303 12.97 27.6688 13.0138ZM12 15C12 14.2089 12.2346 13.4355 12.6741 12.7777C13.1136 12.1199 13.7384 11.6072 14.4693 11.3045C15.2002 11.0017 16.0044 10.9225 16.7804 11.0769C17.5563 11.2312 18.269 11.6122 18.8284 12.1716C19.3878 12.731 19.7688 13.4437 19.9231 14.2196C20.0775 14.9956 19.9983 15.7998 19.6955 16.5307C19.3928 17.2616 18.8801 17.8864 18.2223 18.3259C17.5645 18.7654 16.7911 19 16 19C14.9391 19 13.9217 18.5786 13.1716 17.8284C12.4214 17.0783 12 16.0609 12 15ZM9.26 24.6875C9.98342 23.5561 10.98 22.625 12.1579 21.9801C13.3358 21.3351 14.6571 20.9971 16 20.9971C17.3429 20.9971 18.6642 21.3351 19.8421 21.9801C21.02 22.625 22.0166 23.5561 22.74 24.6875C20.8129 26.1862 18.4413 26.9999 16 26.9999C13.5587 26.9999 11.1871 26.1862 9.26 24.6875Z" fill="black"/>
</svg>
