<svg width="32" height="32" viewBox="0 0 32 32" fill="none" xmlns="http://www.w3.org/2000/svg">
<path opacity="0.2" d="M28 16C28.0018 17.6829 27.6487 19.3473 26.9638 20.8845C26.2788 22.4217 25.2775 23.7972 24.025 24.9213C23.272 23.4401 22.1237 22.1964 20.7072 21.3277C19.2908 20.4591 17.6616 19.9996 16 20C16.9889 20 17.9556 19.7068 18.7778 19.1574C19.6001 18.6079 20.241 17.8271 20.6194 16.9134C20.9978 15.9998 21.0969 14.9945 20.9039 14.0246C20.711 13.0546 20.2348 12.1637 19.5355 11.4645C18.8363 10.7652 17.9454 10.289 16.9755 10.0961C16.0055 9.90315 15.0002 10.0022 14.0866 10.3806C13.173 10.759 12.3921 11.3999 11.8427 12.2222C11.2932 13.0444 11 14.0111 11 15C11 16.3261 11.5268 17.5979 12.4645 18.5355C13.4021 19.4732 14.6739 20 16 20C14.3384 19.9996 12.7092 20.4591 11.2928 21.3277C9.87634 22.1964 8.72801 23.4401 7.975 24.9213C6.48781 23.5836 5.35861 21.8953 4.69007 20.0101C4.02153 18.1248 3.83486 16.1024 4.14704 14.1266C4.45922 12.1508 5.26034 10.2844 6.47756 8.69714C7.69477 7.10984 9.28947 5.852 11.1166 5.03799C12.9438 4.22398 14.9454 3.87963 16.9396 4.03625C18.9337 4.19287 20.8571 4.84549 22.5348 5.93477C24.2124 7.02405 25.5912 8.51543 26.5457 10.2733C27.5002 12.0311 28.0001 13.9997 28 16Z" fill="black"/>
<path d="M21 7C21 6.73478 21.1054 6.48043 21.2929 6.29289C21.4804 6.10536 21.7348 6 22 6H28C28.2652 6 28.5196 6.10536 28.7071 6.29289C28.8946 6.48043 29 6.73478 29 7C29 7.26522 28.8946 7.51957 28.7071 7.70711C28.5196 7.89464 28.2652 8 28 8H22C21.7348 8 21.4804 7.89464 21.2929 7.70711C21.1054 7.51957 21 7.26522 21 7ZM28.82 13.835C29.2769 16.5507 28.8588 19.3413 27.6263 21.804C26.3937 24.2666 24.4104 26.2738 21.9628 27.5358C19.5151 28.7977 16.7297 29.2492 14.0087 28.8249C11.2877 28.4006 8.77195 27.1226 6.82468 25.1753C4.87741 23.228 3.59937 20.7123 3.17509 17.9913C2.75082 15.2703 3.20225 12.4849 4.46423 10.0372C5.7262 7.58956 7.73341 5.60627 10.196 4.37372C12.6587 3.14117 15.4493 2.72314 18.165 3.18C18.4246 3.22591 18.6555 3.37245 18.8076 3.58776C18.9597 3.80307 19.0206 4.06973 18.9771 4.32973C18.9337 4.58972 18.7893 4.82203 18.5754 4.97611C18.3615 5.13019 18.0954 5.19358 17.835 5.1525C16.2577 4.88716 14.6415 4.96872 13.0988 5.39151C11.5562 5.8143 10.1243 6.56816 8.90265 7.60062C7.68101 8.63309 6.69903 9.91937 6.02505 11.3699C5.35106 12.8205 5.00126 14.4005 5 16C4.99763 18.6927 5.98731 21.292 7.78 23.3012C8.89529 21.6851 10.4635 20.4348 12.2875 19.7075C11.3077 18.9358 10.5928 17.878 10.2421 16.6811C9.89139 15.4843 9.92238 14.2079 10.3307 13.0294C10.7391 11.851 11.5045 10.8291 12.5206 10.1059C13.5366 9.38262 14.7528 8.99397 16 8.99397C17.2472 8.99397 18.4634 9.38262 19.4794 10.1059C20.4955 10.8291 21.2609 11.851 21.6693 13.0294C22.0776 14.2079 22.1086 15.4843 21.7579 16.6811C21.4072 17.878 20.6923 18.9358 19.7125 19.7075C21.5365 20.4348 23.1047 21.6851 24.22 23.3012C26.0127 21.292 27.0024 18.6927 27 16C27 15.3852 26.949 14.7714 26.8475 14.165C26.8245 14.0349 26.8275 13.9016 26.8563 13.7726C26.8851 13.6437 26.9392 13.5218 27.0154 13.4139C27.0917 13.306 27.1885 13.2143 27.3004 13.144C27.4122 13.0738 27.5369 13.0264 27.6672 13.0046C27.7975 12.9828 27.9308 12.987 28.0595 13.017C28.1881 13.047 28.3095 13.1023 28.4167 13.1795C28.5239 13.2567 28.6147 13.3544 28.684 13.4669C28.7532 13.5794 28.7994 13.7045 28.82 13.835ZM16 19C16.7911 19 17.5645 18.7654 18.2223 18.3259C18.8801 17.8864 19.3928 17.2616 19.6955 16.5307C19.9983 15.7998 20.0775 14.9956 19.9231 14.2196C19.7688 13.4437 19.3878 12.731 18.8284 12.1716C18.269 11.6122 17.5563 11.2312 16.7804 11.0769C16.0044 10.9225 15.2002 11.0017 14.4693 11.3045C13.7384 11.6072 13.1136 12.1199 12.6741 12.7777C12.2346 13.4355 12 14.2089 12 15C12 16.0609 12.4214 17.0783 13.1716 17.8284C13.9217 18.5786 14.9391 19 16 19ZM16 27C18.4417 27.0025 20.8141 26.1885 22.74 24.6875C22.0166 23.5561 21.02 22.625 19.8421 21.9801C18.6642 21.3351 17.3429 20.9971 16 20.9971C14.6571 20.9971 13.3358 21.3351 12.1579 21.9801C10.98 22.625 9.98342 23.5561 9.26 24.6875C11.1859 26.1885 13.5583 27.0025 16 27Z" fill="black"/>
</svg>
