<svg width="32" height="32" viewBox="0 0 32 32" fill="none" xmlns="http://www.w3.org/2000/svg">
<path opacity="0.2" d="M21 18C21 18.9889 20.7068 19.9556 20.1574 20.7779C19.6079 21.6001 18.8271 22.241 17.9134 22.6194C16.9998 22.9978 15.9945 23.0969 15.0246 22.9039C14.0546 22.711 13.1637 22.2348 12.4645 21.5355C11.7652 20.8363 11.289 19.9454 11.0961 18.9755C10.9031 18.0055 11.0022 17.0002 11.3806 16.0866C11.759 15.173 12.3999 14.3921 13.2222 13.8427C14.0444 13.2932 15.0111 13 16 13C17.3261 13 18.5979 13.5268 19.5355 14.4645C20.4732 15.4021 21 16.6739 21 18ZM8 7C7.20888 7 6.43552 7.2346 5.77772 7.67412C5.11992 8.11365 4.60723 8.73836 4.30448 9.46927C4.00173 10.2002 3.92252 11.0044 4.07686 11.7804C4.2312 12.5563 4.61216 13.269 5.17157 13.8284C5.73098 14.3878 6.44372 14.7688 7.21964 14.9231C7.99556 15.0775 8.79983 14.9983 9.53074 14.6955C10.2616 14.3928 10.8864 13.8801 11.3259 13.2223C11.7654 12.5645 12 11.7911 12 11C12 9.93913 11.5786 8.92172 10.8284 8.17157C10.0783 7.42143 9.06087 7 8 7ZM24 7C23.2089 7 22.4355 7.2346 21.7777 7.67412C21.1199 8.11365 20.6072 8.73836 20.3045 9.46927C20.0017 10.2002 19.9225 11.0044 20.0769 11.7804C20.2312 12.5563 20.6122 13.269 21.1716 13.8284C21.731 14.3878 22.4437 14.7688 23.2196 14.9231C23.9956 15.0775 24.7998 14.9983 25.5307 14.6955C26.2616 14.3928 26.8864 13.8801 27.3259 13.2223C27.7654 12.5645 28 11.7911 28 11C28 9.93913 27.5786 8.92172 26.8284 8.17157C26.0783 7.42143 25.0609 7 24 7Z" fill="black"/>
<path d="M30.6 18.8C30.495 18.8788 30.3754 18.9361 30.2482 18.9687C30.121 19.0013 29.9886 19.0085 29.8586 18.9899C29.7286 18.9714 29.6035 18.9274 29.4905 18.8605C29.3775 18.7936 29.2788 18.705 29.2 18.6C28.5973 17.7898 27.8127 17.1325 26.9096 16.6809C26.0064 16.2293 25.0098 15.9961 24 16C23.7348 16 23.4804 15.8946 23.2929 15.7071C23.1054 15.5196 23 15.2652 23 15C23 14.7348 23.1054 14.4804 23.2929 14.2929C23.4804 14.1053 23.7348 14 24 14C24.5611 13.9999 25.1109 13.8425 25.5871 13.5457C26.0632 13.2488 26.4465 12.8243 26.6935 12.3205C26.9405 11.8167 27.0412 11.2538 26.9843 10.6956C26.9273 10.1374 26.715 9.60633 26.3714 9.16277C26.0278 8.7192 25.5666 8.38089 25.0404 8.18626C24.5141 7.99163 23.9439 7.94848 23.3943 8.06172C22.8448 8.17495 22.338 8.44004 21.9315 8.82685C21.5251 9.21367 21.2353 9.70672 21.095 10.25C21.0622 10.3772 21.0046 10.4967 20.9256 10.6017C20.8466 10.7067 20.7477 10.795 20.6345 10.8618C20.5213 10.9285 20.3961 10.9723 20.266 10.9907C20.1359 11.009 20.0035 11.0016 19.8763 10.9687C19.749 10.9359 19.6295 10.8783 19.5246 10.7993C19.4196 10.7203 19.3312 10.6214 19.2645 10.5082C19.1977 10.3951 19.1539 10.2698 19.1356 10.1397C19.1172 10.0096 19.1247 9.87721 19.1575 9.74999C19.3522 8.99663 19.72 8.29911 20.2318 7.71293C20.7435 7.12675 21.3849 6.66808 22.1051 6.37343C22.8252 6.07877 23.6042 5.95627 24.3801 6.01565C25.1559 6.07504 25.9072 6.31468 26.5741 6.7155C27.241 7.11633 27.8052 7.66728 28.2217 8.32451C28.6383 8.98175 28.8957 9.72712 28.9734 10.5013C29.0512 11.2755 28.9472 12.0572 28.6697 12.7842C28.3922 13.5111 27.9489 14.1633 27.375 14.6887C28.7348 15.2775 29.9168 16.2118 30.8038 17.3987C30.8826 17.5041 30.9398 17.6239 30.9722 17.7514C31.0046 17.8789 31.0115 18.0115 30.9926 18.1416C30.9737 18.2718 30.9293 18.397 30.8619 18.5099C30.7945 18.6229 30.7055 18.7215 30.6 18.8ZM23.865 26.5C23.9348 26.6138 23.9811 26.7405 24.0012 26.8725C24.0213 27.0045 24.0147 27.1392 23.9819 27.2687C23.949 27.3981 23.8906 27.5197 23.81 27.6262C23.7295 27.7326 23.6284 27.8219 23.5127 27.8887C23.3971 27.9555 23.2693 27.9985 23.1368 28.015C23.0042 28.0316 22.8698 28.0215 22.7412 27.9853C22.6127 27.949 22.4927 27.8874 22.3884 27.8041C22.2841 27.7207 22.1975 27.6173 22.1338 27.5C21.5037 26.4336 20.6066 25.5499 19.5309 24.936C18.4552 24.3221 17.238 23.9992 15.9994 23.9992C14.7608 23.9992 13.5436 24.3221 12.4679 24.936C11.3922 25.5499 10.495 26.4336 9.86501 27.5C9.8025 27.6195 9.71646 27.7251 9.61206 27.8105C9.50767 27.8959 9.38708 27.9593 9.25755 27.9969C9.12802 28.0344 8.99223 28.0454 8.85835 28.0292C8.72446 28.0129 8.59525 27.9697 8.47848 27.9022C8.36172 27.8347 8.25981 27.7443 8.1789 27.6364C8.09798 27.5285 8.03973 27.4054 8.00764 27.2744C7.97556 27.1434 7.9703 27.0072 7.99219 26.8742C8.01408 26.7411 8.06266 26.6138 8.13501 26.5C9.10451 24.8342 10.5828 23.5233 12.3525 22.76C11.3567 21.9975 10.6248 20.9422 10.2598 19.7423C9.89473 18.5424 9.91489 17.2582 10.3174 16.0704C10.7199 14.8825 11.4846 13.8507 12.5038 13.1198C13.5231 12.389 14.7458 11.996 16 11.996C17.2542 11.996 18.4769 12.389 19.4962 13.1198C20.5155 13.8507 21.2801 14.8825 21.6826 16.0704C22.0851 17.2582 22.1053 18.5424 21.7403 19.7423C21.3752 20.9422 20.6434 21.9975 19.6475 22.76C21.4173 23.5233 22.8955 24.8342 23.865 26.5ZM16 22C16.7911 22 17.5645 21.7654 18.2223 21.3259C18.8801 20.8863 19.3928 20.2616 19.6955 19.5307C19.9983 18.7998 20.0775 17.9956 19.9232 17.2196C19.7688 16.4437 19.3878 15.731 18.8284 15.1716C18.269 14.6122 17.5563 14.2312 16.7804 14.0768C16.0045 13.9225 15.2002 14.0017 14.4693 14.3045C13.7384 14.6072 13.1137 15.1199 12.6741 15.7777C12.2346 16.4355 12 17.2089 12 18C12 19.0609 12.4214 20.0783 13.1716 20.8284C13.9217 21.5786 14.9391 22 16 22ZM9.00001 15C9.00001 14.7348 8.89466 14.4804 8.70712 14.2929C8.51958 14.1053 8.26523 14 8.00001 14C7.43892 13.9999 6.88909 13.8425 6.41297 13.5457C5.93686 13.2488 5.55353 12.8243 5.30655 12.3205C5.05957 11.8167 4.95882 11.2538 5.01576 10.6956C5.0727 10.1374 5.28503 9.60633 5.62865 9.16277C5.97226 8.7192 6.43339 8.38089 6.95964 8.18626C7.48589 7.99163 8.05618 7.94848 8.60572 8.06172C9.15527 8.17495 9.66204 8.44004 10.0685 8.82685C10.4749 9.21367 10.7647 9.70672 10.905 10.25C10.9713 10.5069 11.137 10.727 11.3655 10.8618C11.5941 10.9966 11.8668 11.035 12.1238 10.9687C12.3807 10.9024 12.6008 10.7368 12.7355 10.5082C12.8703 10.2797 12.9088 10.0069 12.8425 9.74999C12.6478 8.99663 12.28 8.29911 11.7683 7.71293C11.2566 7.12675 10.6151 6.66808 9.89495 6.37343C9.17479 6.07877 8.3958 5.95627 7.61996 6.01565C6.84412 6.07504 6.09285 6.31468 5.42592 6.7155C4.75899 7.11633 4.19482 7.66728 3.77829 8.32451C3.36176 8.98175 3.10437 9.72712 3.0266 10.5013C2.94883 11.2755 3.05283 12.0572 3.33032 12.7842C3.60781 13.5111 4.05113 14.1633 4.62501 14.6887C3.26662 15.278 2.08591 16.2123 1.20001 17.3987C1.04072 17.6109 0.972231 17.8777 1.00962 18.1403C1.04701 18.403 1.18721 18.6401 1.39939 18.7994C1.61156 18.9587 1.87832 19.0271 2.14099 18.9898C2.40366 18.9524 2.64072 18.8122 2.80001 18.6C3.40275 17.7898 4.18728 17.1325 5.09046 16.6809C5.99364 16.2293 6.99023 15.9961 8.00001 16C8.26523 16 8.51958 15.8946 8.70712 15.7071C8.89466 15.5196 9.00001 15.2652 9.00001 15Z" fill="black"/>
</svg>
