<svg width="32" height="32" viewBox="0 0 32 32" fill="none" xmlns="http://www.w3.org/2000/svg">
<path fill-rule="evenodd" clip-rule="evenodd" d="M16 20C20.4183 20 24 16.4183 24 12C24 7.58172 20.4183 4 16 4C11.5817 4 8.00002 7.58172 8.00002 12C8.00002 16.4183 11.5817 20 16 20ZM2.86778 26.6042C4.07768 24.8517 6.55276 21.8742 10.293 20.2126C11.9114 21.3394 13.8786 22 16 22C18.1215 22 20.0886 21.3394 21.707 20.2126C25.4473 21.8743 27.9223 24.8517 29.1322 26.6042C29.5582 27.2212 29.1049 28 28.355 28H3.64495C2.89513 28 2.44177 27.2212 2.86778 26.6042Z" fill="black"/>
</svg>
